<?xml version="1.0" encoding="UTF-8" standalone="no"?>
<!-- Created with Inkscape (http://www.inkscape.org/) -->

<svg
   xmlns:dc="http://purl.org/dc/elements/1.1/"
   xmlns:cc="http://creativecommons.org/ns#"
   xmlns:rdf="http://www.w3.org/1999/02/22-rdf-syntax-ns#"
   xmlns:svg="http://www.w3.org/2000/svg"
   xmlns="http://www.w3.org/2000/svg"
   xmlns:sodipodi="http://sodipodi.sourceforge.net/DTD/sodipodi-0.dtd"
   xmlns:inkscape="http://www.inkscape.org/namespaces/inkscape"
   width="154.14978mm"
   height="245.20627mm"
   viewBox="0 0 154.14978 245.20627"
   version="1.1"
   id="svg8"
   inkscape:version="0.92.1 r15371"
   sodipodi:docname="logo.svg">
  <defs
     id="defs2">
    <clipPath
       id="clipPath37"
       clipPathUnits="userSpaceOnUse">
      <path
         inkscape:connector-curvature="0"
         id="path35"
         d="M 0,841.89 H 595.28 V 0 H 0 Z" />
    </clipPath>
    <clipPath
       id="clipPath49"
       clipPathUnits="userSpaceOnUse">
      <path
         inkscape:connector-curvature="0"
         id="path47"
         d="M 0,841.89 H 595.28 V 0 H 0 Z" />
    </clipPath>
    <clipPath
       id="clipPath117"
       clipPathUnits="userSpaceOnUse">
      <path
         inkscape:connector-curvature="0"
         id="path115"
         d="M 0,841.89 H 595.28 V 0 H 0 Z" />
    </clipPath>
    <clipPath
       id="clipPath149"
       clipPathUnits="userSpaceOnUse">
      <path
         inkscape:connector-curvature="0"
         id="path147"
         d="M 0,841.89 H 595.28 V 0 H 0 Z" />
    </clipPath>
    <clipPath
       id="clipPath165"
       clipPathUnits="userSpaceOnUse">
      <path
         inkscape:connector-curvature="0"
         id="path163"
         d="M 0,841.89 H 595.28 V 0 H 0 Z" />
    </clipPath>
    <clipPath
       id="clipPath181"
       clipPathUnits="userSpaceOnUse">
      <path
         inkscape:connector-curvature="0"
         id="path179"
         d="M 0,841.89 H 595.28 V 0 H 0 Z" />
    </clipPath>
  </defs>
  <sodipodi:namedview
     id="base"
     pagecolor="#ffffff"
     bordercolor="#666666"
     borderopacity="1.0"
     inkscape:pageopacity="0.0"
     inkscape:pageshadow="2"
     inkscape:zoom="0.7"
     inkscape:cx="116.34318"
     inkscape:cy="420.81672"
     inkscape:document-units="mm"
     inkscape:current-layer="layer1"
     showgrid="false"
     inkscape:window-width="1920"
     inkscape:window-height="1017"
     inkscape:window-x="-8"
     inkscape:window-y="32"
     inkscape:window-maximized="1" />
  <metadata
     id="metadata5">
    <rdf:RDF>
      <cc:Work
         rdf:about="">
        <dc:format>image/svg+xml</dc:format>
        <dc:type
           rdf:resource="http://purl.org/dc/dcmitype/StillImage" />
        <dc:title></dc:title>
      </cc:Work>
    </rdf:RDF>
  </metadata>
  <g
     inkscape:label="Livello 1"
     inkscape:groupmode="layer"
     id="layer1"
     transform="translate(-28.380472,-11.86711)">
    <g
       transform="matrix(0.35277777,0,0,-0.35277777,0.45465471,284.78573)"
       inkscape:label="PATCH logo+scritte BIANCO"
       id="g29">
      <g
         id="g31">
        <g
           clip-path="url(#clipPath37)"
           id="g33">
          <g
             transform="translate(491.7754,419.624)"
             id="g39">
            <path
               inkscape:connector-curvature="0"
               id="path41"
               style="fill:#000000;fill-opacity:1;fill-rule:evenodd;stroke:none"
               d="m 0,0 c 0,-130.209 -86.732,-235.765 -193.725,-235.765 -106.99,0 -193.724,105.556 -193.724,235.765 0,130.209 86.734,235.765 193.724,235.765 C -86.732,235.765 0,130.209 0,0" />
          </g>
        </g>
      </g>
      <g
         id="g43">
        <g
           clip-path="url(#clipPath49)"
           id="g45">
          <g
             transform="translate(297.7646,78.5547)"
             id="g51">
            <path
               inkscape:connector-curvature="0"
               id="path53"
               style="fill:#000000;fill-opacity:1;fill-rule:evenodd;stroke:none"
               d="m 0,0 c -47.581,0.002 -89.484,12.568 -131.871,39.546 l -3.604,2.293 2.31,3.593 c 11.51,17.908 24.034,36.847 39.414,59.601 l 2.318,3.43 3.492,-2.226 c 27.913,-17.799 56.604,-26.452 87.712,-26.452 31.109,0 59.8,8.653 87.716,26.452 l 3.307,2.109 2.367,-3.125 c 5.123,-6.762 9.799,-13.971 14.318,-20.943 1.877,-2.893 3.817,-5.885 5.75,-8.786 1.682,-2.519 3.368,-5.033 5.055,-7.543 4.875,-7.26 9.914,-14.767 14.682,-22.303 l 2.26,-3.572 -3.557,-2.281 C 89.915,13.02 46.851,0.002 0.012,0 Z" />
          </g>
          <g
             transform="translate(168.1768,121.6875)"
             id="g55">
            <path
               inkscape:connector-curvature="0"
               id="path57"
               style="fill:#ffffff;fill-opacity:1;fill-rule:evenodd;stroke:none"
               d="m 0,0 c 33.544,-21.35 74.964,-38.883 129.6,-38.881 54.499,0.003 95.981,17.715 129.36,39.121 C 252.608,10.283 245.894,20.084 239.28,30 232.698,39.871 226.505,50.09 219.36,59.52 196.298,44.813 166.853,32.399 129.359,32.4 91.867,32.4 62.423,44.813 39.36,59.52 26.067,39.854 12.896,20.064 0,0" />
          </g>
          <g
             transform="translate(144.7168,613.8916)"
             id="g59">
            <path
               inkscape:connector-curvature="0"
               id="path61"
               style="fill:#000000;fill-opacity:1;fill-rule:nonzero;stroke:none"
               d="m 0,0 c -19.494,14.971 -38.919,30.555 -57.705,45.625 l -7.852,6.298 2.677,3.319 c 26.245,32.542 54.493,56.149 86.359,72.17 23.66,11.894 52.788,24.695 89.443,29.457 11.624,1.51 23.751,2.074 36.59,2.671 2.796,0.13 5.681,0.196 8.578,0.196 19.612,0 41.205,-2.934 64.178,-8.72 57.894,-14.582 107.186,-46.643 146.508,-95.29 l 2.627,-3.25 -3.204,-2.683 C 356.113,39.671 343.519,29.731 331.338,20.118 323.15,13.655 314.685,6.973 306.467,0.31 l -3.208,-2.601 -2.694,3.131 c -20.178,23.46 -39.2,39.145 -59.86,49.361 -20.375,10.075 -48.749,21.64 -87.636,21.64 C 122.726,71.84 95.697,65.167 65.434,50.201 43.898,39.552 24.419,23.354 5.882,0.681 L 3.271,-2.512 Z" />
          </g>
          <g
             transform="translate(448.5059,617.5044)"
             id="g63">
            <path
               inkscape:connector-curvature="0"
               id="path65"
               style="fill:#ffffff;fill-opacity:1;fill-rule:nonzero;stroke:none"
               d="m 0,0 c -16.723,19.441 -36.25,38.063 -61.199,50.4 -24.916,12.321 -53.197,22.08 -89.521,22.08 -36.18,-0.001 -64.525,-9.72 -89.52,-22.08 -24.893,-12.31 -44.733,-30.794 -60.959,-50.64 -20.996,16.124 -41.561,32.678 -62.16,49.2 23.127,28.676 50.549,53.74 84.96,71.04 25.815,12.979 53.791,24.585 88.08,29.04 11.366,1.477 23.149,2.031 36.239,2.64 25.427,1.183 51.272,-3.3 71.52,-8.4 C -19.959,127.512 27.441,91.799 61.681,49.44 41.521,32.559 20.455,16.586 0,0" />
          </g>
          <g
             transform="translate(300.9805,756.5176)"
             id="g67">
            <path
               inkscape:connector-curvature="0"
               id="path69"
               style="fill:#c52927;fill-opacity:1;fill-rule:evenodd;stroke:none"
               d="m 0,0 c 0.511,-0.742 -1.313,-1.222 -1.44,-2.4 -0.124,-1.153 1.57,-2.491 1.68,-4.08 0.111,-1.604 -0.709,-2.126 -1.2,-3.6 -4.081,1.483 -8.186,3.794 -14.16,3.84 -4.18,0.032 -11.073,-1.372 -11.52,-4.56 -0.597,-4.256 0.128,-10.521 1.68,-12.721 3.327,-4.713 15.132,-1.11 19.439,0.721 -0.969,-2.085 -2.428,-4.791 0,-7.2 -5.933,1.474 -17.607,2.924 -18.959,-3.36 -0.876,-4.073 0.823,-13.254 3.6,-14.4 6.458,-2.665 15.796,1.586 19.199,4.56 3.474,-2.676 -0.361,-8.811 2.401,-10.56 -8.566,1.381 -16.118,-3.907 -24,-2.88 -1.516,0.198 -3.294,1.534 -4.8,1.44 -3.179,-0.198 -5.783,-4.777 -9.36,-2.4 0.776,5.938 2.648,11.027 0.96,17.28 -1.015,3.757 -4.911,7.581 -5.04,11.04 -0.064,1.718 1.218,3.427 1.44,5.04 1.16,8.426 -2.248,14.937 -6.48,20.64 1.802,1.883 4.632,2.407 7.68,1.92 1.256,-0.201 2.333,-1.222 3.36,-1.2 1.863,0.04 4.288,2.395 6.48,3.12 C -19.873,3.273 -10.769,-1.19 0,0" />
          </g>
          <g
             transform="translate(334.5801,744.7573)"
             id="g71">
            <path
               inkscape:connector-curvature="0"
               id="path73"
               style="fill:#c52927;fill-opacity:1;fill-rule:evenodd;stroke:none"
               d="m 0,0 c -3.584,-3.485 -3.757,-11.808 -0.24,-14.88 4.515,-3.944 18.696,-4.348 16.08,4.8 0.808,0.567 0.808,1.113 0,1.68 C 22.886,-0.408 5.464,5.312 0,0 m 32.4,-12 c -2.628,-1.616 -2.61,-5.13 -5.04,-6.96 -2.629,-1.978 -6.361,-1.293 -11.28,-1.44 2.357,-3.234 6.417,-2.424 7.68,-6 0.619,-1.752 -0.188,-3.628 0.24,-6 0.297,-1.643 1.624,-2.675 2.4,-4.08 -1.307,-5.669 -0.998,-13.033 1.44,-16.8 -6.899,0.381 -13.886,2.754 -17.52,7.2 1.752,2.148 3.757,5.109 2.88,8.88 -0.374,1.607 -1.872,3.035 -1.92,4.56 -0.078,2.491 2.208,4.545 1.68,7.2 -0.857,4.316 -13.314,7.777 -16.8,3.84 -3.384,-3.822 -1.986,-18.753 -0.24,-23.76 -3.597,-1.14 -6.714,0.707 -9.12,2.16 -2.797,-0.936 -6.895,-1.826 -9.6,-0.24 2.401,6.624 6.511,12.908 4.56,21.36 -0.481,2.082 -2.81,4.469 -2.64,6.48 0.123,1.446 2.219,3.045 2.88,4.32 3.312,6.385 2.586,16.949 -0.96,22.8 0.194,0.046 0.239,0.241 0.481,0.24 3.469,1.336 6.585,-0.968 9.599,-1.44 2.585,-0.404 5.475,0.226 8.16,0.24 7.595,0.039 14.417,-1.18 21.12,-3.84 5.284,-2.096 10.506,-5.407 12,-11.52 -0.361,-2.518 -1.004,-5.208 0,-7.2" />
          </g>
          <g
             transform="translate(241.2207,750.0371)"
             id="g75">
            <path
               inkscape:connector-curvature="0"
               id="path77"
               style="fill:#c52927;fill-opacity:1;fill-rule:evenodd;stroke:none"
               d="m 0,0 c 0.974,-0.505 -0.983,-1.991 -1.44,-2.64 1.896,-1.469 3.436,-4.739 2.16,-7.92 -8.588,3.084 -20.588,0.712 -24.48,-5.28 0.432,-5 2.251,-13.313 6.48,-13.92 6.529,-0.936 12.749,4.036 17.28,5.76 0.501,-1.473 -1.109,-2.295 -0.96,-3.6 0.179,-1.57 2.06,-1.551 2.16,-3.36 -7.369,-0.054 -18.755,-0.674 -17.52,-8.88 1.072,-7.126 6.439,-14.009 10.08,-18.72 -2.531,-2.866 -6.363,-1.255 -8.64,-1.919 -2.89,-0.843 -4.134,-5.107 -8.64,-4.321 0.393,9.533 -2.213,16.233 -7.2,21.6 -1.338,1.44 -3.564,3.069 -3.84,4.32 -0.35,1.583 0.74,3.561 0.72,5.04 -0.105,7.797 -5.88,16.033 -11.28,19.441 1.245,1.063 1.875,2.04 3.36,2.639 2.226,0.9 5.921,-0.069 7.68,0.48 1.922,0.6 3.221,3.475 5.04,4.56 3.766,2.247 9.202,3.542 14.88,4.08 C -9.192,-2.169 -4.193,-2.736 0,0" />
          </g>
          <g
             transform="translate(390.5,740.6777)"
             id="g79">
            <path
               inkscape:connector-curvature="0"
               id="path81"
               style="fill:#c52927;fill-opacity:1;fill-rule:evenodd;stroke:none"
               d="m 0,0 c 4.53,-0.59 6.977,-3.265 9.601,-5.76 3.776,0.187 7.188,-0.212 10.08,-2.4 -8.347,-7.108 2.717,-22.776 4.559,-30.72 7.61,2.361 12.364,12.222 11.521,21.6 4.898,-0.381 6.552,-4.008 9.119,-6.72 4.502,-0.14 8.388,-2.172 9.6,-4.8 -8.252,-4.189 -16.174,-12.048 -15.12,-22.56 -9.429,-3.611 -13.906,-12.174 -15.839,-23.281 -3.415,0.746 -4.875,3.446 -6.241,6.241 -2.843,0.104 -5.093,-0.156 -7.679,2.16 2.004,2.043 4.51,2.916 6,5.04 6.146,8.768 -3.496,21.803 -5.281,30.72 -3.883,-0.512 -6.82,-4.929 -9.12,-9.121 -2.972,-5.417 -5.896,-11.578 -4.8,-18.96 -3.672,-0.591 -5.517,2.614 -7.679,4.321 -2.978,0.383 -6.71,0.01 -8.16,1.92 0.266,1.628 1.821,2.678 2.879,3.84 3.26,3.574 5.849,8.284 7.201,13.68 0.832,3.323 0.059,6.02 0,8.88 C -2.424,-20.286 1.51,-12.565 0,-0.721 -0.427,-0.544 -0.034,-0.284 0,0" />
          </g>
          <g
             transform="translate(196.8203,706.1172)"
             id="g83">
            <path
               inkscape:connector-curvature="0"
               id="path85"
               style="fill:#c52927;fill-opacity:1;fill-rule:evenodd;stroke:none"
               d="m 0,0 c -1.249,-11.958 5.875,-19.515 12.48,-25.2 -1.693,-1.906 -4.552,-2.648 -8.4,-2.4 -1.61,-2.069 -2.634,-4.725 -5.76,-5.28 0.8,16.034 -17.113,15.548 -30.96,18 -0.867,-4.289 1.135,-8.875 3.36,-12.48 3.517,-5.698 7.924,-10.874 14.4,-13.44 -1.028,-3.474 -5.002,-2.959 -7.44,-4.56 -2.599,-1.707 -2.921,-6.34 -6.72,-6.48 -2.558,10.643 -7.917,18.484 -17.76,21.84 -1.207,11.593 -8.439,17.161 -17.76,20.64 1.859,3.501 5.965,4.756 10.08,6 1.97,3.151 3.474,6.766 7.68,7.68 0.896,-10.492 18.639,-8.22 28.56,-11.28 1.349,1.929 0.235,4.58 -0.24,6.481 -1.77,7.087 -6.816,11.411 -12.48,14.399 1.49,3.391 5.746,4.015 10.08,4.56 1.833,2.929 5.503,6.441 9.12,6 C -12.844,13.893 -8.063,3.755 0,0" />
          </g>
          <g
             transform="translate(472.1006,671.7974)"
             id="g87">
            <path
               inkscape:connector-curvature="0"
               id="path89"
               style="fill:#c52927;fill-opacity:1;fill-rule:evenodd;stroke:none"
               d="m 0,0 c 5.306,6.594 -2.909,16.063 -9.84,16.8 -6.807,0.724 -9.607,-7.132 -12.48,-10.56 -0.105,-1.096 0.242,-2.643 -0.241,-3.36 -0.994,-0.405 -2.306,-0.317 -3.12,-0.72 -2.615,-1.297 -8.704,-8.249 -9.12,-12.72 -0.459,-4.952 4.717,-9.219 8.16,-10.32 4.537,-1.45 7.32,1.542 9.84,4.08 3.036,3.056 5.322,4.882 6,9.12 C -6.222,-6.944 -2.635,-3.274 0,0 m 1.68,-21.36 c -0.877,-0.163 -1.745,-0.335 -2.88,-0.24 -3.197,-1.824 -5.326,-5.654 -8.64,-7.68 -1.098,-0.671 -2.695,-1.117 -4.08,-1.92 -2.435,-1.412 -4.991,-2.74 -9.36,-1.68 -4.685,1.136 -9.391,5.119 -13.68,9.12 -4.754,4.434 -10.46,9.625 -9.601,17.76 0.78,7.374 5.873,10.291 9.361,16.08 v 3.84 c 5.888,1.078 6.982,7.537 10.8,10.8 2.6,2.223 7.356,3.815 12.24,3.36 7.02,-0.654 13.629,-5.442 18.24,-10.32 6.007,-6.354 13.296,-17.446 7.44,-26.88 -0.931,-1.5 -2.7,-3.179 -4.081,-4.56 -2.471,-2.472 -5.44,-3.054 -5.759,-7.68" />
          </g>
          <g
             transform="translate(140.4204,666.9971)"
             id="g91">
            <path
               inkscape:connector-curvature="0"
               id="path93"
               style="fill:#c52927;fill-opacity:1;fill-rule:evenodd;stroke:none"
               d="m 0,0 v -2.64 c 1.478,-3.539 3.123,-6.745 5.52,-9.36 3.507,-3.825 8.284,-5.961 13.2,-8.399 -0.359,-4.042 -4.536,-4.264 -7.44,-5.761 -1.439,-3.2 -2.678,-6.601 -5.76,-8.159 -4.745,8.534 -9.851,16.709 -21.12,18.719 -2.951,9.689 -9.667,15.614 -20.4,17.52 1.354,4.726 5.752,6.408 9.6,8.641 0.841,4.439 3.6,6.959 6.72,9.12 0.195,-0.046 0.24,-0.242 0.48,-0.241 C -15.98,9.78 -11.108,1.772 0,0" />
          </g>
          <g
             transform="translate(241.1265,135.957)"
             id="g95">
            <path
               inkscape:connector-curvature="0"
               id="path97"
               style="fill:#c52927;fill-opacity:1;fill-rule:evenodd;stroke:none"
               d="m 0,0 c -2.261,0.146 -2.931,2.668 -5.04,3.12 -2.692,0.578 -5.498,-1.683 -8.16,0 0.691,2.716 4.311,3.888 3.6,7.92 -0.831,4.707 -7.908,9.308 -13.44,6.24 -4.635,-2.569 -7.307,-11.091 -6.96,-14.399 -0.864,-1.857 -2.663,-2.777 -4.08,-4.08 -1.557,-4.571 -5.39,-7.822 -3.6,-12.961 1.907,-5.474 15.781,-10.914 18.24,-2.879 0.11,2.422 -0.223,3.355 -0.24,5.279 4.015,-0.304 5.778,-2.862 7.44,-5.519 1.498,0.172 4.652,0.91 6.24,-0.241 -0.08,-2.24 -1.812,-2.828 -2.88,-4.08 -1.183,-6.857 -7.989,-10.308 -16.8,-8.4 -9.879,2.141 -25.674,9.949 -25.92,19.68 -0.122,4.821 1.914,7.68 3.84,11.041 1.465,2.556 3.956,5.446 3.12,8.88 0.562,1.354 2.601,1.475 3.36,2.159 2.532,2.285 3.456,7.66 6.24,10.801 2.77,3.125 7.735,3.937 12,4.559 6.153,0.898 17.386,-5.253 20.4,-8.159 1.472,-1.42 3.626,-4.723 3.84,-7.44 C 1.547,7.106 -1.375,4.477 0,0" />
          </g>
          <g
             transform="translate(389.6855,131.3975)"
             id="g99">
            <path
               inkscape:connector-curvature="0"
               id="path101"
               style="fill:#c52927;fill-opacity:1;fill-rule:evenodd;stroke:none"
               d="m 0,0 c -3.08,6.729 -14.251,1.122 -16.319,-2.4 -2.462,-4.191 -0.452,-11.523 3.359,-14.4 4.01,-3.027 11.833,-0.711 15.12,2.88 0.692,0.755 2.447,3.59 1.681,6 -0.643,2.02 -3.033,2.03 -4.08,4.08 C 0.067,-3.085 -0.023,-1.612 0,0 m -24,18.72 c -3.642,-4.812 0.071,-16.274 8.4,-15.12 3.59,0.497 8.501,3.292 8.64,6.96 0.069,1.816 -1.603,3 -2.88,6 -0.629,1.48 -0.682,3.16 -1.439,4.08 -1.349,1.639 -4.034,1.785 -5.04,1.679 -3.21,-0.333 -6.158,-1.587 -7.681,-3.599 M 2.641,24 C 1.937,20.683 4.373,18.594 4.08,16.08 3.604,11.989 -0.165,10.722 -2.88,7.92 0.988,7.893 5.048,10.368 8.641,8.399 c 2.355,-1.29 3.084,-4.715 6,-5.039 -0.866,-4.697 3.739,-5.148 1.92,-10.56 -2.998,-8.914 -13.363,-13.957 -22.8,-17.52 -1.791,-0.676 -3.361,-1.377 -5.04,-1.679 -1.873,-0.338 -3.889,0.242 -6,-0.241 -1.936,-0.441 -2.517,-2.457 -4.08,-3.359 -2.252,-1.301 -4.325,-0.986 -6.72,-1.682 -0.897,2.698 0.459,4.465 0.479,6.721 0.054,5.943 -2.442,12.267 -5.28,16.32 -0.809,1.157 -2.624,2.338 -2.88,3.6 -0.246,1.215 0.649,2.701 0.721,3.84 0.55,8.715 -4.982,14.066 -7.681,21.36 1.197,2.728 4.98,0.861 7.92,1.44 1.871,0.368 3.432,2.901 5.761,4.32 3.996,2.435 10.242,4.665 15.359,5.52 5.166,0.863 11.658,-0.648 13.441,-5.28 0.828,-0.851 1.997,-1.362 2.88,-2.16" />
          </g>
          <g
             transform="translate(255.0464,150.1172)"
             id="g103">
            <path
               inkscape:connector-curvature="0"
               id="path105"
               style="fill:#c52927;fill-opacity:1;fill-rule:evenodd;stroke:none"
               d="m 0,0 c 3.734,0.301 5.855,-1.613 7.92,-3.6 2.642,0.924 5.727,1.119 8.16,0 -2.283,-5.701 -7.283,-14.085 -5.28,-22.56 0.301,-1.274 1.13,-2.244 1.68,-3.6 -3.358,-3.219 -6.803,-10.404 -6,-16.32 0.56,-4.127 10.274,-5.92 15.84,-4.559 2.563,0.627 3.997,2.354 6.48,2.879 0.879,-2.144 1.773,-3.011 1.2,-5.519 -0.217,-0.95 -1.446,-2.332 -1.44,-2.401 0.142,-1.664 2.303,-0.617 2.4,-2.4 -0.849,-0.596 -2.38,0.338 -3.36,0.48 -4.776,0.7 -10.892,-0.884 -16.56,-0.48 -2.529,0.182 -4.978,1.074 -7.2,1.92 -2.355,0.898 -4.72,2.472 -6.48,2.64 -1.258,0.122 -2.404,-0.671 -3.6,-0.72 -2.93,-0.117 -4.899,1.332 -7.2,2.16 5.537,5.766 7.895,12.166 7.44,22.56 -0.049,1.115 -0.705,2.59 -0.48,3.6 0.339,1.525 1.968,1.877 2.88,3.36 C -0.326,-17.232 1.247,-7.499 0,0" />
          </g>
          <g
             transform="translate(339.0459,149.6367)"
             id="g107">
            <path
               inkscape:connector-curvature="0"
               id="path109"
               style="fill:#c52927;fill-opacity:1;fill-rule:evenodd;stroke:none"
               d="m 0,0 c -2.352,-8.949 -0.56,-20.418 3.601,-26.399 -0.061,-1.14 -0.736,-1.665 -0.961,-2.64 1.407,-6.614 4.583,-16.775 0.24,-22.08 -6.035,-7.371 -33.901,-12.039 -40.8,-1.92 -1.094,1.603 -2.322,4.656 -2.64,6.721 -0.697,4.525 1.448,10.211 -1.679,14.638 0.33,1.408 1.367,2.334 1.679,3.601 2.062,8.341 -1.897,17.437 -3.359,23.76 3.502,1.253 6.087,-1.321 8.879,-1.201 2.688,0.117 5.186,3.403 8.16,1.201 0.579,-1.606 -0.945,-3.066 -1.44,-5.04 -1.587,-6.336 -0.732,-17.657 2.16,-21.36 -2.709,-4.034 -1.957,-17.06 2.64,-19.201 4.544,-2.113 12.466,-0.836 14.64,3.121 1.513,2.752 0.304,10.401 -0.96,14.159 -0.503,1.497 -1.332,1.999 -1.92,3.361 1.211,3.894 0.127,11.261 -0.96,15.84 -0.974,4.107 -3.514,7.318 -4.56,10.32 2.526,2.534 5.815,0.15 8.64,0.479 C -5.729,-2.301 -3.721,1.793 0,0" />
          </g>
        </g>
      </g>
      <g
         id="g111">
        <g
           clip-path="url(#clipPath117)"
           id="g113">
          <g
             transform="translate(276.2012,587.8779)"
             id="g119">
            <path
               inkscape:connector-curvature="0"
               id="path121"
               style="fill:#c52927;fill-opacity:1;fill-rule:evenodd;stroke:none"
               d="m 0,0 c 2.014,2.988 14.206,8.446 16.559,2.16 0.548,-1.465 0.498,-4.262 0.48,-6 -0.06,-6.308 -0.851,-13.113 -0.96,-20.16 -0.315,-20.658 -0.925,-44.256 -1.68,-63.6 -13.259,1.083 -21.424,7.386 -28.799,14.88 -4.159,4.225 -8.417,8.686 -10.801,13.44 -2.765,5.516 -4.941,12.412 -6.48,19.92 -0.829,4.046 -4.758,20.689 1.441,21.12 3.357,0.234 4.959,-3.69 8.16,-3.84 -8.13,8.431 -9.255,25.946 -13.201,39.36 -1.311,-22.049 -9.782,-36.938 -18.24,-51.84 0.959,-0.251 1.675,1.363 2.4,2.16 2.683,2.947 5.363,6.73 9.6,7.68 1.777,-11.867 2.142,-22.062 5.281,-31.2 6.037,-17.577 17.91,-29.902 31.92,-39.6 4.947,-3.425 10.605,-5.92 14.639,-9.36 2.419,-2.062 3.763,-3.817 4.08,-7.2 0.572,-6.078 0,-12.91 0,-19.44 -10e-4,-74.388 -1.44,-147.148 -1.44,-221.041 0,-3.863 -0.813,-8.373 -0.24,-10.798 0.41,-1.737 3.541,-3.329 5.281,-4.561 5.117,-3.627 9.715,-7.225 13.199,-11.76 0.713,-0.927 1.209,-2.881 1.92,-2.4 -1.529,31.564 -1.68,64.303 -1.68,96.961 0,58.707 -1.933,118.058 -0.48,176.159 4.766,6.48 12.535,9.524 18.961,14.16 12.709,9.171 23.549,19.808 29.76,35.28 4,9.963 5.027,21.674 6.959,34.8 4.332,-0.719 6.738,-4.806 9.121,-7.44 0.756,-0.837 2.201,-2.569 2.638,-2.16 -8.375,14.745 -17.007,29.231 -18,51.36 -3.361,-10.742 -4.695,-25.318 -9.359,-34.32 -0.35,-0.676 -1.226,-1.868 -1.92,-2.64 -0.598,-0.665 -2.383,-1.614 -1.439,-1.92 3.412,0.458 4.08,4.115 7.92,3.6 3.525,-0.472 3.281,-5.765 2.879,-9.84 -1.25,-12.707 -4.78,-23.527 -8.399,-31.92 -9.857,-12.543 -19.09,-25.711 -39.601,-27.6 -0.293,18.702 -1.68,43.695 -1.68,63.84 0,7.326 -0.973,14.297 -0.959,20.64 0.014,6.453 2.68,9.442 9.119,7.92 3.178,-0.751 5.912,-3.447 7.92,-4.08 C 33.756,13.836 27.523,31.845 22.319,50.88 18.006,30.953 10.021,13.419 0,0" />
          </g>
          <g
             transform="translate(298.5205,638.7578)"
             id="g123">
            <path
               inkscape:connector-curvature="0"
               id="path125"
               style="fill:#c52927;fill-opacity:1;fill-rule:evenodd;stroke:none"
               d="m 0,0 c 5.204,-19.035 11.437,-37.043 22.56,-50.16 -2.008,0.633 -4.743,3.329 -7.92,4.08 -6.44,1.522 -9.106,-1.467 -9.119,-7.92 -0.014,-6.343 2.345,-65.778 2.638,-84.48 20.512,1.889 29.744,15.057 39.602,27.6 3.619,8.393 7.148,19.213 8.398,31.92 0.403,4.075 0.647,9.368 -2.879,9.84 -3.84,0.515 -4.508,-3.142 -7.92,-3.6 -0.943,0.306 0.842,1.255 1.44,1.92 0.693,0.772 1.57,1.964 1.92,2.64 4.664,9.002 5.998,23.578 9.359,34.32 0.992,-22.129 9.625,-36.615 18,-51.36 -0.437,-0.409 -1.883,1.323 -2.639,2.16 -2.382,2.634 -4.789,6.721 -9.121,7.44 -1.931,-13.126 -2.959,-24.837 -6.959,-34.8 -6.211,-15.472 -17.05,-26.109 -29.759,-35.28 -6.426,-4.635 -14.196,-7.68 -18.961,-14.16 -0.492,-61.933 0.631,-241.556 2.16,-273.12 -0.711,-0.48 -1.207,1.473 -1.92,2.4 -3.484,4.536 -8.082,8.133 -13.199,11.76 -1.741,1.233 -4.871,2.824 -5.282,4.561 -0.572,2.426 1.68,157.451 1.681,231.84 0,6.529 0.571,13.361 0,19.439 -0.317,3.383 -1.661,5.138 -4.08,7.2 -4.034,3.44 -9.692,5.935 -14.64,9.36 -14.009,9.698 -25.882,22.023 -31.92,39.6 -3.138,9.138 -3.503,19.333 -5.28,31.2 -4.237,-0.95 -6.917,-4.733 -9.6,-7.68 -0.725,-0.797 -1.441,-2.41 -2.4,-2.16 8.457,14.902 16.929,29.792 18.239,51.84 3.947,-13.414 5.072,-30.929 13.202,-39.36 -3.202,0.15 -4.803,4.074 -8.161,3.84 -6.199,-0.431 -2.269,-17.074 -1.44,-21.12 1.539,-7.508 3.715,-14.404 6.479,-19.92 2.384,-4.754 6.643,-9.215 10.801,-13.44 7.375,-7.494 15.54,-13.796 28.8,-14.88 0.755,19.344 2.579,77.452 2.64,83.76 0.017,1.739 0.068,4.535 -0.481,6 -2.352,6.286 -14.545,0.828 -16.558,-2.16 C -12.299,-37.461 -4.313,-19.927 0,0" />
          </g>
        </g>
      </g>
      <g
         transform="translate(297.6399,574.7553)"
         id="g127">
        <path
           inkscape:connector-curvature="0"
           id="path129"
           style="fill:#ffffff;fill-opacity:1;fill-rule:nonzero;stroke:none"
           d="M 0,0 H 0.001 Z" />
      </g>
      <g
         transform="translate(297.6406,574.7554)"
         id="g131">
        <path
           inkscape:connector-curvature="0"
           id="path133"
           style="fill:none;stroke:#000000;stroke-width:0.25;stroke-linecap:butt;stroke-linejoin:miter;stroke-miterlimit:10;stroke-dasharray:none;stroke-opacity:1"
           d="M 0,0 H -0.001 Z" />
      </g>
      <g
         transform="translate(297.6399,574.7553)"
         id="g135">
        <path
           inkscape:connector-curvature="0"
           id="path137"
           style="fill:#ffffff;fill-opacity:1;fill-rule:nonzero;stroke:none"
           d="M 0,0 H 0.001 Z" />
      </g>
      <g
         transform="translate(297.6406,574.7554)"
         id="g139">
        <path
           inkscape:connector-curvature="0"
           id="path141"
           style="fill:none;stroke:#000000;stroke-width:0.25;stroke-linecap:butt;stroke-linejoin:miter;stroke-miterlimit:10;stroke-dasharray:none;stroke-opacity:1"
           d="M 0,0 H -0.001 Z" />
      </g>
      <g
         id="g143">
        <g
           clip-path="url(#clipPath149)"
           id="g145">
          <g
             transform="translate(297.6401,574.7554)"
             id="g151">
            <path
               inkscape:connector-curvature="0"
               id="path153"
               style="fill:#ffffff;fill-opacity:1;fill-rule:nonzero;stroke:none"
               d="M 0,0 V 0" />
          </g>
        </g>
      </g>
      <g
         transform="translate(297.6401,574.7554)"
         id="g155">
        <path
           inkscape:connector-curvature="0"
           id="path157"
           style="fill:none;stroke:#000000;stroke-width:0.25;stroke-linecap:butt;stroke-linejoin:miter;stroke-miterlimit:10;stroke-dasharray:none;stroke-opacity:1"
           d="M 0,0 V 0" />
      </g>
      <g
         id="g159">
        <g
           clip-path="url(#clipPath165)"
           id="g161">
          <g
             transform="translate(297.6401,574.7554)"
             id="g167">
            <path
               inkscape:connector-curvature="0"
               id="path169"
               style="fill:#ffffff;fill-opacity:1;fill-rule:nonzero;stroke:none"
               d="M 0,0 V 0" />
          </g>
        </g>
      </g>
      <g
         transform="translate(297.6401,574.7554)"
         id="g171">
        <path
           inkscape:connector-curvature="0"
           id="path173"
           style="fill:none;stroke:#000000;stroke-width:0.25;stroke-linecap:butt;stroke-linejoin:miter;stroke-miterlimit:10;stroke-dasharray:none;stroke-opacity:1"
           d="M 0,0 V 0" />
      </g>
      <g
         id="g175">
        <g
           clip-path="url(#clipPath181)"
           id="g177">
          <g
             transform="translate(203.6587,522.1245)"
             id="g183">
            <path
               inkscape:connector-curvature="0"
               id="path185"
               style="fill:#000000;fill-opacity:1;fill-rule:evenodd;stroke:none"
               d="m 0,0 c -7.438,3.05 -16.023,-1.658 -21.601,-5.28 -9.656,-6.271 -18.355,-13.757 -26.4,-23.28 -9.539,-11.294 -16.848,-23.366 -17.279,-41.52 0.602,-1.077 1.509,-1.85 2.639,-2.4 1.114,8.276 4.036,15.945 7.441,22.8 C -43.408,-25.941 -25.464,-9.503 0,0" />
          </g>
          <g
             transform="translate(456.3779,459.2441)"
             id="g187">
            <path
               inkscape:connector-curvature="0"
               id="path189"
               style="fill:#000000;fill-opacity:1;fill-rule:evenodd;stroke:none"
               d="m 0,0 c -4.156,24.558 -25.535,44.647 -43.44,56.16 -5.376,3.457 -15.198,8.565 -21.361,4.8 26.142,-8.819 43.417,-26.503 55.2,-49.68 2.86,-6.981 6.584,-13.096 7.201,-22.32 1.655,0.024 1.919,1.441 2.879,2.16 C 0.302,-6.666 0.543,-3.212 0,0" />
          </g>
          <g
             transform="translate(210.3784,517.5645)"
             id="g191">
            <path
               inkscape:connector-curvature="0"
               id="path193"
               style="fill:#000000;fill-opacity:1;fill-rule:evenodd;stroke:none"
               d="m 0,0 c -1.722,0.8 -2.966,3.052 -5.28,2.4 -18.403,-5.187 -35.831,-18.707 -47.281,-35.52 -5.747,-8.441 -13.331,-20.527 -14.399,-30.96 -0.501,-4.891 0.05,-7.418 3.12,-8.16 3.413,18.643 14.136,33.838 24.48,45.84 C -28.876,-14.235 -14.678,-6.789 0,0" />
          </g>
          <g
             transform="translate(445.5771,468.3643)"
             id="g195">
            <path
               inkscape:connector-curvature="0"
               id="path197"
               style="fill:#000000;fill-opacity:1;fill-rule:evenodd;stroke:none"
               d="m 0,0 c -12.095,22.272 -29.618,43.706 -56.88,50.16 -1.19,-0.921 -3.698,-1.699 -3.599,-3.12 15.14,-5.944 28.8,-14.123 39.12,-26.16 10.054,-11.729 21.437,-27.236 24.479,-45.6 2.862,0.485 3.609,4.031 3.12,8.4 C 5.629,-10.848 2.681,-4.935 0,0" />
          </g>
          <g
             transform="translate(216.6187,512.7642)"
             id="g199">
            <path
               inkscape:connector-curvature="0"
               id="path201"
               style="fill:#000000;fill-opacity:1;fill-rule:evenodd;stroke:none"
               d="M 0,0 C -0.821,1.58 -2.705,2.095 -4.08,3.12 -4.933,2.576 -5.851,2.805 -6.96,2.4 c -14.208,-5.179 -28.808,-15.826 -37.921,-26.88 -9.414,-11.419 -21.828,-27.966 -22.8,-45.36 1.202,-1.199 2.389,-2.411 4.08,-3.12 0.35,15.815 10.53,25.728 17.281,36.24 C -35.785,-20.313 -17.857,-8.22 0,0" />
          </g>
          <g
             transform="translate(382.457,514.2041)"
             id="g203">
            <path
               inkscape:connector-curvature="0"
               id="path205"
               style="fill:#000000;fill-opacity:1;fill-rule:evenodd;stroke:none"
               d="m 0,0 c -1.165,-1.154 -3.294,-1.346 -3.84,-3.12 19.024,-7.937 33.538,-20.382 45.84,-35.04 6.936,-11.472 16.777,-21.293 17.761,-37.92 1.517,0.882 2.815,1.984 4.08,3.12 0.304,9.833 -4.588,19.042 -9.361,26.4 C 41.147,-26 25.031,-7.843 0,0" />
          </g>
          <g
             transform="translate(222.3784,508.4443)"
             id="g207">
            <path
               inkscape:connector-curvature="0"
               id="path209"
               style="fill:#000000;fill-opacity:1;fill-rule:evenodd;stroke:none"
               d="m 0,0 c -0.82,1.095 -3.094,3.498 -5.04,2.88 -5.221,-1.656 -11.04,-5.358 -16.08,-8.64 -12.213,-7.953 -21.823,-17.794 -30.72,-29.28 -5.401,-6.972 -10.856,-15.496 -13.44,-23.52 -1.251,-3.886 -3.508,-12.783 0.96,-14.16 C -55.731,-35.63 -31.987,-13.692 0,0" />
          </g>
          <g
             transform="translate(428.2979,466.4443)"
             id="g211">
            <path
               inkscape:connector-curvature="0"
               id="path213"
               style="fill:#000000;fill-opacity:1;fill-rule:evenodd;stroke:none"
               d="M 0,0 C -12.512,19.158 -29.541,34.34 -51.601,43.44 -52.778,42.298 -54.898,42.098 -55.44,40.32 -23.372,26.709 0.271,4.671 8.88,-32.4 c 2.819,0.777 2.862,3.431 2.64,6 C 10.691,-16.814 5.025,-7.696 0,0" />
          </g>
          <g
             transform="translate(225.0181,478.9243)"
             id="g215">
            <path
               inkscape:connector-curvature="0"
               id="path217"
               style="fill:#000000;fill-opacity:1;fill-rule:evenodd;stroke:none"
               d="m 0,0 c -0.339,-5.649 -5.963,-9.255 -11.28,-9.12 -6.821,0.173 -16.162,6.981 -15.119,15.36 0.429,3.459 3.876,6.65 8.639,7.68 C -9.913,15.617 0.461,7.675 0,0 M 6,21.12 C 8.457,17.283 23.253,11.237 16.8,4.32 13.625,0.916 7.477,-1.094 4.08,-4.32 5.042,7.094 -3.785,16.233 -14.399,16.8 -10.151,21.817 -0.742,25.883 6,21.12 m -33.359,-46.56 c -6.782,2.565 -13.548,8.656 -18,13.68 3.836,6.403 8.228,12.251 14.159,16.56 0.154,0.054 0.719,-0.21 0.721,-0.24 0.676,-11.983 13.55,-21.126 26.879,-15.36 -4.548,-7.236 -12.313,-18.969 -23.759,-14.64 m -23.281,11.52 c 8.09,-6.275 14.054,-13.385 25.201,-15.12 14.362,-2.236 22.13,12.797 29.519,19.2 5.251,4.55 11.609,7.702 16.08,12 7.417,7.129 -2.559,12.299 -8.4,16.56 -2.467,1.8 -3.409,2.788 -5.76,4.56 -1.763,1.328 -4.246,3.99 -6.72,3.84 -3.809,-0.23 -12.846,-5.432 -15.6,-7.2 -14.314,-9.191 -25.664,-19.909 -34.32,-33.84" />
          </g>
          <g
             transform="translate(352.6973,488.5244)"
             id="g219">
            <path
               inkscape:connector-curvature="0"
               id="path221"
               style="fill:#000000;fill-opacity:1;fill-rule:evenodd;stroke:none"
               d="M 0,0 C 2.05,2.937 12.854,12.57 19.44,12.24 24.502,11.986 28.892,8.518 31.92,5.52 20.499,4.84 12.683,-4.255 13.44,-15.6 8.592,-11.488 1.746,-9.375 -1.2,-3.36 -0.815,-2.404 -0.745,-1.068 0,0 m 39.36,-15.84 c -6.65,-6.372 -21.134,-5.78 -21.839,4.56 -0.486,7.121 8.153,13.884 14.639,14.16 12.173,0.518 14.443,-11.782 7.2,-18.72 m 23.52,-7.2 c -5.39,-6.61 -12.717,-11.283 -21.359,-14.64 -10.609,0.464 -15.853,8.284 -20.401,15.6 12.805,-5.336 26.704,3.252 27.12,15.6 6.634,-3.767 10.579,-10.221 14.64,-16.56 m -49.199,1.92 c 7.187,-6.38 13.719,-18.952 25.439,-19.44 14.486,-0.604 19.927,9.533 29.04,15.6 C 55.685,-6.792 39.799,9.235 16.8,16.08 13.176,13.23 9.678,10.408 5.04,6.96 -0.222,3.047 -10.005,-1.892 -2.64,-9.12 c 4.545,-4.461 10.963,-7.245 16.321,-12" />
          </g>
          <g
             transform="translate(203.6587,403.084)"
             id="g223">
            <path
               inkscape:connector-curvature="0"
               id="path225"
               style="fill:#000000;fill-opacity:1;fill-rule:evenodd;stroke:none"
               d="m 0,0 c -13.231,9.49 -26.098,19.343 -38.16,30 0.112,8.208 2.647,13.992 5.76,19.2 C -19.57,39.63 -7.643,29.159 4.56,18.96 4.947,11.697 -0.925,7.801 0,0 M 23.52,61.2 C 16.6,53.171 11.28,41.797 -3.12,43.68 c -12.332,1.613 -17.991,11.441 -27.36,17.04 -4.216,-7.475 -9.804,-16.143 -11.041,-25.92 -0.87,-6.876 1.724,-7.623 5.52,-10.8 10.087,-8.439 18.996,-15.707 29.04,-23.52 3.598,-2.798 7.931,-7.73 12.24,-8.88 7.248,-1.932 19.885,3.334 24.481,6.24 1.427,0.902 11.452,8.287 8.399,9.599 C 37.142,7.879 35.601,6.078 35.52,6 30.236,0.984 21.203,-3.961 14.399,-5.52 9.618,-6.615 4.49,-5.705 4.8,-0.719 c 0.358,5.785 6.555,8.662 7.92,13.92 1.919,7.396 -6.051,14.874 -2.641,23.999 4.428,11.847 14.82,18.095 24.24,26.16 6.519,5.581 13.168,12.597 23.521,11.52 -2.13,2.758 -6.215,5.62 -9.84,7.68 V 81.84 C 42.929,71.582 31.89,70.912 23.52,61.2" />
          </g>
          <g
             transform="translate(423.9775,450.6045)"
             id="g227">
            <path
               inkscape:connector-curvature="0"
               id="path229"
               style="fill:#000000;fill-opacity:1;fill-rule:evenodd;stroke:none"
               d="m 0,0 c 1.335,-3.621 7.547,-12.263 5.76,-18.72 -0.647,-2.338 -6.829,-6.256 -9.12,-8.16 -9.064,-7.533 -20.387,-15.994 -28.8,-22.08 0.378,7.262 -5.056,11.592 -4.8,18.721 C -24.86,-19.94 -12.924,-9.477 0,0 m -71.76,18.72 c 3.961,-3.493 8.128,-6.699 12.239,-10.08 7.255,-5.965 18.171,-16.038 18.241,-26.64 0.04,-6.033 -4.433,-11.139 -4.08,-16.56 0.347,-5.336 8.341,-9.945 8.16,-15.839 -0.275,-8.928 -15.324,-2.541 -18.96,-0.961 -2.59,1.423 -5.088,3.175 -7.68,5.041 -2.306,1.658 -5.094,5.091 -7.44,4.08 2.439,-5.149 8.022,-8.598 13.44,-11.041 4.452,-2.008 13.253,-6.002 20.16,-4.321 3.856,0.94 8.116,5.875 12,8.881 10.304,7.971 19.409,15.426 29.28,23.52 4.384,3.595 6.254,4.557 5.52,11.04 -1.111,9.82 -7.084,18.313 -11.04,25.68 -9.974,-7.405 -25.732,-24.465 -42.24,-13.2 -5.778,5.261 -8.987,10.915 -14.4,16.32 -6.701,6.692 -17.151,9.1 -21.84,17.28 -0.479,0.578 0.419,1.162 -0.24,1.68 -3.377,-2.463 -6.895,-4.785 -9.84,-7.68 7.737,0.347 14.012,-3.049 18.72,-7.2" />
          </g>
          <g
             transform="translate(231.7378,459.0044)"
             id="g231">
            <path
               inkscape:connector-curvature="0"
               id="path233"
               style="fill:#000000;fill-opacity:1;fill-rule:evenodd;stroke:none"
               d="m 0,0 c -10.383,-9.267 -22.623,-21.344 -13.439,-38.161 0.538,2.192 0.022,6.318 0.719,9.121 2.794,11.232 13.394,22.406 21.601,29.76 3.032,2.718 7.027,4.77 11.279,7.2 3.468,1.981 9.124,5.802 12.96,5.04 4.605,-0.915 1.808,-6.943 2.401,-10.32 0.631,-3.601 3.007,-6.588 3.12,-10.32 0.087,-2.914 -0.974,-6.058 -1.92,-8.4 -0.902,-2.231 -3.198,-4.382 -2.16,-6.96 3.929,3.595 6.036,8.636 6,14.88 -0.026,4.3 -3.217,7.845 -3.121,11.52 0.056,2.14 1.551,5.023 0.96,7.68 -0.685,3.084 -5.192,5.785 -8.4,6 C 16.514,17.943 8.205,7.322 0,0" />
          </g>
          <g
             transform="translate(322.9375,448.4443)"
             id="g235">
            <path
               inkscape:connector-curvature="0"
               id="path237"
               style="fill:#000000;fill-opacity:1;fill-rule:evenodd;stroke:none"
               d="m 0,0 c 0.173,-5.853 2.306,-10.598 5.76,-14.16 1.61,1.811 -0.601,4.166 -1.44,6 -0.98,2.144 -1.798,4.514 -2.16,7.2 -0.678,5.02 1.975,8.696 2.64,12.72 0.422,2.549 -1.069,6.031 0,8.16 1.454,2.897 5.599,1.767 8.4,0.72 5.142,-1.922 14.506,-7.277 18.24,-10.56 10.743,-9.447 21.928,-22.51 22.8,-39.36 0.542,5.507 3.788,8.857 3.36,14.4 C 56.957,-6.562 48.668,1.377 42.24,7.2 34.617,14.105 29.052,20.219 21.36,24 14.987,27.132 3.577,26.396 2.16,20.16 1.436,16.973 3.134,14.21 2.88,11.04 2.599,7.525 -0.124,4.203 0,0" />
          </g>
          <g
             transform="translate(231.7378,447.7241)"
             id="g239">
            <path
               inkscape:connector-curvature="0"
               id="path241"
               style="fill:#000000;fill-opacity:1;fill-rule:evenodd;stroke:none"
               d="m 0,0 c 3.346,-5.036 8.471,-8.489 12.96,-12.48 13.579,-12.07 28.773,-22.189 42.721,-33.6 3.037,1.842 5.395,4.366 8.399,6.241 C 45.238,-23.882 25.902,-8.418 5.761,6.24 3.648,4.501 0.782,2.273 0,0" />
          </g>
          <g
             transform="translate(246.6187,363.0039)"
             id="g243">
            <path
               inkscape:connector-curvature="0"
               id="path245"
               style="fill:#000000;fill-opacity:1;fill-rule:evenodd;stroke:none"
               d="m 0,0 c 2.51,-0.795 6.23,-0.52 8.399,0.48 4.931,2.274 9.759,6.055 14.641,9.12 14.805,9.296 27.479,19.898 41.519,30.24 13.441,9.9 27.206,20.525 40.08,31.681 2.905,2.517 12.423,8.642 12.239,11.759 -0.154,2.644 -4.24,4.02 -5.759,6 C 72.852,62.911 40.175,28.863 -1.681,5.281 -2.106,2.535 -1.03,1.291 0,0" />
          </g>
          <g
             transform="translate(234.6187,437.8843)"
             id="g247">
            <path
               inkscape:connector-curvature="0"
               id="path249"
               style="fill:#000000;fill-opacity:1;fill-rule:evenodd;stroke:none"
               d="m 0,0 c 15.946,-13.47 34.054,-26.48 49.199,-39.121 0.771,0.911 2.258,1.104 2.64,2.401 C 32.238,-22.482 13.684,-7.195 -4.801,8.16 -8.106,5.907 -2.155,1.82 0,0" />
          </g>
          <g
             transform="translate(239.1782,366.3652)"
             id="g251">
            <path
               inkscape:connector-curvature="0"
               id="path253"
               style="fill:#000000;fill-opacity:1;fill-rule:evenodd;stroke:none"
               d="m 0,0 c -0.296,-1.545 -0.405,-3.275 -0.48,-5.041 1.651,-3.543 5.797,-6.305 12,-5.52 6.392,0.809 12.634,6.163 17.76,9.6 15.193,10.19 29.55,21.162 43.199,32.16 9.484,7.641 18.687,15.44 28.08,22.08 9.958,7.038 19.83,14.374 26.88,23.52 -0.744,0.136 -0.631,1.129 -1.439,1.2 -4.441,-3.729 -9.186,-7.658 -13.92,-11.76 -4.369,-3.785 -9.193,-7.179 -13.681,-10.8 C 75.928,37.309 52.95,20.217 28.8,3.359 22.011,-1.381 15.052,-8.359 5.52,-4.561 5.077,-2.523 3.786,-1.334 4.08,1.439 2.421,1.258 1.269,0.57 0,0" />
          </g>
          <g
             transform="translate(227.4185,425.644)"
             id="g255">
            <path
               inkscape:connector-curvature="0"
               id="path257"
               style="fill:#000000;fill-opacity:1;fill-rule:evenodd;stroke:none"
               d="m 0,0 c 15.197,-11.425 31.686,-23.748 45.84,-34.56 2.351,1.248 4.308,2.893 6.24,4.56 C 33.266,-16.894 17.106,-1.133 -3.84,9.84 -8.67,5.956 -3.676,2.764 0,0" />
          </g>
          <g
             transform="translate(366.6172,423.2446)"
             id="g259">
            <path
               inkscape:connector-curvature="0"
               id="path261"
               style="fill:#000000;fill-opacity:1;fill-rule:evenodd;stroke:none"
               d="M 0,0 C 4.629,3.437 10.068,5.977 5.04,10.8 -0.063,9.188 -6.353,4.321 -11.04,0.72 c -14.359,-11.033 -28.751,-21.144 -42.239,-32.16 -9.513,-7.769 -18.396,-13.762 -27.839,-21.6 -8.875,-7.365 -19.344,-15.007 -25.441,-24.24 -3.624,-5.488 -5.889,-12.703 -7.68,-19.92 -1.747,-7.037 -1.797,-16.269 -6.719,-21.121 -1.228,0.133 -0.292,2.43 -1.201,2.881 -2.84,-1.273 -5.404,-2.799 -8.16,-4.801 -1.838,-1.336 -6.102,-3.586 -6.72,-6.48 -0.263,-1.235 0.441,-2.738 0.24,-4.08 -0.456,-3.043 -3.804,-4.332 -6.48,-6 -8.085,-5.033 -14.301,-11.032 -21.6,-16.078 2.382,-3.137 6.339,-1.278 8.16,-0.241 6.612,3.762 12.413,11.61 20.64,14.161 1.769,0.546 3.788,0.482 5.52,1.199 3.232,1.338 5.239,4.998 7.92,7.679 3.271,3.272 6.556,4.786 8.64,7.202 1.872,2.168 1.431,4.175 2.64,6.959 1.286,2.962 5.011,5.177 6.24,8.64 1.076,3.03 0.661,7.012 1.44,10.799 2.794,13.564 12.285,22.803 21.6,31.68 9.211,8.779 20.15,17.367 29.039,24.48 C -35.887,-26.592 -17.678,-13.127 0,0" />
          </g>
          <g
             transform="translate(350.0576,370.4434)"
             id="g263">
            <path
               inkscape:connector-curvature="0"
               id="path265"
               style="fill:#000000;fill-opacity:1;fill-rule:evenodd;stroke:none"
               d="m 0,0 c -10.179,3.982 -18.049,10.271 -26.4,16.08 -2.543,-1.935 -5.304,-3.654 -7.44,-6 C -26.373,6.686 -16.075,-4.432 -6.72,-6.238 -2.529,-7.049 1.548,-5.008 0,0" />
          </g>
          <g
             transform="translate(312.1377,377.1641)"
             id="g267">
            <path
               inkscape:connector-curvature="0"
               id="path269"
               style="fill:#000000;fill-opacity:1;fill-rule:evenodd;stroke:none"
               d="m 0,0 c 4.352,-2.781 9.535,-6.834 15.6,-10.799 5.501,-3.597 11.001,-8.639 17.52,-9.121 6.605,-0.488 13.281,3.596 10.8,10.801 -1.452,0.467 -2.579,1.26 -4.32,1.439 0.722,-2.562 -0.825,-4.716 -1.68,-6.48 -9.667,-2.623 -15.408,3.115 -21.84,7.439 C 11.167,-3.416 6.507,0.084 2.64,2.4 1.644,1.717 0.515,1.164 0,0" />
          </g>
          <g
             transform="translate(365.1777,294.6035)"
             id="g271">
            <path
               inkscape:connector-curvature="0"
               id="path273"
               style="fill:#000000;fill-opacity:1;fill-rule:evenodd;stroke:none"
               d="m 0,0 c 1.209,9.113 -9.195,10.6 -14.4,14.881 -0.853,-0.508 0.051,-2.772 -1.201,-2.881 -3.369,1.697 -3.753,6.176 -4.319,9.602 -1.869,11.318 -4.667,23.728 -10.08,31.679 -7.324,10.756 -18.498,17.053 -27.601,25.92 -0.013,0.147 -0.035,0.283 -0.239,0.24 -1.909,-1.851 -4.052,-3.468 -6.24,-5.041 11.853,-11.533 27.323,-21.812 31.2,-41.039 0.648,-3.213 0.198,-6.492 1.199,-9.84 1.169,-3.906 5.259,-5.652 6.721,-9.839 0.801,-2.297 0.783,-4.918 2.64,-6.721 5.556,-2.117 8.778,-8.576 13.44,-12.721 2.518,-2.238 5.401,-1.826 9.12,-3.119 4.088,-1.422 8.441,-5.1 11.76,-7.68 4.464,-3.472 10.595,-10.683 16.319,-6 -4.213,3.055 -8.321,6.319 -12.96,9.84 C 10.396,-8.951 2.4,-5.721 0,0" />
          </g>
          <g
             transform="translate(427.8174,321.4844)"
             id="g275">
            <path
               inkscape:connector-curvature="0"
               id="path277"
               style="fill:#000000;fill-opacity:1;fill-rule:evenodd;stroke:none"
               d="m 0,0 c -0.502,-11.09 -12.263,-20.656 -21.84,-22.561 -21.98,-4.367 -43.664,13.002 -47.04,31.442 -2.929,15.994 9.626,27.676 24.72,28.318 9.073,0.387 19.605,-2.836 25.92,-6.959 C -9.88,24.781 0.662,14.617 0,0 m -48.96,42.48 c -18.446,-1.8 -30.253,-17.779 -25.92,-37.679 2.684,-12.324 14.751,-23.824 24.96,-29.762 2.905,-1.687 6.207,-1.963 7.68,-5.039 -1.182,-0.498 -3.426,0.066 -4.56,-0.48 5.236,-3.518 19.04,-19.956 24,-6.959 -3.672,3.126 -10.53,3.07 -13.92,6.478 21.607,0.225 39.825,9.19 42.241,27.361 1.328,9.998 -3.582,20.104 -8.641,25.92 -8.855,10.178 -27.126,21.987 -45.84,20.16" />
          </g>
          <g
             transform="translate(171.2583,335.4043)"
             id="g279">
            <path
               inkscape:connector-curvature="0"
               id="path281"
               style="fill:#000000;fill-opacity:1;fill-rule:evenodd;stroke:none"
               d="m 0,0 c 6.405,11.691 19.431,20.037 37.68,21.6 6.462,0.554 14.078,-1.963 18,-4.561 C 61.007,13.512 66.883,3.588 65.04,-6.48 62.313,-21.371 48.567,-33.309 36.24,-37.199 11.35,-45.059 -12.691,-23.166 0,0 m 38.4,-45.119 c 13.588,8.414 31.641,19.68 33.36,40.318 C 73.069,10.922 63.082,22.658 51.6,25.92 30.891,31.805 8.441,17.732 -0.96,6.48 -4.813,1.869 -8.92,-5.184 -9.601,-12.24 -11.354,-30.449 3.283,-43.27 19.92,-45.359 c 4.868,-0.614 8.365,0.242 12.96,-1.202 -3.491,-3.388 -10.673,-3.085 -13.92,-6.718 5.814,-12.149 18.415,3.427 24,7.439 -1.692,0.067 -3.772,-0.252 -4.56,0.721" />
          </g>
          <g
             transform="translate(399.4971,328.9238)"
             id="g283">
            <path
               inkscape:connector-curvature="0"
               id="path285"
               style="fill:#000000;fill-opacity:1;fill-rule:evenodd;stroke:none"
               d="M 0,0 C -8.836,8.467 -23.379,15.057 -37.439,12 -41.785,-14.688 -12.696,-36.215 11.28,-25.199 12.578,-14.197 6.251,-5.988 0,0" />
          </g>
          <g
             transform="translate(233.1782,339.2441)"
             id="g287">
            <path
               inkscape:connector-curvature="0"
               id="path289"
               style="fill:#000000;fill-opacity:1;fill-rule:evenodd;stroke:none"
               d="m 0,0 c -15.102,2.881 -28.67,-3.32 -37.68,-12 -6.111,-5.887 -12.644,-14.996 -11.04,-25.199 4.861,-2.33 11.738,-4.33 18.96,-2.881 C -12.182,-36.553 2.928,-20.129 0,0" />
          </g>
          <g
             transform="translate(229.1782,474.6045)"
             id="g291">
            <path
               inkscape:connector-curvature="0"
               id="path293"
               style="fill:#ffffff;fill-opacity:1;fill-rule:evenodd;stroke:none"
               d="m 0,0 c 3.396,3.226 9.544,5.235 12.72,8.64 6.453,6.917 -8.343,12.963 -10.8,16.8 -6.742,4.763 -16.151,0.697 -20.399,-4.32 C -7.866,20.553 0.962,11.414 0,0" />
          </g>
          <g
             transform="translate(366.2178,472.9243)"
             id="g295">
            <path
               inkscape:connector-curvature="0"
               id="path297"
               style="fill:#ffffff;fill-opacity:1;fill-rule:evenodd;stroke:none"
               d="M 0,0 C -0.758,11.345 7.059,20.44 18.479,21.12 15.451,24.118 11.062,27.586 6,27.84 -0.587,28.17 -11.391,18.537 -13.44,15.6 -14.186,14.532 -14.256,13.196 -14.641,12.24 -11.694,6.226 -4.849,4.112 0,0" />
          </g>
          <g
             transform="translate(198.6987,485.1646)"
             id="g299">
            <path
               inkscape:connector-curvature="0"
               id="path301"
               style="fill:#ffffff;fill-opacity:1;fill-rule:evenodd;stroke:none"
               d="m 0,0 c -1.043,-8.379 8.299,-15.188 15.119,-15.36 5.318,-0.135 10.942,3.471 11.28,9.12 C 26.86,1.435 16.486,9.376 8.639,7.68 3.875,6.649 0.43,3.458 0,0" />
          </g>
          <g
             transform="translate(370.2979,477.2441)"
             id="g303">
            <path
               inkscape:connector-curvature="0"
               id="path305"
               style="fill:#ffffff;fill-opacity:1;fill-rule:evenodd;stroke:none"
               d="m 0,0 c 0.705,-10.339 15.189,-10.932 21.84,-4.56 7.242,6.938 4.973,19.239 -7.2,18.72 C 8.153,13.884 -0.485,7.121 0,0" />
          </g>
          <g
             transform="translate(194.6187,483.4844)"
             id="g307">
            <path
               inkscape:connector-curvature="0"
               id="path309"
               style="fill:#ffffff;fill-opacity:1;fill-rule:evenodd;stroke:none"
               d="m 0,0 c -0.002,0.03 -0.566,0.294 -0.721,0.24 -5.93,-4.309 -10.323,-10.157 -14.16,-16.56 4.453,-5.024 11.219,-11.116 18,-13.68 11.447,-4.329 19.211,7.404 23.76,14.64 C 13.551,-21.126 0.677,-11.983 0,0" />
          </g>
          <g
             transform="translate(373.8975,466.4443)"
             id="g311">
            <path
               inkscape:connector-curvature="0"
               id="path313"
               style="fill:#ffffff;fill-opacity:1;fill-rule:evenodd;stroke:none"
               d="m 0,0 c 4.548,-7.316 9.792,-15.136 20.4,-15.6 8.643,3.357 15.97,8.03 21.36,14.64 C 37.699,5.379 33.754,11.833 27.12,15.6 26.704,3.252 12.805,-5.335 0,0" />
          </g>
          <g
             transform="translate(208.2983,422.0444)"
             id="g315">
            <path
               inkscape:connector-curvature="0"
               id="path317"
               style="fill:#ffffff;fill-opacity:1;fill-rule:evenodd;stroke:none"
               d="m 0,0 c -12.202,10.198 -24.131,20.67 -36.961,30.24 -3.111,-5.208 -7.004,-14.271 -5.76,-19.2 12.063,-10.657 24.93,-20.51 38.16,-30 C -5.484,-11.16 0.388,-7.263 0,0" />
          </g>
          <g
             transform="translate(387.0977,420.3652)"
             id="g319">
            <path
               inkscape:connector-curvature="0"
               id="path321"
               style="fill:#ffffff;fill-opacity:1;fill-rule:evenodd;stroke:none"
               d="m 0,0 c -0.256,-7.129 5.178,-11.459 4.8,-18.721 8.413,6.086 19.736,14.547 28.8,22.08 2.291,1.904 8.473,5.822 9.12,8.16 1.787,6.458 -4.425,15.099 -5.76,18.72 C 24.036,20.763 12.1,10.299 0,0" />
          </g>
          <g
             transform="translate(362.1377,340.9238)"
             id="g323">
            <path
               inkscape:connector-curvature="0"
               id="path325"
               style="fill:#ffffff;fill-opacity:1;fill-rule:evenodd;stroke:none"
               d="M 0,0 C 14.061,3.057 28.604,-3.533 37.439,-12 43.69,-17.988 50.018,-26.197 48.72,-37.199 24.743,-48.215 -4.346,-26.688 0,0 m 43.92,-42 c 9.577,1.904 21.338,11.471 21.84,22.561 C 66.422,-4.822 55.88,5.342 47.52,10.801 41.205,14.924 30.673,18.146 21.6,17.76 6.506,17.117 -6.049,5.436 -3.12,-10.559 0.256,-28.998 21.939,-46.367 43.92,-42" />
          </g>
          <g
             transform="translate(203.4976,299.1641)"
             id="g327">
            <path
               inkscape:connector-curvature="0"
               id="path329"
               style="fill:#ffffff;fill-opacity:1;fill-rule:evenodd;stroke:none"
               d="m 0,0 c -7.222,-1.449 -14.099,0.551 -18.959,2.881 -1.604,10.203 4.928,19.312 11.039,25.199 9.011,8.68 22.578,14.881 37.681,12 C 32.688,19.951 17.579,3.527 0,0 m 32.881,29.76 c 1.843,10.068 -4.033,19.992 -9.36,23.519 -3.922,2.598 -11.539,5.116 -18,4.561 C -12.729,56.277 -25.754,47.932 -32.16,36.24 -44.852,13.074 -20.811,-8.818 4.08,-0.959 16.408,2.932 30.154,14.869 32.881,29.76" />
          </g>
          <g
             transform="translate(454.0576,448.2041)"
             id="g331">
            <path
               inkscape:connector-curvature="0"
               id="path333"
               style="fill:#ffffff;fill-opacity:1;fill-rule:evenodd;stroke:none"
               d="M 0,0 C -0.616,9.224 -4.341,15.339 -7.2,22.32 -18.983,45.497 -36.259,63.181 -62.4,72 c 6.163,3.765 15.984,-1.343 21.36,-4.8 C -23.135,55.687 -1.756,35.598 2.4,11.04 2.943,7.828 2.702,4.375 2.88,2.16 1.919,1.441 1.655,0.024 0,0 m -5.28,-4.56 c -3.042,18.364 -14.425,33.872 -24.48,45.6 -10.319,12.038 -23.979,20.216 -39.12,26.16 -0.099,1.421 2.409,2.199 3.6,3.12 27.261,-6.454 44.785,-27.888 56.88,-50.16 2.68,-4.934 5.629,-10.847 6.24,-16.32 0.488,-4.369 -0.258,-7.915 -3.12,-8.4 m -6.48,-5.52 c -0.983,16.627 -10.825,26.448 -17.761,37.92 -12.301,14.658 -26.816,27.103 -45.839,35.04 0.546,1.774 2.674,1.966 3.839,3.12 25.032,-7.843 41.148,-26 54.481,-46.56 4.772,-7.358 9.664,-16.567 9.36,-26.4 -1.264,-1.136 -2.562,-2.238 -4.08,-3.12 m -5.04,-4.08 c -8.608,37.072 -32.252,59.11 -64.32,72.72 0.542,1.778 2.662,1.978 3.84,3.12 22.059,-9.1 39.089,-24.282 51.6,-43.44 5.026,-7.696 10.692,-16.814 11.52,-26.4 0.222,-2.569 0.18,-5.223 -2.64,-6 m -9.6,-8.639 c -9.871,-8.095 -18.976,-15.55 -29.28,-23.52 -3.884,-3.006 -8.144,-7.942 -12,-8.881 -6.907,-1.682 -15.708,2.312 -20.16,4.32 -5.418,2.443 -11.001,5.893 -13.44,11.041 2.346,1.012 5.134,-2.422 7.44,-4.08 2.592,-1.865 5.09,-3.617 7.68,-5.041 3.636,-1.58 18.685,-7.967 18.96,0.961 0.181,5.895 -7.813,10.504 -8.16,15.84 -0.353,5.42 4.12,10.527 4.08,16.559 -0.07,10.602 -10.986,20.676 -18.241,26.64 -4.111,3.381 -8.278,6.587 -12.239,10.08 -4.708,4.151 -10.983,7.547 -18.72,7.2 2.945,2.896 6.463,5.217 9.84,7.68 0.659,-0.518 -0.239,-1.102 0.24,-1.68 4.689,-8.179 15.139,-10.588 21.84,-17.28 5.413,-5.405 8.622,-11.059 14.4,-16.32 16.508,-11.265 32.266,5.796 42.24,13.2 3.956,-7.367 9.929,-15.86 11.04,-25.68 0.734,-6.482 -1.136,-7.445 -5.52,-11.039 m -114,-42.481 c -8.889,-7.114 -19.829,-15.701 -29.039,-24.481 -9.316,-8.877 -18.807,-18.115 -21.601,-31.679 -0.78,-3.788 -0.364,-7.77 -1.44,-10.799 -1.228,-3.463 -4.953,-5.678 -6.24,-8.641 -1.209,-2.783 -0.768,-4.791 -2.639,-6.959 -2.084,-2.416 -5.369,-3.93 -8.641,-7.201 -2.681,-2.682 -4.687,-6.342 -7.919,-7.68 -1.732,-0.717 -3.751,-0.652 -5.52,-1.199 -8.228,-2.551 -14.029,-10.398 -20.641,-14.16 -1.82,-1.037 -5.777,-2.897 -8.16,0.24 7.3,5.047 13.516,11.045 21.6,16.078 2.677,1.668 6.023,2.957 6.48,6 0.202,1.342 -0.504,2.846 -0.24,4.08 0.617,2.895 4.883,5.145 6.721,6.481 2.756,2.002 5.32,3.527 8.16,4.801 0.908,-0.452 -0.027,-2.748 1.199,-2.881 4.924,4.851 4.974,14.084 6.721,21.121 1.791,7.217 4.055,14.431 7.68,19.92 6.096,9.232 16.566,16.875 25.439,24.24 9.443,7.838 18.328,13.83 27.84,21.6 13.489,11.015 27.88,21.127 42.24,32.159 4.687,3.602 10.976,8.468 16.08,10.08 5.028,-4.823 -0.411,-7.363 -5.04,-10.799 -17.678,-13.128 -35.887,-26.593 -53.04,-40.321 m 36.48,-12.481 c 1.548,-5.008 -2.529,-7.049 -6.72,-6.238 -9.355,1.807 -19.653,12.924 -27.12,16.318 2.136,2.346 4.897,4.065 7.44,6 8.351,-5.808 16.221,-12.097 26.4,-16.08 m 6,-2.398 c 2.482,-7.205 -4.195,-11.289 -10.8,-10.801 -6.519,0.482 -12.019,5.523 -17.52,9.121 -6.065,3.965 -11.248,8.018 -15.6,10.799 0.515,1.164 1.644,1.717 2.64,2.4 3.867,-2.316 8.527,-5.816 13.44,-9.121 6.432,-4.324 12.173,-10.062 21.84,-7.439 0.856,1.763 2.402,3.918 1.68,6.48 1.741,-0.179 2.868,-0.972 4.32,-1.439 m 22.8,-4.08 c 18.714,1.826 36.985,-9.983 45.84,-20.16 5.059,-5.817 9.968,-15.922 8.64,-25.92 -2.415,-18.172 -20.633,-27.137 -42.24,-27.362 3.39,-3.408 10.248,-3.351 13.92,-6.478 -4.96,-12.996 -18.765,3.441 -24,6.959 1.134,0.547 3.378,-0.018 4.56,0.48 -1.473,3.076 -4.775,3.352 -7.68,5.039 -10.209,5.938 -22.276,17.438 -24.96,29.762 -4.333,19.9 7.474,35.879 25.92,37.68 m -1.68,-85.92 c -3.319,2.58 -7.672,6.258 -11.76,7.68 -3.719,1.292 -6.602,0.88 -9.12,3.119 -4.662,4.144 -7.883,10.603 -13.44,12.72 -1.857,1.803 -1.839,4.424 -2.64,6.721 -1.462,4.188 -5.552,5.934 -6.72,9.84 -1.001,3.348 -0.552,6.627 -1.2,9.84 -3.877,19.226 -19.346,29.506 -31.2,41.039 2.189,1.572 4.331,3.189 6.24,5.041 0.204,0.043 0.226,-0.094 0.24,-0.24 9.102,-8.868 20.276,-15.164 27.6,-25.92 5.413,-7.952 8.211,-20.362 10.08,-31.68 0.566,-3.426 0.95,-7.904 4.32,-9.602 1.252,0.11 0.347,2.373 1.2,2.881 5.205,-4.281 15.609,-5.767 14.4,-14.881 2.401,-5.72 10.397,-8.951 15.36,-12.718 4.638,-3.522 8.747,-6.785 12.96,-9.84 -5.725,-4.684 -11.856,2.527 -16.32,6 m -186.959,4.08 c 3.246,3.633 10.427,3.33 13.92,6.719 -4.596,1.443 -8.092,0.588 -12.961,1.201 -16.637,2.09 -31.274,14.91 -29.52,33.119 0.68,7.057 4.787,14.109 8.641,18.721 9.4,11.252 31.849,25.324 52.559,19.439 11.483,-3.262 21.47,-14.998 20.161,-30.721 -1.719,-20.638 -19.773,-31.904 -33.361,-40.318 0.788,-0.973 2.867,-0.654 4.561,-0.721 -5.585,-4.011 -18.186,-19.588 -24,-7.439 m 48.96,84.24 c 1.268,0.57 2.421,1.258 4.079,1.44 -0.293,-2.774 0.998,-3.963 1.44,-6 9.532,-3.799 16.491,3.179 23.28,7.92 24.15,16.857 47.129,33.949 69.6,52.079 4.488,3.621 9.312,7.015 13.68,10.8 4.735,4.102 9.48,8.031 13.92,11.76 0.809,-0.071 0.696,-1.064 1.44,-1.2 -7.05,-9.146 -16.922,-16.482 -26.88,-23.52 -9.394,-6.64 -18.596,-14.439 -28.08,-22.08 -13.65,-10.998 -28.006,-21.97 -43.199,-32.16 -5.127,-3.437 -11.369,-8.791 -17.761,-9.599 -6.202,-0.786 -10.348,1.976 -12,5.519 0.075,1.766 0.185,3.496 0.481,5.041 m 5.759,1.92 c 41.856,23.582 74.533,57.629 112.8,83.999 1.519,-1.98 5.605,-3.356 5.76,-6 0.183,-3.117 -9.334,-9.242 -12.24,-11.76 -12.874,-11.155 -26.639,-21.78 -40.08,-31.68 -14.042,-10.342 -26.716,-20.944 -41.52,-30.241 -4.881,-3.064 -9.709,-6.845 -14.639,-9.119 -2.169,-1 -5.89,-1.275 -8.4,-0.48 -1.03,1.291 -2.106,2.535 -1.681,5.281 m -17.52,57.359 c -3.676,2.764 -8.669,5.956 -3.84,9.84 20.947,-10.973 37.107,-26.734 55.92,-39.84 -1.931,-1.668 -3.888,-3.312 -6.24,-4.56 -14.155,10.812 -30.642,23.135 -45.84,34.56 m 6,-24.72 c -4.596,-2.907 -17.232,-8.172 -24.48,-6.241 -4.309,1.151 -8.642,6.083 -12.24,8.881 -10.044,7.813 -18.954,15.08 -29.04,23.52 -3.796,3.177 -6.389,3.924 -5.519,10.8 1.236,9.777 6.824,18.445 11.039,25.92 9.37,-5.599 15.029,-15.427 27.361,-17.04 14.4,-1.883 19.719,9.491 26.64,17.52 8.37,9.712 19.409,10.382 24.479,20.64 v 0.72 c 3.626,-2.06 7.711,-4.922 9.84,-7.68 -10.352,1.077 -17.002,-5.939 -23.52,-11.52 -9.419,-8.065 -19.812,-14.313 -24.24,-26.16 -3.41,-9.125 4.56,-16.603 2.641,-23.999 -1.364,-5.258 -7.563,-8.135 -7.92,-13.92 -0.31,-4.986 4.818,-5.896 9.6,-4.801 6.802,1.559 15.836,6.504 21.12,11.52 0.081,0.078 1.622,1.879 2.639,1.439 3.053,-1.312 -6.972,-8.697 -8.4,-9.599 m -76.319,48.96 c 2.583,8.024 8.039,16.548 13.44,23.52 8.897,11.487 18.507,21.327 30.719,29.28 5.041,3.283 10.86,6.984 16.08,8.64 1.947,0.618 4.221,-1.785 5.041,-2.88 -31.987,-13.692 -55.732,-35.63 -64.32,-72.72 -4.468,1.377 -2.211,10.274 -0.96,14.16 m -8.161,-6.96 c 0.972,17.394 13.386,33.941 22.8,45.36 9.114,11.054 23.713,21.701 37.92,26.88 1.111,0.405 2.028,0.176 2.881,0.72 1.375,-1.025 3.259,-1.54 4.08,-3.12 -17.857,-8.22 -35.785,-20.313 -46.32,-36.72 -6.751,-10.512 -16.931,-20.424 -17.28,-36.24 -1.692,0.709 -2.879,1.921 -4.081,3.12 m -5.52,10.56 c 1.069,10.433 8.653,22.52 14.4,30.96 11.45,16.814 28.877,30.334 47.281,35.52 2.313,0.653 3.558,-1.6 5.28,-2.4 -14.678,-6.788 -28.877,-14.235 -39.36,-26.4 -10.344,-12.002 -21.068,-27.197 -24.48,-45.84 -3.07,0.742 -3.621,3.27 -3.121,8.16 m -5.039,-1.44 c 0.432,18.154 7.74,30.226 17.279,41.52 8.045,9.524 16.744,17.009 26.401,23.28 5.577,3.622 14.162,8.33 21.599,5.28 -25.463,-9.503 -43.407,-25.941 -55.199,-49.68 -3.406,-6.854 -6.327,-14.524 -7.44,-22.8 -1.13,0.551 -2.038,1.323 -2.64,2.4 m 92.64,50.16 c 2.35,-1.772 3.292,-2.76 5.759,-4.56 5.841,-4.26 15.818,-9.431 8.401,-16.56 -4.472,-4.297 -10.829,-7.449 -16.08,-12 -7.39,-6.403 -15.158,-21.436 -29.521,-19.2 -11.146,1.736 -17.109,8.845 -25.199,15.12 8.654,13.931 20.006,24.649 34.319,33.84 2.754,1.769 11.79,6.97 15.601,7.2 2.473,0.15 4.957,-2.511 6.72,-3.84 m 39.12,-32.16 c 0.589,-2.657 -0.905,-5.54 -0.96,-7.68 -0.097,-3.675 3.094,-7.22 3.12,-11.52 0.036,-6.244 -2.071,-11.285 -6,-14.88 -1.037,2.578 1.258,4.73 2.16,6.96 0.945,2.342 2.007,5.486 1.92,8.4 -0.112,3.733 -2.488,6.719 -3.121,10.32 -0.592,3.377 2.205,9.406 -2.4,10.32 -3.836,0.762 -9.492,-3.058 -12.96,-5.04 -4.252,-2.429 -8.247,-4.482 -11.279,-7.2 -8.207,-7.353 -18.807,-18.527 -21.6,-29.76 -0.698,-2.802 -0.183,-6.928 -0.72,-9.12 -9.184,16.816 3.056,28.893 13.439,38.16 8.205,7.323 16.514,17.943 30,17.04 3.208,-0.215 7.715,-2.916 8.401,-6 m 16.319,-68.88 c -0.382,-1.297 -1.869,-1.49 -2.64,-2.4 -15.145,12.64 -33.254,25.65 -49.199,39.12 -2.156,1.82 -8.106,5.907 -4.801,8.16 18.485,-15.355 37.039,-30.642 56.64,-44.88 m 9.36,6.721 c -3.004,-1.875 -5.361,-4.399 -8.401,-6.241 -13.945,11.411 -29.14,21.53 -42.719,33.6 -4.489,3.991 -9.614,7.444 -12.96,12.48 0.782,2.273 3.649,4.501 5.76,6.24 20.143,-14.658 39.479,-30.122 58.32,-46.079 m 27.12,40.559 c -0.124,4.203 2.599,7.525 2.88,11.04 0.254,3.17 -1.444,5.933 -0.72,9.12 1.417,6.236 12.827,6.973 19.2,3.84 7.692,-3.781 13.257,-9.895 20.88,-16.8 6.428,-5.822 14.717,-13.762 15.36,-22.08 0.428,-5.543 -2.818,-8.893 -3.36,-14.4 -0.872,16.851 -12.057,29.913 -22.8,39.36 -3.734,3.284 -13.098,8.638 -18.24,10.56 -2.801,1.047 -6.946,2.178 -8.4,-0.72 -1.069,-2.129 0.422,-5.611 0,-8.16 -0.665,-4.024 -3.318,-7.7 -2.64,-12.72 0.362,-2.685 1.18,-5.056 2.16,-7.2 0.839,-1.834 3.05,-4.188 1.44,-6 -3.454,3.562 -5.587,8.308 -5.76,14.16 m 34.8,47.04 c 4.637,3.449 8.136,6.271 11.76,9.12 22.999,-6.845 38.884,-22.872 51.36,-41.04 -9.113,-6.067 -14.554,-16.203 -29.04,-15.6 -11.72,0.489 -18.252,13.06 -25.44,19.44 -5.357,4.756 -11.775,7.539 -16.32,12 -7.365,7.228 2.418,12.168 7.68,16.08 M 2.64,21.12 c -6.971,20.437 -23.593,36.504 -41.04,47.52 -5.126,3.237 -14.555,8.382 -22.08,7.44 -3.09,-0.387 -6.68,-4.223 -9.36,-6.24 -18.49,-13.918 -35.473,-26.415 -53.28,-40.8 -2.415,-1.951 -7.109,-5.139 -7.92,-7.92 -0.953,-3.27 0.702,-7.252 0,-11.04 -0.539,-2.908 -2.384,-5.333 -2.64,-7.68 -0.828,-7.589 3.651,-13.186 5.76,-18.48 -8.93,-7.55 -18.401,-15.839 -27.84,-22.079 -9.222,7.496 -19.929,15.59 -29.28,23.759 2.438,5.266 6.74,10.44 6,18.24 -0.206,2.171 -2.588,5.449 -2.879,9.12 -0.276,3.482 0.918,6.801 0.48,9.36 -0.461,2.689 -5.769,6.26 -8.16,8.16 -18.289,14.537 -35.217,27.218 -53.28,41.04 -2.781,2.127 -6.904,5.965 -9.601,6.24 -7.58,0.773 -16.557,-4.34 -21.84,-7.68 -17.773,-11.238 -34.24,-27.194 -41.039,-47.52 -1.527,-4.562 -4.912,-14.489 -2.881,-20.16 0.746,-2.081 6.121,-5.628 8.641,-7.68 15.951,-12.991 29.604,-24.504 45.359,-36.959 4.68,-3.699 13.889,-13.526 20.641,-13.92 14.994,-0.879 27.406,8.424 35.039,15.599 8.848,-5.873 17.191,-12.25 25.201,-18.961 -10.517,-6.779 -20.116,-18.033 -36.24,-19.439 -8.274,-0.721 -14.977,1.395 -21.121,0.24 -4.465,-0.838 -7.928,-3.785 -12.48,-5.279 -3.229,-1.061 -8.057,-0.252 -11.28,-1.201 -4.379,-1.291 -8.465,-4.873 -11.76,-7.44 -3.652,-2.845 -8.169,-5.058 -10.56,-8.64 -1.305,-1.955 -2.118,-5.283 -3.6,-7.44 -2.387,-3.476 -7.517,-6.318 -11.279,-9.119 -2.41,-1.795 -9.927,-6.316 -10.321,-10.08 -0.332,-3.184 2.473,-6.303 4.321,-8.4 1.965,-2.233 4.035,-5.235 6,-6.721 2.908,-2.201 7.215,-3.166 8.639,-6.481 0.535,-1.24 0.453,-2.617 0.96,-4.08 2.554,-7.355 9.526,-12.89 15.84,-18.718 4.978,-4.594 11.405,-13.784 17.281,-14.881 7.075,-1.322 14.237,4.051 18.479,7.201 4.871,3.615 9.416,9.27 14.4,11.279 4.449,1.795 10.031,1.92 13.201,4.321 2.715,2.054 4.613,5.98 7.92,9.119 2.491,2.365 7.549,5.597 8.879,8.4 0.922,1.943 0.709,4.535 1.44,6.24 1.007,2.348 3.605,3.459 4.801,5.52 2.228,3.846 1.861,9.334 2.639,13.92 3.39,19.98 19.526,28.142 31.92,39.599 11.558,-10.156 23.457,-18.158 28.56,-33.359 1.797,-5.352 0.659,-11.002 3.36,-17.279 1.005,-2.336 4.118,-4.233 5.28,-7.201 0.679,-1.733 0.507,-3.772 1.2,-5.52 1.249,-3.146 6.142,-5.66 9.12,-8.641 3.387,-3.386 5.225,-7.517 8.4,-9.599 3.349,-2.196 8.641,-2.063 13.2,-4.08 4.227,-1.871 7.995,-6.358 12,-9.36 4.313,-3.234 8.359,-6.547 13.44,-8.16 7.798,-2.476 11.699,1.86 16.08,6.24 7.896,7.895 18.398,15.459 23.04,24.721 1.114,2.221 0.928,4.279 1.92,6.238 1.463,2.891 5.694,4.01 8.4,6 2.001,1.473 4.256,4.493 6.24,6.721 1.726,1.94 4.684,5.397 4.32,8.641 -0.416,3.703 -7.704,7.724 -10.32,9.599 -3.695,2.649 -8.257,5.934 -10.8,9.119 -1.825,2.288 -2.749,5.983 -4.32,8.161 -1.869,2.591 -6.044,5.007 -9.12,7.441 -3.296,2.606 -6.482,5.377 -9.6,6.959 -4.226,2.145 -8.923,1.018 -13.92,2.16 -5.538,1.266 -8.95,5.494 -14.88,6 -6.299,0.537 -12.067,-1.107 -17.76,-0.721 -16.049,1.094 -25.822,10.895 -35.76,18.241 7.545,5.976 15.037,12.004 23.28,17.281 1.571,-1.959 3.356,-4.027 5.28,-5.522 5.923,-4.593 19.516,-11.99 30.72,-10.08 3.077,0.526 7.307,4.147 10.08,6.241 19.394,14.638 36.186,29.223 54.72,44.4 2.563,2.099 7.962,5.8 8.64,7.92 1.77,5.535 -1.465,16.013 -2.88,20.16" />
          </g>
        </g>
      </g>
    </g>
  </g>
</svg>
