<?xml version="1.0" encoding="UTF-8" standalone="no"?>
<!-- Created with Inkscape (http://www.inkscape.org/) -->

<svg
   xmlns:dc="http://purl.org/dc/elements/1.1/"
   xmlns:cc="http://creativecommons.org/ns#"
   xmlns:rdf="http://www.w3.org/1999/02/22-rdf-syntax-ns#"
   xmlns:svg="http://www.w3.org/2000/svg"
   xmlns="http://www.w3.org/2000/svg"
   xmlns:sodipodi="http://sodipodi.sourceforge.net/DTD/sodipodi-0.dtd"
   xmlns:inkscape="http://www.inkscape.org/namespaces/inkscape"
   width="152.35165mm"
   height="152.35165mm"
   viewBox="0 0 152.35165 152.35166"
   version="1.1"
   id="svg8"
   inkscape:version="0.92.1 r15371"
   sodipodi:docname="logo-mobile.svg">
  <defs
     id="defs2">
    <clipPath
       id="clipPath37"
       clipPathUnits="userSpaceOnUse">
      <path
         inkscape:connector-curvature="0"
         id="path35"
         d="M 0,841.89 H 595.28 V 0 H 0 Z" />
    </clipPath>
    <clipPath
       id="clipPath49"
       clipPathUnits="userSpaceOnUse">
      <path
         inkscape:connector-curvature="0"
         id="path47"
         d="M 0,841.89 H 595.28 V 0 H 0 Z" />
    </clipPath>
    <clipPath
       id="clipPath117"
       clipPathUnits="userSpaceOnUse">
      <path
         inkscape:connector-curvature="0"
         id="path115"
         d="M 0,841.89 H 595.28 V 0 H 0 Z" />
    </clipPath>
    <clipPath
       id="clipPath149"
       clipPathUnits="userSpaceOnUse">
      <path
         inkscape:connector-curvature="0"
         id="path147"
         d="M 0,841.89 H 595.28 V 0 H 0 Z" />
    </clipPath>
    <clipPath
       id="clipPath165"
       clipPathUnits="userSpaceOnUse">
      <path
         inkscape:connector-curvature="0"
         id="path163"
         d="M 0,841.89 H 595.28 V 0 H 0 Z" />
    </clipPath>
    <clipPath
       id="clipPath181"
       clipPathUnits="userSpaceOnUse">
      <path
         inkscape:connector-curvature="0"
         id="path179"
         d="M 0,841.89 H 595.28 V 0 H 0 Z" />
    </clipPath>
    <clipPath
       id="clipPath117-8"
       clipPathUnits="userSpaceOnUse">
      <path
         inkscape:connector-curvature="0"
         id="path115-2"
         d="M 0,841.89 H 595.28 V 0 H 0 Z" />
    </clipPath>
  </defs>
  <sodipodi:namedview
     id="base"
     pagecolor="#ffffff"
     bordercolor="#666666"
     borderopacity="1.0"
     inkscape:pageopacity="0.0"
     inkscape:pageshadow="2"
     inkscape:zoom="0.7"
     inkscape:cx="192.86657"
     inkscape:cy="322.89568"
     inkscape:document-units="mm"
     inkscape:current-layer="layer2"
     showgrid="false"
     inkscape:window-width="1366"
     inkscape:window-height="705"
     inkscape:window-x="-8"
     inkscape:window-y="32"
     inkscape:window-maximized="1" />
  <metadata
     id="metadata5">
    <rdf:RDF>
      <cc:Work
         rdf:about="">
        <dc:format>image/svg+xml</dc:format>
        <dc:type
           rdf:resource="http://purl.org/dc/dcmitype/StillImage" />
        <dc:title />
      </cc:Work>
    </rdf:RDF>
  </metadata>
  <g
     inkscape:label="Livello 1"
     inkscape:groupmode="layer"
     id="layer1"
     transform="translate(-29.862381,-103.23981)">
    <g
       inkscape:groupmode="layer"
       id="layer3"
       inkscape:label="Sfondo 1"
       style="display:inline">
      <ellipse
         transform="matrix(-0.23638446,0.9716596,0.9716596,0.23638449,0,0)"
         style="fill:#387021;fill-opacity:1;stroke:none;stroke-width:0.24215722;stroke-opacity:1"
         id="circle4631"
         cx="149.26514"
         cy="145.44411"
         rx="69.261528"
         ry="69.261536" />
      <circle
         r="52.022472"
         cy="-74.651482"
         cx="-194.57962"
         id="circle4562"
         style="fill:#6f7021;fill-opacity:1;stroke:none;stroke-width:0.18188475;stroke-opacity:1"
         transform="rotate(-141.57351)" />
    </g>
    <g
       inkscape:groupmode="layer"
       id="layer2"
       inkscape:label="Sfondo"
       style="display:inline">
      <circle
         style="fill:#212121;fill-opacity:1;fill-rule:nonzero;stroke:#e5e5e5;stroke-width:1;stroke-miterlimit:4;stroke-dasharray:none;stroke-opacity:1"
         id="circle4576"
         cx="107.58317"
         cy="178.49352"
         r="75.675827"
         transform="rotate(0.49464674)" />
      <flowRoot
         xml:space="preserve"
         id="flowRoot4550"
         style="font-style:normal;font-weight:normal;font-size:40px;line-height:1.25;font-family:sans-serif;letter-spacing:0px;word-spacing:0px;fill:#000000;fill-opacity:1;stroke:none"><flowRegion
           id="flowRegion4552"><rect
             id="rect4554"
             width="300"
             height="68.571426"
             x="166.42857"
             y="65.609177" /></flowRegion><flowPara
           id="flowPara4556" /></flowRoot>      <ellipse
         style="opacity:0;fill:#ff2121;fill-opacity:1;fill-rule:nonzero;stroke:none;stroke-width:0.26458332;stroke-opacity:1"
         id="path4574"
         cx="91.40696"
         cy="160.0697"
         rx="28.97224"
         ry="27.654955" />
      <text
         xml:space="preserve"
         style="font-style:normal;font-weight:normal;font-size:10.58333302px;line-height:1.25;font-family:sans-serif;letter-spacing:0px;word-spacing:0px;fill:#000000;fill-opacity:1;stroke:none;stroke-width:0.26458332"
         x="112.14686"
         y="123.59486"
         id="text4583"><tspan
           sodipodi:role="line"
           id="tspan4581"
           x="112.14686"
           y="132.95862"
           style="stroke-width:0.26458332" /></text>
      <rect
         style="opacity:0;fill:#a87b21;fill-opacity:1;fill-rule:nonzero;stroke:none;stroke-width:0.26458332;stroke-opacity:1"
         id="rect4857"
         width="10.824416"
         height="18.575233"
         x="98.516106"
         y="199.0985" />
      <ellipse
         style="opacity:0;fill:#a87b21;fill-opacity:1;fill-rule:nonzero;stroke:none;stroke-width:0.26458332;stroke-opacity:1"
         id="path4859"
         cx="76.666824"
         cy="199.63304"
         rx="11.693042"
         ry="8.9535294" />
      <g
         transform="matrix(0.18428196,0,0,-0.18428196,53.484429,252.00076)"
         id="g113"
         clip-path="url(#clipPath117-8)"
         style="fill:#c52927;fill-opacity:1;display:inline;stroke:none;stroke-width:1.62582719;stroke-miterlimit:4;stroke-dasharray:none;stroke-opacity:1">
        <g
           id="g119"
           transform="translate(276.2012,587.8779)"
           style="fill:#c52927;fill-opacity:1">
          <path
             d="m 0,0 c 2.014,2.988 14.206,8.446 16.559,2.16 0.548,-1.465 0.498,-4.262 0.48,-6 -0.06,-6.308 -0.851,-13.113 -0.96,-20.16 -0.315,-20.658 -0.925,-44.256 -1.68,-63.6 -13.259,1.083 -21.424,7.386 -28.799,14.88 -4.159,4.225 -8.417,8.686 -10.801,13.44 -2.765,5.516 -4.941,12.412 -6.48,19.92 -0.829,4.046 -4.758,20.689 1.441,21.12 3.357,0.234 4.959,-3.69 8.16,-3.84 -8.13,8.431 -9.255,25.946 -13.201,39.36 -1.311,-22.049 -9.782,-36.938 -18.24,-51.84 0.959,-0.251 1.675,1.363 2.4,2.16 2.683,2.947 5.363,6.73 9.6,7.68 1.777,-11.867 2.142,-22.062 5.281,-31.2 6.037,-17.577 17.91,-29.902 31.92,-39.6 4.947,-3.425 10.605,-5.92 14.639,-9.36 2.419,-2.062 3.763,-3.817 4.08,-7.2 0.572,-6.078 0,-12.91 0,-19.44 -10e-4,-74.388 -1.44,-147.148 -1.44,-221.041 0,-3.863 -0.813,-8.373 -0.24,-10.798 0.41,-1.737 3.541,-3.329 5.281,-4.561 5.117,-3.627 9.715,-7.225 13.199,-11.76 0.713,-0.927 1.209,-2.881 1.92,-2.4 -1.529,31.564 -1.68,64.303 -1.68,96.961 0,58.707 -1.933,118.058 -0.48,176.159 4.766,6.48 12.535,9.524 18.961,14.16 12.709,9.171 23.549,19.808 29.76,35.28 4,9.963 5.027,21.674 6.959,34.8 4.332,-0.719 6.738,-4.806 9.121,-7.44 0.756,-0.837 2.201,-2.569 2.638,-2.16 -8.375,14.745 -17.007,29.231 -18,51.36 -3.361,-10.742 -4.695,-25.318 -9.359,-34.32 -0.35,-0.676 -1.226,-1.868 -1.92,-2.64 -0.598,-0.665 -2.383,-1.614 -1.439,-1.92 3.412,0.458 4.08,4.115 7.92,3.6 3.525,-0.472 3.281,-5.765 2.879,-9.84 -1.25,-12.707 -4.78,-23.527 -8.399,-31.92 -9.857,-12.543 -19.09,-25.711 -39.601,-27.6 -0.293,18.702 -1.68,43.695 -1.68,63.84 0,7.326 -0.973,14.297 -0.959,20.64 0.014,6.453 2.68,9.442 9.119,7.92 3.178,-0.751 5.912,-3.447 7.92,-4.08 C 33.756,13.836 27.523,31.845 22.319,50.88 18.006,30.953 10.021,13.419 0,0"
             style="fill:#c52927;fill-opacity:1;fill-rule:evenodd;stroke:none"
             id="path121"
             inkscape:connector-curvature="0" />
        </g>
      </g>
    </g>
    <g
       aria-label="C  L  U  B"
       style="font-style:normal;font-variant:normal;font-weight:normal;font-stretch:normal;font-size:22.92702866px;line-height:1.25;font-family:RickGriffin;-inkscape-font-specification:RickGriffin;letter-spacing:0px;word-spacing:0px;fill:#e5e5e5;fill-opacity:1;stroke:none;stroke-width:0.40000001;stroke-miterlimit:4;stroke-dasharray:none;stroke-opacity:1"
       id="text4617">
      <path
         d="m 77.753118,241.91113 q -0.351572,0.63037 -1.26742,0.59945 -0.777805,-0.0872 -1.55561,-0.17444 -0.357029,-0.17246 -0.441873,-0.83296 -0.06451,-0.64915 -0.471202,-0.87597 -1.748773,-0.97533 -2.189487,-1.14114 -1.188795,-0.44974 -2.143758,-0.0759 -0.10402,-0.005 -0.271392,0.009 -1.36202,-0.99956 -0.775762,-4.05837 0.145878,-0.69178 0.633542,-1.56616 1.497015,-2.68417 4.930539,-5.78124 0.09737,-0.079 0.165421,-0.201 0.283525,-0.50836 -0.251027,-1.36635 -0.08094,-0.28508 0.115757,-0.25535 1.828954,0.35355 3.065125,-1.86292 0.249502,-0.44736 0.363309,-0.89042 0.145482,-0.45206 -0.140757,-1.03825 -0.286239,-0.5862 -0.850912,-1.00777 l -0.01799,-0.0633 q 0.414527,-0.40864 0.798536,-0.14115 1.126602,1.13486 2.163666,1.71325 0.610037,0.34023 1.23611,0.55611 0.901763,0.34297 1.64085,0.59522 1.753865,0.63159 2.294301,0.66641 0.1967,0.0297 0.196303,0.26944 0.01994,0.25105 -0.150177,0.55607 -0.238161,0.42703 -0.64095,0.57562 -0.486475,0.15524 -0.97295,0.31048 -0.6472,0.25221 -0.760611,0.45556 -0.06805,0.12201 -3.96e-4,0.23971 0.178316,0.20609 0.503669,0.38755 0.589703,0.32889 1.378849,0.39578 0.156031,0.007 0.217034,0.0411 0.101673,0.0567 -0.396539,0.472 -0.724636,0.58226 -1.064867,1.1923 -0.147433,0.26435 -0.272581,0.72774 -0.100118,0.37072 -0.140787,0.34804 -0.260051,-0.0117 -0.397302,-0.43486 -0.105575,-0.43212 0.06454,-0.73714 0.07939,-0.14234 0.432513,-0.34529 0.364468,-0.22328 0.455196,-0.38596 0.147433,-0.26435 -0.09619,-0.64016 -0.07899,-0.0974 -0.241668,-0.1881 -0.22368,-0.12475 -0.861094,-0.32029 -0.61708,-0.1842 -0.861095,-0.3203 -0.44736,-0.2495 -0.231881,-0.63585 0.170115,-0.30502 0.984687,-0.57053 0.825913,-0.28584 0.950664,-0.50952 0.04536,-0.0813 0.05905,-0.15369 0.01878,-0.41608 -0.753934,-0.84704 -0.732045,-0.40827 -1.631857,-0.56354 -1.159863,-0.16701 -1.981874,0.49425 -0.378156,0.29563 -1.298334,1.5153 -0.508394,1.10277 0.491902,2.03389 0.139995,0.13139 0.07195,0.2534 -0.09073,0.16268 -0.339438,0.13061 -1.340923,-0.0814 -2.035835,0.30419 -0.909995,0.53221 -1.987392,2.46399 -1.45165,2.60283 -1.749261,3.42325 -0.4298,1.43985 -0.383674,2.26537 0.04338,1.11724 0.88335,1.90563 0.372668,0.28782 0.718356,0.48062 1.6471,0.91862 3.835064,0.24606 0.939323,-0.48919 1.200166,-0.95689 0.21548,-0.38635 0.03756,-0.83216 -0.238924,-0.47983 -0.236576,-0.53184 0.01369,-0.0723 -0.01994,-0.25106 -0.0063,-0.3234 0.175206,-0.64875 0.453641,-0.81338 1.469607,-1.15319 0.212736,-0.0946 0.203346,0.11341 -0.720734,0.95768 -0.816553,1.46409 -0.118502,0.54708 0.140756,1.03825 0.279593,0.50252 0.559186,1.00503 -1.112182,1.08593 -1.441072,1.67563 -0.408277,0.73205 -0.294104,1.43556 z"
         style="font-size:23.28333282px;fill:#e5e5e5;fill-opacity:1;stroke:none;stroke-width:0.40000001;stroke-miterlimit:4;stroke-dasharray:none;stroke-opacity:1"
         id="path4878"
         inkscape:connector-curvature="0" />
      <path
         d="m 101.39774,249.39367 q -0.0603,0.0849 -0.17536,0.067 -3.904996,-1.10227 -6.067621,-1.43867 -2.461711,-0.38293 -3.917265,-0.11452 -0.866072,0.26586 -2.344632,0.53069 -0.306244,-5.1e-4 -0.284771,-0.13855 0.0072,-0.046 0.106342,-0.0777 1.93767,-0.64112 2.872247,-3.77105 1.118118,-3.85541 1.442253,-6.09063 0.130881,-0.99286 0.05521,-2.32418 -0.0818,-0.83744 -1.141642,-1.14369 -0.518417,-0.15133 -0.457578,-0.54244 0.03221,-0.20706 0.414631,-0.24183 0.715251,-0.0537 1.351767,-0.66157 0.663102,-0.62731 0.759729,-1.24849 0.203991,-1.31138 0.213193,-1.52202 0.0051,-0.94174 -0.650834,-1.42079 -0.473937,-0.28579 -1.094094,0.0654 -0.132927,0.0971 -0.189166,-0.14725 -0.01738,-0.19121 0.321581,-0.704 0.09049,-0.1273 0.274546,-0.0987 0.311357,0.11912 0.63345,0.16922 0.575166,0.0895 1.761286,0.0383 1.189699,-0.0741 1.810879,0.0225 0.48314,0.0752 0.902372,0.25818 0.134461,0.0445 0.229556,0.34203 0.09509,0.29756 0.06646,0.48161 -0.02147,0.13804 -0.182519,0.11299 -0.780692,0.0199 -1.071087,0.069 -0.603797,0.0946 -0.898281,0.47291 -0.68662,0.92998 -0.83335,1.87326 -0.107363,0.6902 0.0542,1.46936 0.184566,0.78273 0.856871,1.00513 0.422812,0.16002 0.372709,0.48212 -0.03579,0.23006 -0.299598,0.25972 -1.062395,0.16462 -1.507701,0.75513 -0.275056,0.40491 -0.507166,1.5941 -0.304197,1.95557 -0.385997,3.23883 -0.146216,2.75773 0.121173,3.76542 0.48212,1.74799 2.450467,2.87889 0.320049,0.21473 1.033255,0.32567 0.713206,0.11094 0.991331,-0.0107 0.712183,-0.33693 1.00002,-0.97549 0.179452,-0.39622 0.344076,-1.45453 0.07004,-0.60175 -0.351237,-1.68051 -0.42997,-1.17436 -0.936117,-1.25309 -0.920266,-0.14315 -1.133972,-0.43559 -0.104297,-0.0869 0.03937,-0.25307 0.90646,-1.13142 2.196876,-2.15599 0.831308,-0.64827 1.954538,-1.20401 0.12935,-0.0741 0.19121,-0.0174 0.60124,0.37629 1.08336,1.06393 -0.0373,0.0884 -0.17894,0.09 -0.30215,-0.32976 -1.01536,-0.4407 -0.66719,-0.10378 -1.21833,0.25819 -0.31545,0.21013 -0.773021,0.72803 -0.47547,0.63294 -0.547045,1.09307 -0.05368,0.3451 0.08743,0.64981 0.271479,0.67844 0.989796,0.908 0.45297,0.11759 0.90595,0.23517 0.1043,0.0869 0.0297,0.26381 -0.0782,0.19991 -0.34101,0.67742 -0.22546,0.38907 -0.25767,0.59613 -0.025,0.16105 0.0455,0.3134 1.36609,2.42746 1.19789,3.50877 -0.0787,0.50615 -0.39981,0.90391 z"
         style="font-size:23.28333282px;fill:#e5e5e5;fill-opacity:1;stroke:none;stroke-width:0.40000001;stroke-miterlimit:4;stroke-dasharray:none;stroke-opacity:1"
         id="path4880"
         inkscape:connector-curvature="0" />
      <path
         d="m 121.3753,227.19499 q -0.10138,0.32848 -0.066,0.74868 -0.0232,0.12322 -0.13739,0.14573 -0.73101,0.14407 -0.95761,1.16171 -0.19409,0.82138 -0.014,1.73514 0.25662,1.3021 0.50657,1.72746 0.39085,0.65864 1.34963,0.70699 0.45204,0.006 0.55559,0.53125 0.054,0.27413 -0.19726,0.32365 -0.57109,0.11255 -0.73133,0.26279 -0.50807,0.43237 -0.41553,1.62442 l 0.31516,1.59908 q 0.29714,1.50769 1.10652,2.72459 0.0273,0.0183 0.83739,0.99779 0.56426,0.69566 0.6453,1.10685 0.25662,1.3021 -0.0118,2.58903 -0.36984,1.61542 -1.48919,1.83602 -0.22844,0.045 -0.75351,0.0299 -0.52508,-0.0152 -0.75352,0.0299 -0.75385,0.14857 -2.34425,0.62813 -1.56756,0.47506 -2.29856,0.61913 -0.63963,0.12606 -1.57324,-0.75785 -1.02914,-1.00746 -1.54488,-1.09567 l -0.018,-0.0914 q 0.87457,-0.86057 0.89707,-3.99753 0.0205,-2.42462 -0.35768,-4.34351 -0.19809,-1.00513 -0.59895,-1.35329 -0.40535,-0.37101 -1.48735,-0.44254 -0.19176,-0.01 -0.22327,-0.16957 -0.0675,-0.34266 0.32114,-0.53792 0.92827,-0.46772 1.12619,-1.02881 0.14257,-0.36034 0.003,-1.0685 -0.31515,-1.59907 -0.43771,-1.85969 -0.45805,-1.12002 -1.53171,-0.90842 -0.11422,0.0225 -0.56693,0.25412 l -0.0547,-0.0367 q 0.18441,-0.62963 0.28513,-0.72067 0.10071,-0.091 0.26062,-0.12256 0.96845,-0.1434 0.87707,-0.12539 0.43403,-0.0856 1.083,-0.28464 0.24228,-0.0952 0.97845,-0.45388 0.55793,-0.29981 0.99196,-0.38535 0.0914,-0.018 0.11839,0.11906 0.10805,0.54825 -0.12039,0.59327 -1.00513,0.1981 -1.20405,1.11536 -0.13873,0.62062 0.11339,1.89988 0.23411,1.18788 0.65297,1.62742 0.29598,0.29763 0.83456,0.38134 0.55692,0.0564 0.721,0.16641 0.16408,0.11005 0.2046,0.31564 0.0675,0.34266 -0.2066,0.39669 -0.91376,0.18008 -1.076,1.04265 -0.037,0.17341 -0.038,0.52958 -0.008,1.16437 0.26229,2.53501 0.57178,2.90117 1.12504,4.26347 1.16121,2.76128 2.92019,2.41461 l 0.45688,-0.09 q 1.69045,-0.33316 1.6666,-3.22367 -0.0102,-1.25575 -0.51892,-3.83711 -0.50874,-2.58136 -1.16822,-3.51929 -0.20009,-0.29281 -0.58811,-0.33499 -0.36967,-0.0695 -0.62095,-0.02 -0.32882,0.0173 -0.38285,-0.25678 -0.0585,-0.29697 0.20727,-0.63413 0.23327,-0.1409 0.75935,-0.48189 0.4392,-0.30014 0.37783,-1.21357 -0.0402,-0.32431 -0.26979,-1.48935 -0.31065,-1.57623 -1.09051,-1.92089 -0.2873,-0.13323 -0.95945,0.18909 -0.073,-0.009 -0.0865,-0.0779 0.002,-0.71233 0.34466,-0.77986 1.23357,-0.24312 2.04278,-0.59245 0.96461,-0.40369 1.70112,-0.88108 0.10521,-0.0682 0.16441,-0.009 0.082,0.055 0.0817,0.17375 z"
         style="font-size:23.28333282px;fill:#e5e5e5;fill-opacity:1;stroke:none;stroke-width:0.40000001;stroke-miterlimit:4;stroke-dasharray:none;stroke-opacity:1"
         id="path4882"
         inkscape:connector-curvature="0" />
      <path
         d="m 146.23127,233.74263 q 0.34054,0.20175 0.54607,0.54002 0.5078,0.83572 0.0204,1.51328 -0.008,0.032 -0.47453,0.83321 -0.26497,0.46069 -0.56344,0.64204 -0.19898,0.12091 -0.46623,0.17431 -0.403,0.0542 -0.90424,-0.32239 -0.26875,-0.21812 -0.73069,0.008 -1.15486,0.56548 -2.09007,1.13372 -3.42248,2.07955 -4.27455,4.66785 -0.071,0.15213 -0.17052,0.21258 -0.15918,0.0967 -0.23173,-0.0227 -0.0605,-0.0995 -0.0136,-0.29142 0.64805,-2.65505 -0.94462,-6.12817 -1.61029,-3.05374 -3.24048,-6.09539 -0.23828,-0.48184 -0.77276,-0.37503 -0.22316,0.0811 -0.44633,0.16221 -0.34683,0.10176 -0.41937,-0.0176 -0.0242,-0.0398 -0.069,-0.20326 -0.0569,-0.18337 0.37856,-0.85664 0.30048,-0.53675 -0.15895,-1.29288 -0.2539,-0.41786 -0.736,-0.94227 -0.71458,-0.68283 -1.14328,-0.93999 -0.74934,-0.471 -1.4075,-0.34354 -0.60198,0.17506 -0.76469,0.35566 0.0277,-0.0441 -0.10025,-0.0753 0.0516,-0.76697 0.3103,-0.92414 0.0796,-0.0484 0.20327,-0.069 0.93748,-0.16096 1.21253,-0.24635 0.38663,-0.12595 1.02337,-0.51284 0.63674,-0.38689 1.96412,-1.52035 1.32738,-1.13347 2.02382,-1.55663 0.95511,-0.58034 1.7455,-0.62468 0.38739,0.01 0.47706,0.33676 1.12971,2.80086 0.8786,4.31565 -0.0348,0.21183 -0.0887,0.57151 -0.0227,0.23173 0.0499,0.35112 0.16927,0.27857 0.56723,0.0368 0.23878,-0.14508 0.67578,-0.54683 0.44481,-0.43374 0.70349,-0.59091 0.37806,-0.22972 0.74555,-0.20781 0.36749,0.0219 0.44432,0.19318 0.98739,2.34245 2.07552,4.13328 1.94655,3.20361 4.16611,4.52493 z m -9.95784,-9.12464 q -0.0584,-0.45489 -0.38488,-0.99214 -0.56824,-0.93521 -1.22363,-1.02739 -0.8992,-0.13474 -1.95381,0.50605 -0.57704,0.35062 -1.07727,0.87251 -0.7332,0.99039 0.23403,2.58225 0.1209,0.19898 0.35843,0.54506 0.22543,0.32617 0.32216,0.48536 0.30226,0.49745 1.02867,0.4375 0.60274,-0.0393 1.19969,-0.40201 0.67653,-0.41108 1.11907,-1.2521 0.45035,-0.87301 0.37754,-1.75509 z m 6.26404,7.6638 q -0.77883,-1.46113 -1.27453,-2.27696 -1.41457,-2.32808 -2.59186,-2.92048 -1.04428,-0.37352 -2.57644,0.55743 -0.97501,0.59243 -1.36566,1.42917 -0.48082,1.13673 0.1907,2.6903 0.21058,0.52592 1.58888,2.79431 0.99141,1.63165 1.56167,2.21146 0.96772,0.96493 2.3062,1.10521 0.63901,0.0204 1.47474,-0.4874 0.77602,-0.47152 1.19237,-0.99695 0.61381,-0.91784 0.30777,-2.09411 -0.0819,-0.35892 -0.81384,-2.01198 z"
         style="font-size:23.28333282px;fill:#e5e5e5;fill-opacity:1;stroke:none;stroke-width:0.40000001;stroke-miterlimit:4;stroke-dasharray:none;stroke-opacity:1"
         id="path4884"
         inkscape:connector-curvature="0" />
    </g>
    <path
       style="opacity:0;fill:#000000;fill-opacity:1;fill-rule:nonzero;stroke:none;stroke-width:0.17857143;stroke-opacity:1"
       d="m 139.63996,233.15266 c -1.50838,-1.09267 -1.55179,-1.21555 -1.4287,-4.04413 0.38209,-8.78024 3.31789,-17.96714 8.24254,-25.79307 6.01332,-9.55599 15.62219,-19.84122 25.62156,-27.42504 3.68622,-2.79574 8.88563,-6.12138 11.85712,-7.58402 5.37672,-2.64656 9.32015,-3.35234 13.27681,-2.37622 0.61384,0.15144 1.1148,0.32584 1.11325,0.38756 -0.002,0.0617 -1.18683,0.58348 -2.63393,1.15947 -3.39147,1.3499 -8.7234,3.93181 -11.98977,5.80589 -14.13269,8.10862 -25.04135,19.11533 -33.42861,33.72907 -4.87606,8.49592 -8.13822,16.87226 -9.49486,24.3802 l -0.41268,2.28383 z"
       id="path4566"
       inkscape:connector-curvature="0"
       transform="matrix(0.26458333,0,0,0.26458333,30.362381,103.73981)" />
    <g
       id="g5629"
       style="fill:#c52927;fill-opacity:1">
      <path
         inkscape:connector-curvature="0"
         id="path5050"
         d="m 74.476588,78.699585 -0.212612,12.319662 1.771764,-1.464657 2.031622,1.984375 -0.165365,-13.300038 -1.984375,1.677268 z"
         style="fill:#212121;stroke:none;stroke-width:0.26458332px;stroke-linecap:butt;stroke-linejoin:miter;stroke-opacity:1;fill-opacity:1"
         transform="translate(32.374817,98.497253)" />
      <g
         transform="translate(32.374817,98.497253)"
         id="g5048"
         style="display:inline;fill:#c52927;fill-opacity:1">
        <g
           id="g4802"
           transform="translate(0,7.7896077)"
           style="fill:#c52927;fill-opacity:1">
          <g
             transform="translate(3.881566e-7,-1.4633333e-6)"
             style="fill:#c52927;fill-opacity:1"
             id="g4843">
            <g
               transform="matrix(0.2460286,0,0,-0.2460286,0.642395,186.42489)"
               inkscape:label="PATCH logo+scritte BIANCO"
               id="g29"
               style="fill:#c52927;fill-opacity:1;stroke:none;stroke-width:1.62582719;stroke-miterlimit:4;stroke-dasharray:none;stroke-opacity:1">
              <g
                 id="g31"
                 style="fill:#c52927;fill-opacity:1;stroke:none;stroke-width:1.62582719;stroke-miterlimit:4;stroke-dasharray:none;stroke-opacity:1" />
              <g
                 id="g43"
                 style="fill:#c52927;fill-opacity:1;stroke:none;stroke-width:1.62582719;stroke-miterlimit:4;stroke-dasharray:none;stroke-opacity:1" />
              <g
                 transform="translate(297.6399,574.7553)"
                 id="g127"
                 style="fill:#c52927;fill-opacity:1;stroke:none;stroke-width:1.62582719;stroke-miterlimit:4;stroke-dasharray:none;stroke-opacity:1">
                <path
                   inkscape:connector-curvature="0"
                   id="path129"
                   style="fill:#c52927;fill-opacity:1;fill-rule:nonzero;stroke:none;stroke-width:1.62582719;stroke-miterlimit:4;stroke-dasharray:none;stroke-opacity:1"
                   d="M 0,0 H 0.001 Z" />
              </g>
              <g
                 transform="translate(297.6406,574.7554)"
                 id="g131"
                 style="fill:#c52927;fill-opacity:1;stroke:none;stroke-width:1.62582719;stroke-miterlimit:4;stroke-dasharray:none;stroke-opacity:1">
                <path
                   inkscape:connector-curvature="0"
                   id="path133"
                   style="fill:#c52927;fill-opacity:1;stroke:none;stroke-width:1.62582719;stroke-linecap:butt;stroke-linejoin:miter;stroke-miterlimit:4;stroke-dasharray:none;stroke-opacity:1"
                   d="M 0,0 H -0.001 Z" />
              </g>
              <g
                 transform="translate(297.6399,574.7553)"
                 id="g135"
                 style="fill:#c52927;fill-opacity:1;stroke:none;stroke-width:1.62582719;stroke-miterlimit:4;stroke-dasharray:none;stroke-opacity:1">
                <path
                   inkscape:connector-curvature="0"
                   id="path137"
                   style="fill:#c52927;fill-opacity:1;fill-rule:nonzero;stroke:none;stroke-width:1.62582719;stroke-miterlimit:4;stroke-dasharray:none;stroke-opacity:1"
                   d="M 0,0 H 0.001 Z" />
              </g>
              <g
                 id="g143"
                 style="fill:#c52927;fill-opacity:1;stroke:none;stroke-width:1.62582719;stroke-miterlimit:4;stroke-dasharray:none;stroke-opacity:1">
                <g
                   clip-path="url(#clipPath149)"
                   id="g145"
                   style="fill:#c52927;fill-opacity:1;stroke:none;stroke-width:1.62582719;stroke-miterlimit:4;stroke-dasharray:none;stroke-opacity:1">
                  <g
                     transform="translate(297.6401,574.7554)"
                     id="g151"
                     style="fill:#c52927;fill-opacity:1;stroke:none;stroke-width:1.62582719;stroke-miterlimit:4;stroke-dasharray:none;stroke-opacity:1">
                    <path
                       inkscape:connector-curvature="0"
                       id="path153"
                       style="fill:#c52927;fill-opacity:1;fill-rule:nonzero;stroke:none;stroke-width:1.62582719;stroke-miterlimit:4;stroke-dasharray:none;stroke-opacity:1"
                       d="M 0,0 V 0" />
                  </g>
                </g>
              </g>
              <g
                 transform="translate(297.6401,574.7554)"
                 id="g155"
                 style="fill:#c52927;fill-opacity:1;stroke:none;stroke-width:1.62582719;stroke-miterlimit:4;stroke-dasharray:none;stroke-opacity:1">
                <path
                   inkscape:connector-curvature="0"
                   id="path157"
                   style="fill:#c52927;fill-opacity:1;stroke:none;stroke-width:1.62582719;stroke-linecap:butt;stroke-linejoin:miter;stroke-miterlimit:4;stroke-dasharray:none;stroke-opacity:1"
                   d="M 0,0 V 0" />
              </g>
              <g
                 id="g159"
                 style="fill:#c52927;fill-opacity:1;stroke:none;stroke-width:1.62582719;stroke-miterlimit:4;stroke-dasharray:none;stroke-opacity:1">
                <g
                   clip-path="url(#clipPath165)"
                   id="g161"
                   style="fill:#c52927;fill-opacity:1;stroke:none;stroke-width:1.62582719;stroke-miterlimit:4;stroke-dasharray:none;stroke-opacity:1">
                  <g
                     transform="translate(297.6401,574.7554)"
                     id="g167"
                     style="fill:#c52927;fill-opacity:1;stroke:none;stroke-width:1.62582719;stroke-miterlimit:4;stroke-dasharray:none;stroke-opacity:1">
                    <path
                       inkscape:connector-curvature="0"
                       id="path169"
                       style="fill:#c52927;fill-opacity:1;fill-rule:nonzero;stroke:none;stroke-width:1.62582719;stroke-miterlimit:4;stroke-dasharray:none;stroke-opacity:1"
                       d="M 0,0 V 0" />
                  </g>
                </g>
              </g>
              <g
                 transform="translate(297.6401,574.7554)"
                 id="g171"
                 style="fill:#c52927;fill-opacity:1;stroke:none;stroke-width:1.62582719;stroke-miterlimit:4;stroke-dasharray:none;stroke-opacity:1">
                <path
                   inkscape:connector-curvature="0"
                   id="path173"
                   style="fill:#c52927;fill-opacity:1;stroke:none;stroke-width:1.62582719;stroke-linecap:butt;stroke-linejoin:miter;stroke-miterlimit:4;stroke-dasharray:none;stroke-opacity:1"
                   d="M 0,0 V 0" />
              </g>
              <g
                 id="g175"
                 transform="translate(7.3384742,56.726462)"
                 style="fill:#c52927;fill-opacity:1;fill-rule:nonzero;stroke:none;stroke-width:1.62582719;stroke-miterlimit:4;stroke-dasharray:none;stroke-opacity:1">
                <g
                   clip-path="url(#clipPath181)"
                   id="g177"
                   style="fill:#c52927;fill-opacity:1;fill-rule:nonzero;stroke:none;stroke-width:1.62582719;stroke-miterlimit:4;stroke-dasharray:none;stroke-opacity:1">
                  <g
                     transform="translate(203.6587,522.1245)"
                     id="g183"
                     style="fill:#c52927;fill-opacity:1;fill-rule:nonzero;stroke:none;stroke-width:1.62582719;stroke-miterlimit:4;stroke-dasharray:none;stroke-opacity:1" />
                  <g
                     transform="translate(231.7378,459.0044)"
                     id="g231"
                     style="fill:#c52927;fill-opacity:1;fill-rule:nonzero;stroke:none;stroke-width:1.62582719;stroke-miterlimit:4;stroke-dasharray:none;stroke-opacity:1" />
                  <g
                     transform="translate(234.6187,437.8843)"
                     id="g247"
                     style="fill:#c52927;fill-opacity:1;fill-rule:nonzero;stroke:none;stroke-width:1.62582719;stroke-miterlimit:4;stroke-dasharray:none;stroke-opacity:1" />
                  <g
                     transform="translate(365.1777,294.6035)"
                     id="g271"
                     style="fill:#c52927;fill-opacity:1;fill-rule:nonzero;stroke:none;stroke-width:1.62582719;stroke-miterlimit:4;stroke-dasharray:none;stroke-opacity:1" />
                  <g
                     transform="translate(171.2583,335.4043)"
                     id="g279"
                     style="fill:#c52927;fill-opacity:1;fill-rule:nonzero;stroke:none;stroke-width:1.62582719;stroke-miterlimit:4;stroke-dasharray:none;stroke-opacity:1" />
                  <g
                     transform="translate(233.1782,339.2441)"
                     id="g287"
                     style="fill:#c52927;fill-opacity:1;fill-rule:nonzero;stroke:none;stroke-width:1.62582719;stroke-miterlimit:4;stroke-dasharray:none;stroke-opacity:1" />
                  <g
                     transform="translate(229.1782,474.6045)"
                     id="g291"
                     style="fill:#c52927;fill-opacity:1;fill-rule:nonzero;stroke:none;stroke-width:1.62582719;stroke-miterlimit:4;stroke-dasharray:none;stroke-opacity:1">
                    <path
                       inkscape:connector-curvature="0"
                       id="path293"
                       style="fill:#c52927;fill-opacity:1;fill-rule:nonzero;stroke:none;stroke-width:1.62582719;stroke-miterlimit:4;stroke-dasharray:none;stroke-opacity:1"
                       d="m 0,0 c 3.396,3.226 9.544,5.235 12.72,8.64 6.453,6.917 -8.343,12.963 -10.8,16.8 -6.742,4.763 -16.151,0.697 -20.399,-4.32 C -7.866,20.553 0.962,11.414 0,0" />
                  </g>
                  <g
                     transform="translate(366.2178,472.9243)"
                     id="g295"
                     style="fill:#c52927;fill-opacity:1;fill-rule:nonzero;stroke:none;stroke-width:1.62582719;stroke-miterlimit:4;stroke-dasharray:none;stroke-opacity:1">
                    <path
                       inkscape:connector-curvature="0"
                       id="path297"
                       style="fill:#c52927;fill-opacity:1;fill-rule:nonzero;stroke:none;stroke-width:1.62582719;stroke-miterlimit:4;stroke-dasharray:none;stroke-opacity:1"
                       d="M 0,0 C -0.758,11.345 7.059,20.44 18.479,21.12 15.451,24.118 11.062,27.586 6,27.84 -0.587,28.17 -11.391,18.537 -13.44,15.6 -14.186,14.532 -14.256,13.196 -14.641,12.24 -11.694,6.226 -4.849,4.112 0,0" />
                  </g>
                  <g
                     transform="translate(198.6987,485.1646)"
                     id="g299"
                     style="fill:#c52927;fill-opacity:1;fill-rule:nonzero;stroke:none;stroke-width:1.62582719;stroke-miterlimit:4;stroke-dasharray:none;stroke-opacity:1">
                    <path
                       inkscape:connector-curvature="0"
                       id="path301"
                       style="fill:#c52927;fill-opacity:1;fill-rule:nonzero;stroke:none;stroke-width:1.62582719;stroke-miterlimit:4;stroke-dasharray:none;stroke-opacity:1"
                       d="m 0,0 c -1.043,-8.379 8.299,-15.188 15.119,-15.36 5.318,-0.135 10.942,3.471 11.28,9.12 C 26.86,1.435 16.486,9.376 8.639,7.68 3.875,6.649 0.43,3.458 0,0" />
                  </g>
                  <g
                     transform="translate(370.2979,477.2441)"
                     id="g303"
                     style="fill:#c52927;fill-opacity:1;fill-rule:nonzero;stroke:none;stroke-width:1.62582719;stroke-miterlimit:4;stroke-dasharray:none;stroke-opacity:1">
                    <path
                       inkscape:connector-curvature="0"
                       id="path305"
                       style="fill:#c52927;fill-opacity:1;fill-rule:nonzero;stroke:none;stroke-width:1.62582719;stroke-miterlimit:4;stroke-dasharray:none;stroke-opacity:1"
                       d="m 0,0 c 0.705,-10.339 15.189,-10.932 21.84,-4.56 7.242,6.938 4.973,19.239 -7.2,18.72 C 8.153,13.884 -0.485,7.121 0,0" />
                  </g>
                  <g
                     transform="translate(194.6187,483.4844)"
                     id="g307"
                     style="fill:#c52927;fill-opacity:1;fill-rule:nonzero;stroke:none;stroke-width:1.62582719;stroke-miterlimit:4;stroke-dasharray:none;stroke-opacity:1">
                    <path
                       inkscape:connector-curvature="0"
                       id="path309"
                       style="fill:#c52927;fill-opacity:1;fill-rule:nonzero;stroke:none;stroke-width:1.62582719;stroke-miterlimit:4;stroke-dasharray:none;stroke-opacity:1"
                       d="m 0,0 c -0.002,0.03 -0.566,0.294 -0.721,0.24 -5.93,-4.309 -10.323,-10.157 -14.16,-16.56 4.453,-5.024 11.219,-11.116 18,-13.68 11.447,-4.329 19.211,7.404 23.76,14.64 C 13.551,-21.126 0.677,-11.983 0,0" />
                  </g>
                  <g
                     transform="translate(373.8975,466.4443)"
                     id="g311"
                     style="fill:#c52927;fill-opacity:1;fill-rule:nonzero;stroke:none;stroke-width:1.62582719;stroke-miterlimit:4;stroke-dasharray:none;stroke-opacity:1">
                    <path
                       inkscape:connector-curvature="0"
                       id="path313"
                       style="fill:#c52927;fill-opacity:1;fill-rule:nonzero;stroke:none;stroke-width:1.62582719;stroke-miterlimit:4;stroke-dasharray:none;stroke-opacity:1"
                       d="m 0,0 c 4.548,-7.316 9.792,-15.136 20.4,-15.6 8.643,3.357 15.97,8.03 21.36,14.64 C 37.699,5.379 33.754,11.833 27.12,15.6 26.704,3.252 12.805,-5.335 0,0" />
                  </g>
                  <g
                     transform="translate(208.2983,422.0444)"
                     id="g315"
                     style="fill:#c52927;fill-opacity:1;fill-rule:nonzero;stroke:none;stroke-width:1.62582719;stroke-miterlimit:4;stroke-dasharray:none;stroke-opacity:1">
                    <path
                       inkscape:connector-curvature="0"
                       id="path317"
                       style="fill:#c52927;fill-opacity:1;fill-rule:nonzero;stroke:none;stroke-width:1.62582719;stroke-miterlimit:4;stroke-dasharray:none;stroke-opacity:1"
                       d="m 0,0 c -12.202,10.198 -24.131,20.67 -36.961,30.24 -3.111,-5.208 -7.004,-14.271 -5.76,-19.2 12.063,-10.657 24.93,-20.51 38.16,-30 C -5.484,-11.16 0.388,-7.263 0,0" />
                  </g>
                  <g
                     transform="translate(387.0977,420.3652)"
                     id="g319"
                     style="fill:#c52927;fill-opacity:1;fill-rule:nonzero;stroke:none;stroke-width:1.62582719;stroke-miterlimit:4;stroke-dasharray:none;stroke-opacity:1">
                    <path
                       inkscape:connector-curvature="0"
                       id="path321"
                       style="fill:#c52927;fill-opacity:1;fill-rule:nonzero;stroke:none;stroke-width:1.62582719;stroke-miterlimit:4;stroke-dasharray:none;stroke-opacity:1"
                       d="m 0,0 c -0.256,-7.129 5.178,-11.459 4.8,-18.721 8.413,6.086 19.736,14.547 28.8,22.08 2.291,1.904 8.473,5.822 9.12,8.16 1.787,6.458 -4.425,15.099 -5.76,18.72 C 24.036,20.763 12.1,10.299 0,0" />
                  </g>
                  <g
                     transform="translate(362.1377,340.9238)"
                     id="g323"
                     style="fill:#c52927;fill-opacity:1;fill-rule:nonzero;stroke:none;stroke-width:1.62582719;stroke-miterlimit:4;stroke-dasharray:none;stroke-opacity:1">
                    <path
                       inkscape:connector-curvature="0"
                       id="path325"
                       style="fill:#c52927;fill-opacity:1;fill-rule:nonzero;stroke:none;stroke-width:1.62582719;stroke-miterlimit:4;stroke-dasharray:none;stroke-opacity:1"
                       d="M 0,0 C 14.061,3.057 28.604,-3.533 37.439,-12 43.69,-17.988 50.018,-26.197 48.72,-37.199 24.743,-48.215 -4.346,-26.688 0,0 m 43.92,-42 c 9.577,1.904 21.338,11.471 21.84,22.561 C 66.422,-4.822 55.88,5.342 47.52,10.801 41.205,14.924 30.673,18.146 21.6,17.76 6.506,17.117 -6.049,5.436 -3.12,-10.559 0.256,-28.998 21.939,-46.367 43.92,-42" />
                  </g>
                  <g
                     transform="translate(203.4976,299.1641)"
                     id="g327"
                     style="fill:#c52927;fill-opacity:1;fill-rule:nonzero;stroke:none;stroke-width:1.62582719;stroke-miterlimit:4;stroke-dasharray:none;stroke-opacity:1">
                    <path
                       inkscape:connector-curvature="0"
                       id="path329"
                       style="fill:#c52927;fill-opacity:1;fill-rule:nonzero;stroke:none;stroke-width:1.62582719;stroke-miterlimit:4;stroke-dasharray:none;stroke-opacity:1"
                       d="m 0,0 c -7.222,-1.449 -14.099,0.551 -18.959,2.881 -1.604,10.203 4.928,19.312 11.039,25.199 9.011,8.68 22.578,14.881 37.681,12 C 32.688,19.951 17.579,3.527 0,0 m 32.881,29.76 c 1.843,10.068 -4.033,19.992 -9.36,23.519 -3.922,2.598 -11.539,5.116 -18,4.561 C -12.729,56.277 -25.754,47.932 -32.16,36.24 -44.852,13.074 -20.811,-8.818 4.08,-0.959 16.408,2.932 30.154,14.869 32.881,29.76" />
                  </g>
                  <g
                     transform="translate(454.0576,448.2041)"
                     id="g331"
                     style="fill:#c52927;fill-opacity:1;fill-rule:nonzero;stroke:none;stroke-width:1.62582719;stroke-miterlimit:4;stroke-dasharray:none;stroke-opacity:1">
                    <path
                       inkscape:connector-curvature="0"
                       id="path333"
                       style="fill:#c52927;fill-opacity:1;fill-rule:nonzero;stroke:none;stroke-width:1.62582719;stroke-miterlimit:4;stroke-dasharray:none;stroke-opacity:1"
                       d="M 0,0 C -0.616,9.224 -4.341,15.339 -7.2,22.32 -18.983,45.497 -36.259,63.181 -62.4,72 c 6.163,3.765 15.984,-1.343 21.36,-4.8 C -23.135,55.687 -1.756,35.598 2.4,11.04 2.943,7.828 2.702,4.375 2.88,2.16 1.919,1.441 1.655,0.024 0,0 m -5.28,-4.56 c -3.042,18.364 -14.425,33.872 -24.48,45.6 -10.319,12.038 -23.979,20.216 -39.12,26.16 -0.099,1.421 2.409,2.199 3.6,3.12 27.261,-6.454 44.785,-27.888 56.88,-50.16 2.68,-4.934 5.629,-10.847 6.24,-16.32 0.488,-4.369 -0.258,-7.915 -3.12,-8.4 m -6.48,-5.52 c -0.983,16.627 -10.825,26.448 -17.761,37.92 -12.301,14.658 -26.816,27.103 -45.839,35.04 0.546,1.774 2.674,1.966 3.839,3.12 25.032,-7.843 41.148,-26 54.481,-46.56 4.772,-7.358 9.664,-16.567 9.36,-26.4 -1.264,-1.136 -2.562,-2.238 -4.08,-3.12 m -5.04,-4.08 c -8.608,37.072 -32.252,59.11 -64.32,72.72 0.542,1.778 2.662,1.978 3.84,3.12 22.059,-9.1 39.089,-24.282 51.6,-43.44 5.026,-7.696 10.692,-16.814 11.52,-26.4 0.222,-2.569 0.18,-5.223 -2.64,-6 m -9.6,-8.639 c -9.871,-8.095 -18.976,-15.55 -29.28,-23.52 -3.884,-3.006 -8.144,-7.942 -12,-8.881 -6.907,-1.682 -15.708,2.312 -20.16,4.32 -5.418,2.443 -11.001,5.893 -13.44,11.041 2.346,1.012 5.134,-2.422 7.44,-4.08 2.592,-1.865 5.09,-3.617 7.68,-5.041 3.636,-1.58 18.685,-7.967 18.96,0.961 0.181,5.895 -7.813,10.504 -8.16,15.84 -0.353,5.42 4.12,10.527 4.08,16.559 -0.07,10.602 -10.986,20.676 -18.241,26.64 -4.111,3.381 -8.278,6.587 -12.239,10.08 -4.708,4.151 -10.983,7.547 -18.72,7.2 2.945,2.896 6.463,5.217 9.84,7.68 0.659,-0.518 -0.239,-1.102 0.24,-1.68 4.689,-8.179 15.139,-10.588 21.84,-17.28 5.413,-5.405 8.622,-11.059 14.4,-16.32 16.508,-11.265 32.266,5.796 42.24,13.2 3.956,-7.367 9.929,-15.86 11.04,-25.68 0.734,-6.482 -1.136,-7.445 -5.52,-11.039 m -114,-42.481 c -8.889,-7.114 -19.829,-15.701 -29.039,-24.481 -9.316,-8.877 -18.807,-18.115 -21.601,-31.679 -0.78,-3.788 -0.364,-7.77 -1.44,-10.799 -1.228,-3.463 -4.953,-5.678 -6.24,-8.641 -1.209,-2.783 -0.768,-4.791 -2.639,-6.959 -2.084,-2.416 -5.369,-3.93 -8.641,-7.201 -2.681,-2.682 -4.687,-6.342 -7.919,-7.68 -1.732,-0.717 -3.751,-0.652 -5.52,-1.199 -8.228,-2.551 -14.029,-10.398 -20.641,-14.16 -1.82,-1.037 -5.777,-2.897 -8.16,0.24 7.3,5.047 13.516,11.045 21.6,16.078 2.677,1.668 6.023,2.957 6.48,6 0.202,1.342 -0.504,2.846 -0.24,4.08 0.617,2.895 4.883,5.145 6.721,6.481 2.756,2.002 5.32,3.527 8.16,4.801 0.908,-0.452 -0.027,-2.748 1.199,-2.881 4.924,4.851 4.974,14.084 6.721,21.121 1.791,7.217 4.055,14.431 7.68,19.92 6.096,9.232 16.566,16.875 25.439,24.24 9.443,7.838 18.328,13.83 27.84,21.6 13.489,11.015 27.88,21.127 42.24,32.159 4.687,3.602 10.976,8.468 16.08,10.08 5.028,-4.823 -0.411,-7.363 -5.04,-10.799 -17.678,-13.128 -35.887,-26.593 -53.04,-40.321 m 36.48,-12.481 c 1.548,-5.008 -2.529,-7.049 -6.72,-6.238 -9.355,1.807 -19.653,12.924 -27.12,16.318 2.136,2.346 4.897,4.065 7.44,6 8.351,-5.808 16.221,-12.097 26.4,-16.08 m 6,-2.398 c 2.482,-7.205 -4.195,-11.289 -10.8,-10.801 -6.519,0.482 -12.019,5.523 -17.52,9.121 -6.065,3.965 -11.248,8.018 -15.6,10.799 0.515,1.164 1.644,1.717 2.64,2.4 3.867,-2.316 8.527,-5.816 13.44,-9.121 6.432,-4.324 12.173,-10.062 21.84,-7.439 0.856,1.763 2.402,3.918 1.68,6.48 1.741,-0.179 2.868,-0.972 4.32,-1.439 m 22.8,-4.08 c 18.714,1.826 36.985,-9.983 45.84,-20.16 5.059,-5.817 9.968,-15.922 8.64,-25.92 -2.415,-18.172 -20.633,-27.137 -42.24,-27.362 3.39,-3.408 10.248,-3.351 13.92,-6.478 -4.96,-12.996 -18.765,3.441 -24,6.959 1.134,0.547 3.378,-0.018 4.56,0.48 -1.473,3.076 -4.775,3.352 -7.68,5.039 -10.209,5.938 -22.276,17.438 -24.96,29.762 -4.333,19.9 7.474,35.879 25.92,37.68 m -1.68,-85.92 c -3.319,2.58 -7.672,6.258 -11.76,7.68 -3.719,1.292 -6.602,0.88 -9.12,3.119 -4.662,4.144 -7.883,10.603 -13.44,12.72 -1.857,1.803 -1.839,4.424 -2.64,6.721 -1.462,4.188 -5.552,5.934 -6.72,9.84 -1.001,3.348 -0.552,6.627 -1.2,9.84 -3.877,19.226 -19.346,29.506 -31.2,41.039 2.189,1.572 4.331,3.189 6.24,5.041 0.204,0.043 0.226,-0.094 0.24,-0.24 9.102,-8.868 20.276,-15.164 27.6,-25.92 5.413,-7.952 8.211,-20.362 10.08,-31.68 0.566,-3.426 0.95,-7.904 4.32,-9.602 1.252,0.11 0.347,2.373 1.2,2.881 5.205,-4.281 15.609,-5.767 14.4,-14.881 2.401,-5.72 10.397,-8.951 15.36,-12.718 4.638,-3.522 8.747,-6.785 12.96,-9.84 -5.725,-4.684 -11.856,2.527 -16.32,6 m -186.959,4.08 c 3.246,3.633 10.427,3.33 13.92,6.719 -4.596,1.443 -8.092,0.588 -12.961,1.201 -16.637,2.09 -31.274,14.91 -29.52,33.119 0.68,7.057 4.787,14.109 8.641,18.721 9.4,11.252 31.849,25.324 52.559,19.439 11.483,-3.262 21.47,-14.998 20.161,-30.721 -1.719,-20.638 -19.773,-31.904 -33.361,-40.318 0.788,-0.973 2.867,-0.654 4.561,-0.721 -5.585,-4.011 -18.186,-19.588 -24,-7.439 m 48.96,84.24 c 1.268,0.57 2.421,1.258 4.079,1.44 -0.293,-2.774 0.998,-3.963 1.44,-6 9.532,-3.799 16.491,3.179 23.28,7.92 24.15,16.857 47.129,33.949 69.6,52.079 4.488,3.621 9.312,7.015 13.68,10.8 4.735,4.102 9.48,8.031 13.92,11.76 0.809,-0.071 0.696,-1.064 1.44,-1.2 -7.05,-9.146 -16.922,-16.482 -26.88,-23.52 -9.394,-6.64 -18.596,-14.439 -28.08,-22.08 -13.65,-10.998 -28.006,-21.97 -43.199,-32.16 -5.127,-3.437 -11.369,-8.791 -17.761,-9.599 -6.202,-0.786 -10.348,1.976 -12,5.519 0.075,1.766 0.185,3.496 0.481,5.041 m 5.759,1.92 c 41.856,23.582 74.533,57.629 112.8,83.999 1.519,-1.98 5.605,-3.356 5.76,-6 0.183,-3.117 -9.334,-9.242 -12.24,-11.76 -12.874,-11.155 -26.639,-21.78 -40.08,-31.68 -14.042,-10.342 -26.716,-20.944 -41.52,-30.241 -4.881,-3.064 -9.709,-6.845 -14.639,-9.119 -2.169,-1 -5.89,-1.275 -8.4,-0.48 -1.03,1.291 -2.106,2.535 -1.681,5.281 m -17.52,57.359 c -3.676,2.764 -8.669,5.956 -3.84,9.84 20.947,-10.973 37.107,-26.734 55.92,-39.84 -1.931,-1.668 -3.888,-3.312 -6.24,-4.56 -14.155,10.812 -30.642,23.135 -45.84,34.56 m 6,-24.72 c -4.596,-2.907 -17.232,-8.172 -24.48,-6.241 -4.309,1.151 -8.642,6.083 -12.24,8.881 -10.044,7.813 -18.954,15.08 -29.04,23.52 -3.796,3.177 -6.389,3.924 -5.519,10.8 1.236,9.777 6.824,18.445 11.039,25.92 9.37,-5.599 15.029,-15.427 27.361,-17.04 14.4,-1.883 19.719,9.491 26.64,17.52 8.37,9.712 19.409,10.382 24.479,20.64 v 0.72 c 3.626,-2.06 7.711,-4.922 9.84,-7.68 -10.352,1.077 -17.002,-5.939 -23.52,-11.52 -9.419,-8.065 -19.812,-14.313 -24.24,-26.16 -3.41,-9.125 4.56,-16.603 2.641,-23.999 -1.364,-5.258 -7.563,-8.135 -7.92,-13.92 -0.31,-4.986 4.818,-5.896 9.6,-4.801 6.802,1.559 15.836,6.504 21.12,11.52 0.081,0.078 1.622,1.879 2.639,1.439 3.053,-1.312 -6.972,-8.697 -8.4,-9.599 m -76.319,48.96 c 2.583,8.024 8.039,16.548 13.44,23.52 8.897,11.487 18.507,21.327 30.719,29.28 5.041,3.283 10.86,6.984 16.08,8.64 1.947,0.618 4.221,-1.785 5.041,-2.88 -31.987,-13.692 -55.732,-35.63 -64.32,-72.72 -4.468,1.377 -2.211,10.274 -0.96,14.16 m -8.161,-6.96 c 0.972,17.394 13.386,33.941 22.8,45.36 9.114,11.054 23.713,21.701 37.92,26.88 1.111,0.405 2.028,0.176 2.881,0.72 1.375,-1.025 3.259,-1.54 4.08,-3.12 -17.857,-8.22 -35.785,-20.313 -46.32,-36.72 -6.751,-10.512 -16.931,-20.424 -17.28,-36.24 -1.692,0.709 -2.879,1.921 -4.081,3.12 m -5.52,10.56 c 1.069,10.433 8.653,22.52 14.4,30.96 11.45,16.814 28.877,30.334 47.281,35.52 2.313,0.653 3.558,-1.6 5.28,-2.4 -14.678,-6.788 -28.877,-14.235 -39.36,-26.4 -10.344,-12.002 -21.068,-27.197 -24.48,-45.84 -3.07,0.742 -3.621,3.27 -3.121,8.16 m -5.039,-1.44 c 0.432,18.154 7.74,30.226 17.279,41.52 8.045,9.524 16.744,17.009 26.401,23.28 5.577,3.622 14.162,8.33 21.599,5.28 -25.463,-9.503 -43.407,-25.941 -55.199,-49.68 -3.406,-6.854 -6.327,-14.524 -7.44,-22.8 -1.13,0.551 -2.038,1.323 -2.64,2.4 m 92.64,50.16 c 2.35,-1.772 3.292,-2.76 5.759,-4.56 5.841,-4.26 15.818,-9.431 8.401,-16.56 -4.472,-4.297 -10.829,-7.449 -16.08,-12 -7.39,-6.403 -15.158,-21.436 -29.521,-19.2 -11.146,1.736 -17.109,8.845 -25.199,15.12 8.654,13.931 20.006,24.649 34.319,33.84 2.754,1.769 11.79,6.97 15.601,7.2 2.473,0.15 4.957,-2.511 6.72,-3.84 m 39.12,-32.16 c 0.589,-2.657 -0.905,-5.54 -0.96,-7.68 -0.097,-3.675 3.094,-7.22 3.12,-11.52 0.036,-6.244 -2.071,-11.285 -6,-14.88 -1.037,2.578 1.258,4.73 2.16,6.96 0.945,2.342 2.007,5.486 1.92,8.4 -0.112,3.733 -2.488,6.719 -3.121,10.32 -0.592,3.377 2.205,9.406 -2.4,10.32 -3.836,0.762 -9.492,-3.058 -12.96,-5.04 -4.252,-2.429 -8.247,-4.482 -11.279,-7.2 -8.207,-7.353 -18.807,-18.527 -21.6,-29.76 -0.698,-2.802 -0.183,-6.928 -0.72,-9.12 -9.184,16.816 3.056,28.893 13.439,38.16 8.205,7.323 16.514,17.943 30,17.04 3.208,-0.215 7.715,-2.916 8.401,-6 m 16.319,-68.88 c -0.382,-1.297 -1.869,-1.49 -2.64,-2.4 -15.145,12.64 -33.254,25.65 -49.199,39.12 -2.156,1.82 -8.106,5.907 -4.801,8.16 18.485,-15.355 37.039,-30.642 56.64,-44.88 m 9.36,6.721 c -3.004,-1.875 -5.361,-4.399 -8.401,-6.241 -13.945,11.411 -29.14,21.53 -42.719,33.6 -4.489,3.991 -9.614,7.444 -12.96,12.48 0.782,2.273 3.649,4.501 5.76,6.24 20.143,-14.658 39.479,-30.122 58.32,-46.079 m 27.12,40.559 c -0.124,4.203 2.599,7.525 2.88,11.04 0.254,3.17 -1.444,5.933 -0.72,9.12 1.417,6.236 12.827,6.973 19.2,3.84 7.692,-3.781 13.257,-9.895 20.88,-16.8 6.428,-5.822 14.717,-13.762 15.36,-22.08 0.428,-5.543 -2.818,-8.893 -3.36,-14.4 -0.872,16.851 -12.057,29.913 -22.8,39.36 -3.734,3.284 -13.098,8.638 -18.24,10.56 -2.801,1.047 -6.946,2.178 -8.4,-0.72 -1.069,-2.129 0.422,-5.611 0,-8.16 -0.665,-4.024 -3.318,-7.7 -2.64,-12.72 0.362,-2.685 1.18,-5.056 2.16,-7.2 0.839,-1.834 3.05,-4.188 1.44,-6 -3.454,3.562 -5.587,8.308 -5.76,14.16 m 34.8,47.04 c 4.637,3.449 8.136,6.271 11.76,9.12 22.999,-6.845 38.884,-22.872 51.36,-41.04 -9.113,-6.067 -14.554,-16.203 -29.04,-15.6 -11.72,0.489 -18.252,13.06 -25.44,19.44 -5.357,4.756 -11.775,7.539 -16.32,12 -7.365,7.228 2.418,12.168 7.68,16.08 M 2.64,21.12 c -6.971,20.437 -23.593,36.504 -41.04,47.52 -5.126,3.237 -14.555,8.382 -22.08,7.44 -3.09,-0.387 -6.68,-4.223 -9.36,-6.24 -18.49,-13.918 -35.473,-26.415 -53.28,-40.8 -2.415,-1.951 -7.109,-5.139 -7.92,-7.92 -0.953,-3.27 0.702,-7.252 0,-11.04 -0.539,-2.908 -2.384,-5.333 -2.64,-7.68 -0.828,-7.589 3.651,-13.186 5.76,-18.48 -8.93,-7.55 -18.401,-15.839 -27.84,-22.079 -9.222,7.496 -19.929,15.59 -29.28,23.759 2.438,5.266 6.74,10.44 6,18.24 -0.206,2.171 -2.588,5.449 -2.879,9.12 -0.276,3.482 0.918,6.801 0.48,9.36 -0.461,2.689 -5.769,6.26 -8.16,8.16 -18.289,14.537 -35.217,27.218 -53.28,41.04 -2.781,2.127 -6.904,5.965 -9.601,6.24 -7.58,0.773 -16.557,-4.34 -21.84,-7.68 -17.773,-11.238 -34.24,-27.194 -41.039,-47.52 -1.527,-4.562 -4.912,-14.489 -2.881,-20.16 0.746,-2.081 6.121,-5.628 8.641,-7.68 15.951,-12.991 29.604,-24.504 45.359,-36.959 4.68,-3.699 13.889,-13.526 20.641,-13.92 14.994,-0.879 27.406,8.424 35.039,15.599 8.848,-5.873 17.191,-12.25 25.201,-18.961 -10.517,-6.779 -20.116,-18.033 -36.24,-19.439 -8.274,-0.721 -14.977,1.395 -21.121,0.24 -4.465,-0.838 -7.928,-3.785 -12.48,-5.279 -3.229,-1.061 -8.057,-0.252 -11.28,-1.201 -4.379,-1.291 -8.465,-4.873 -11.76,-7.44 -3.652,-2.845 -8.169,-5.058 -10.56,-8.64 -1.305,-1.955 -2.118,-5.283 -3.6,-7.44 -2.387,-3.476 -7.517,-6.318 -11.279,-9.119 -2.41,-1.795 -9.927,-6.316 -10.321,-10.08 -0.332,-3.184 2.473,-6.303 4.321,-8.4 1.965,-2.233 4.035,-5.235 6,-6.721 2.908,-2.201 7.215,-3.166 8.639,-6.481 0.535,-1.24 0.453,-2.617 0.96,-4.08 2.554,-7.355 9.526,-12.89 15.84,-18.718 4.978,-4.594 11.405,-13.784 17.281,-14.881 7.075,-1.322 14.237,4.051 18.479,7.201 4.871,3.615 9.416,9.27 14.4,11.279 4.449,1.795 10.031,1.92 13.201,4.321 2.715,2.054 4.613,5.98 7.92,9.119 2.491,2.365 7.549,5.597 8.879,8.4 0.922,1.943 0.709,4.535 1.44,6.24 1.007,2.348 3.605,3.459 4.801,5.52 2.228,3.846 1.861,9.334 2.639,13.92 3.39,19.98 19.526,28.142 31.92,39.599 11.558,-10.156 23.457,-18.158 28.56,-33.359 1.797,-5.352 0.659,-11.002 3.36,-17.279 1.005,-2.336 4.118,-4.233 5.28,-7.201 0.679,-1.733 0.507,-3.772 1.2,-5.52 1.249,-3.146 6.142,-5.66 9.12,-8.641 3.387,-3.386 5.225,-7.517 8.4,-9.599 3.349,-2.196 8.641,-2.063 13.2,-4.08 4.227,-1.871 7.995,-6.358 12,-9.36 4.313,-3.234 8.359,-6.547 13.44,-8.16 7.798,-2.476 11.699,1.86 16.08,6.24 7.896,7.895 18.398,15.459 23.04,24.721 1.114,2.221 0.928,4.279 1.92,6.238 1.463,2.891 5.694,4.01 8.4,6 2.001,1.473 4.256,4.493 6.24,6.721 1.726,1.94 4.684,5.397 4.32,8.641 -0.416,3.703 -7.704,7.724 -10.32,9.599 -3.695,2.649 -8.257,5.934 -10.8,9.119 -1.825,2.288 -2.749,5.983 -4.32,8.161 -1.869,2.591 -6.044,5.007 -9.12,7.441 -3.296,2.606 -6.482,5.377 -9.6,6.959 -4.226,2.145 -8.923,1.018 -13.92,2.16 -5.538,1.266 -8.95,5.494 -14.88,6 -6.299,0.537 -12.067,-1.107 -17.76,-0.721 -16.049,1.094 -25.822,10.895 -35.76,18.241 7.545,5.976 15.037,12.004 23.28,17.281 1.571,-1.959 3.356,-4.027 5.28,-5.522 5.923,-4.593 19.516,-11.99 30.72,-10.08 3.077,0.526 7.307,4.147 10.08,6.241 19.394,14.638 36.186,29.223 54.72,44.4 2.563,2.099 7.962,5.8 8.64,7.92 1.77,5.535 -1.465,16.013 -2.88,20.16" />
                  </g>
                </g>
                <path
                   style="opacity:0;fill:#c52927;fill-opacity:1;fill-rule:nonzero;stroke:none;stroke-width:2.16776967;stroke-miterlimit:4;stroke-dasharray:none;stroke-opacity:1"
                   d="m 170.81601,499.66335 c -4.16232,-0.49517 -8.70784,-1.76353 -12.8329,-3.58082 l -1.46868,-0.64703 -0.15937,-1.65819 c -0.74911,-7.79428 2.0387,-16.10349 8.11584,-24.18973 5.86103,-7.79867 13.68904,-14.32665 22.4236,-18.69962 10.26301,-5.13818 21.82313,-6.98304 32.85077,-5.24259 0.65976,0.10413 1.29112,0.2175 1.40304,0.25194 0.30016,0.0924 0.50686,2.06876 0.58444,5.58813 0.0732,3.32202 -0.0733,5.54623 -0.55483,8.42131 -1.31226,7.8352 -4.77696,15.33393 -10.04063,21.73122 -1.45236,1.76515 -5.44442,5.70515 -7.23879,7.14439 -6.50958,5.22124 -14.10664,8.81702 -22.09708,10.45882 -3.09109,0.63512 -7.70494,0.81243 -10.98541,0.42217 z"
                   id="path1019"
                   inkscape:connector-curvature="0"
                   transform="matrix(0.75000002,0,0,-0.75000002,67.167954,673.65403)" />
                <path
                   style="opacity:0;fill:#c52927;fill-opacity:1;fill-rule:nonzero;stroke:none;stroke-width:2.16776967;stroke-miterlimit:4;stroke-dasharray:none;stroke-opacity:1"
                   d="m 170.81601,499.66335 c -4.16232,-0.49517 -8.70784,-1.76353 -12.8329,-3.58082 l -1.46868,-0.64703 -0.15937,-1.65819 c -0.74911,-7.79428 2.0387,-16.10349 8.11584,-24.18973 5.86103,-7.79867 13.68904,-14.32665 22.4236,-18.69962 10.26301,-5.13818 21.82313,-6.98304 32.85077,-5.24259 0.65976,0.10413 1.29112,0.2175 1.40304,0.25194 0.30016,0.0924 0.50686,2.06876 0.58444,5.58813 0.0732,3.32202 -0.0733,5.54623 -0.55483,8.42131 -1.31226,7.8352 -4.77696,15.33393 -10.04063,21.73122 -1.45236,1.76515 -5.44442,5.70515 -7.23879,7.14439 -6.50958,5.22124 -14.10664,8.81702 -22.09708,10.45882 -3.09109,0.63512 -7.70494,0.81243 -10.98541,0.42217 z"
                   id="path1021"
                   inkscape:connector-curvature="0"
                   transform="matrix(0.75000002,0,0,-0.75000002,67.167954,673.65403)" />
                <path
                   style="opacity:0;fill:#c52927;fill-opacity:1;fill-rule:nonzero;stroke:none;stroke-width:2.16776967;stroke-miterlimit:4;stroke-dasharray:none;stroke-opacity:1"
                   d="m 170.84963,499.65261 c -4.06834,-0.45884 -10.53328,-2.33562 -13.71733,-3.98215 -0.7112,-0.36778 -0.84243,-1.11617 -0.81708,-4.65976 0.0695,-9.72251 5.04726,-19.34959 15.01518,-29.03986 9.27442,-9.01608 20.8842,-14.78147 33.28469,-16.52909 3.3955,-0.47853 10.83287,-0.43454 14.16125,0.0838 1.36415,0.21243 2.50179,0.4085 2.52809,0.43572 0.0263,0.0272 0.14619,1.00724 0.26641,2.17782 0.30365,2.95659 0.13293,8.65656 -0.34304,11.45285 -2.06288,12.11938 -8.6183,22.65083 -18.90286,30.36793 -6.68053,5.01278 -15.24647,8.61761 -22.86838,9.62377 -2.15337,0.28426 -6.39675,0.31829 -8.60693,0.069 z"
                   id="path1023"
                   inkscape:connector-curvature="0"
                   transform="matrix(0.75000002,0,0,-0.75000002,67.167954,673.65403)" />
              </g>
              <path
                 transform="matrix(1.075417,0,0,-1.075417,-4.6433315,759.76898)"
                 inkscape:connector-curvature="0"
                 id="path4598"
                 d="m 362.59274,217.63639 c -3.01393,-0.68839 -4.97948,-2.14044 -6.16948,-4.55766 -1.49904,-3.04499 -0.96407,-6.55815 1.49274,-9.8028 3.26428,-4.31105 8.964,-6.95432 13.531,-6.27507 1.0102,0.15025 2.36156,0.49815 3.00303,0.77312 1.54621,0.66278 3.34175,2.35159 4.17154,3.92358 0.60962,1.15488 0.67188,1.53024 0.67188,4.05074 0,2.51255 -0.0673,2.92174 -0.70494,4.28338 -1.61004,3.43838 -4.36951,5.85105 -8.10824,7.08925 -2.4617,0.81527 -5.65987,1.02428 -7.88753,0.51546 z"
                 style="opacity:0;fill:#c52927;fill-opacity:1;fill-rule:nonzero;stroke:#ffffff;stroke-width:0.95447487;stroke-miterlimit:4;stroke-dasharray:none;stroke-opacity:1" />
            </g>
            <path
               transform="matrix(0.26458333,0,0,0.26458333,-0.49999736,-0.50000817)"
               inkscape:connector-curvature="0"
               id="path4600"
               d="m 361.07673,216.96554 c -5.1601,-2.34476 -6.80645,-8.00336 -3.67886,-12.6444 5.35472,-7.94586 17.38221,-9.57917 20.8702,-2.83413 1.50607,2.91241 1.35469,5.61152 -0.52362,9.33632 -2.73057,5.4149 -11.31034,8.57663 -16.66772,6.14221 z"
               style="opacity:0;fill:#c52927;fill-opacity:1;fill-rule:nonzero;stroke:#ffffff;stroke-width:2.69966269;stroke-miterlimit:4;stroke-dasharray:none;stroke-opacity:1" />
          </g>
        </g>
      </g>
    </g>
  </g>
  <g
     inkscape:groupmode="layer"
     id="layer4"
     inkscape:label="Livello 2"
     transform="translate(0.50000002,0.50001147)">
    <rect
       style="opacity:0;fill:#a87b21;fill-opacity:1;fill-rule:nonzero;stroke:none;stroke-width:0.26458332;stroke-opacity:1"
       id="rect4845"
       width="14.502848"
       height="10.20091"
       x="45.970356"
       y="91.616913" />
    <rect
       transform="translate(-30.362382,-103.73981)"
       style="display:inline;opacity:0;fill:#a87b21;fill-opacity:1;fill-rule:nonzero;stroke:none;stroke-width:0.26458332;stroke-opacity:1"
       id="rect4847"
       width="42.094952"
       height="23.386084"
       x="76.332741"
       y="195.35672" />
    <ellipse
       style="opacity:0;fill:#a87b21;fill-opacity:1;fill-rule:nonzero;stroke:none;stroke-width:0.26458332;stroke-opacity:1"
       id="path4861"
       cx="14.967093"
       cy="87.941956"
       rx="7.4835467"
       ry="10.490329" />
    <g
       transform="rotate(-0.3189226,-18546.09,5588.5644)"
       aria-label="I N F E R N O"
       style="font-style:normal;font-variant:normal;font-weight:normal;font-stretch:normal;font-size:23.28333282px;line-height:1.25;font-family:RickGriffin;-inkscape-font-specification:RickGriffin;letter-spacing:0px;word-spacing:0px;display:inline;fill:#e5e5e5;fill-opacity:1;stroke:none;stroke-width:0.40000001;stroke-miterlimit:4;stroke-dasharray:none;stroke-opacity:1"
       id="text4560"
       inkscape:transform-center-y="-47.467667"
       inkscape:transform-center-x="2.3365298">
      <path
         d="m 60.77233,150.74781 q 0.0297,0.0428 0.05941,0.0855 0.698103,0.85897 0.807445,1.29015 0.144526,0.60959 -0.33549,1.4882 -0.234427,0.42909 -0.794281,1.21102 -0.528257,0.77265 -0.762684,1.20174 -0.178611,0.32693 -0.368583,0.96602 -0.169539,0.65026 -0.158376,0.62983 -0.06698,0.12259 -0.14871,0.0779 -0.04087,-0.0223 -0.03897,-0.0743 -0.04804,-0.39769 -0.22586,-1.23773 -0.749141,-2.31955 -4.488334,-4.36241 -0.469954,-0.25676 -1.452619,-0.74056 -0.971503,-0.50424 -1.441456,-0.76099 -1.532456,-0.83724 -2.489801,-0.29901 -0.07435,0.039 -0.572713,0.56265 -0.401675,0.44384 -0.524272,0.37686 -0.326924,-0.17861 -0.114625,-0.85857 0.238412,-0.82488 0.184688,-1.06649 -0.203931,-0.69511 -1.266434,-1.27559 -1.185099,-0.64747 -1.484214,-0.73129 -0.784019,-0.21609 -1.572222,0.25536 -0.07435,0.039 -0.507627,0.49209 -0.347753,0.3937 -0.449917,0.33788 -0.183895,-0.10046 -0.194859,-0.37177 -0.02023,-0.3029 0.0914,-0.50723 0.156284,-0.28606 0.632315,-0.76887 0.466761,-0.51441 0.645372,-0.84133 0.301405,-0.55169 0.556662,-1.55309 0.245986,-1.033 0.413434,-1.33949 0.357221,-0.65385 1.0928,-0.25197 0.04086,0.0223 0.01854,0.0632 -0.04465,0.0817 -0.228746,0.273 -0.184093,0.19127 -0.251072,0.31387 -0.524669,0.96034 -0.285553,1.83386 0.229846,0.84193 1.190185,1.36659 0.572117,0.31257 1.281781,0.56763 0.689231,0.2439 1.347263,-0.0864 0.317852,-0.14472 0.963026,-0.69432 0.451811,-0.38991 0.635705,-0.28944 0.122597,0.067 -0.02292,0.91608 -0.145518,0.8491 0.307591,1.28237 1.238625,1.18081 3.179736,2.24131 2.840153,1.55168 4.914122,1.25206 1.319454,-0.1812 1.743654,-0.95765 0.03349,-0.0613 0.115221,-0.0166 z"
         style="font-size:23.28333282px;fill:#e5e5e5;fill-opacity:1;stroke:none;stroke-width:0.40000001;stroke-miterlimit:4;stroke-dasharray:none;stroke-opacity:1"
         id="path4863"
         inkscape:connector-curvature="0" />
      <path
         d="m 75.366401,136.23692 q 0.05185,0.33177 0.08794,0.64639 0.05185,0.33177 -0.252606,0.5166 -0.727535,0.44703 -1.259077,0.93533 -1.13167,1.0396 -1.624909,2.56768 -0.09271,0.24324 -0.281319,0.41651 -0.155713,0.17466 -0.21872,0.10608 -0.04725,-0.0514 -0.01017,-0.14874 0.377805,-1.13748 -0.227147,-2.41551 -0.611926,-1.11353 -1.446757,-2.0223 -3.055797,-3.32642 -8.235147,-3.59548 -0.872495,-0.0205 -1.163986,0.24726 -0.102879,0.0945 -0.142752,0.2576 -0.09928,0.78677 0.45941,1.60143 0.531367,0.68167 1.078485,1.3805 2.099139,2.18179 2.959486,2.87741 1.670651,1.40561 3.205699,1.73436 1.094412,0.22767 1.91047,-0.36391 0.05144,-0.0473 0.11584,-0.0116 0.08015,0.0528 0.07736,0.11863 0.03749,0.28173 0.07358,0.59635 0.0361,0.31462 -0.203956,0.53515 -0.377223,0.34653 -1.153408,0.77502 -0.759038,0.41273 -1.101969,0.72776 -0.34293,0.31504 -0.574204,0.71719 -0.278123,0.72975 -0.90894,2.00481 -0.0658,-0.003 -0.115841,0.0116 -0.06161,-0.10148 -0.0074,-0.21453 0.620646,-1.4238 -0.167744,-3.03918 -0.364086,-0.74049 -1.694597,-2.39533 -1.675649,-2.06497 -4.846879,-5.0008 -0.57124,-0.51858 -1.483202,0.003 -0.287306,0.16909 -0.460573,-0.0195 -0.189018,-0.20575 -0.04348,-0.52916 0.423664,-1.05314 -0.773452,-2.35627 -0.07876,-0.0857 -1.043786,-1.03298 -0.915972,-0.54968 -1.466462,-0.39175 -0.100089,0.0287 -0.202968,0.12322 -0.01715,0.0157 -0.35409,0.57821 -0.05144,0.0473 -0.115841,0.0116 0.0042,-0.0987 -0.157922,-0.55049 -0.101891,-0.31741 -4.07e-4,-0.37903 0.38879,-0.23069 0.78316,-0.59297 0.411516,-0.37804 1.108537,-1.27129 0.69702,-0.89324 1.108536,-1.27128 0.205758,-0.18902 0.408727,-0.31224 0.255802,-0.20337 0.656565,0.0608 0.240458,0.1585 0.217732,0.30585 -0.21872,0.10607 -0.441625,0.31084 -0.908765,0.83483 -0.452959,1.744 0.24505,0.43884 0.528578,0.74748 1.181364,1.28598 4.094934,1.36009 1.317316,0.0229 2.667531,0.0472 1.564749,0.0169 2.513213,0.18896 -0.114853,-0.40035 -0.461386,-0.77758 -0.173267,-0.18861 -0.491088,-0.46574 -0.462374,-0.36566 -0.556883,-0.46854 -0.46098,-0.39855 -1.045763,-0.20913 -0.437439,0.21215 -0.824834,0.40995 -0.403146,0.18065 -0.54491,0.0263 -0.157515,-0.17147 -0.06062,-0.51341 0.248421,-0.41791 0.495447,-0.80292 0.289689,-0.6139 -0.108691,-1.3229 -0.108866,-0.15292 -0.484112,-0.63023 -0.280738,-0.37444 -0.454005,-0.56305 -0.740322,-0.80588 -1.812995,-0.76898 -0.248828,0.0389 -0.471733,0.24366 -0.188612,0.17326 -0.437033,0.59117 -0.01994,0.0815 -0.117235,0.0445 -0.0644,-0.0357 -0.09311,-0.13578 -0.258418,-0.9008 0.05022,-1.18433 0.154319,-0.14176 0.576006,-0.37106 0.421688,-0.2293 0.6103,-0.40256 0.360077,-0.33079 0.714167,-0.909 0.355485,-0.61111 0.57839,-0.81588 0.171465,-0.15752 0.357286,-0.26499 0.470338,-0.21076 0.765432,0.21372 0.01436,0.05 -0.05702,0.17885 -0.08434,0.0459 -0.187217,0.14037 -0.617275,0.56705 -0.560837,1.17915 0.04069,0.59496 0.431685,1.08942 0.0315,0.0343 0.866334,0.94305 0.677316,0.7373 1.080869,0.93568 0.695451,0.30963 1.347018,-0.28893 0.154319,-0.14176 0.417503,-0.13061 0.263184,0.0112 0.389197,0.14834 0.157515,0.17146 -0.06539,0.37623 -0.484287,0.53974 -0.522765,0.66994 -0.273937,0.63105 0.303289,1.39706 0.809315,1.1219 2.478977,2.93943 2.662009,2.89776 3.852732,3.57444 1.288022,0.71376 2.522571,-0.42035 z"
         style="font-size:23.28333282px;fill:#e5e5e5;fill-opacity:1;stroke:none;stroke-width:0.40000001;stroke-miterlimit:4;stroke-dasharray:none;stroke-opacity:1"
         id="path4865"
         inkscape:connector-curvature="0" />
      <path
         d="m 86.718956,114.67652 q 0.103224,0.25964 0.0722,0.62275 -0.03102,0.36312 0.0894,0.66603 0.06021,0.15145 0.16787,0.35921 0.08185,0.14285 0.05578,0.20333 -0.01747,0.0821 -0.129817,0.0516 -0.33705,-0.0915 -0.431672,-0.3295 -0.02581,-0.0649 -0.06438,-0.22496 -0.01694,-0.16866 -0.04275,-0.23357 -0.06882,-0.17309 -0.228608,-0.25989 -0.168394,-0.10844 -0.709296,0.1066 -0.367813,0.14624 -1.268451,0.77993 -0.09958,0.0646 -0.190293,0.0255 -0.09071,-0.0391 -0.125122,-0.12565 -0.120427,-0.3029 -0.119116,-0.92982 -0.0073,-0.64856 -0.119116,-0.92983 -0.189243,-0.47599 -0.794004,-0.73668 -0.483809,-0.20854 -1.132891,0.0495 -2.509785,0.99783 -2.573408,2.47637 -0.01018,0.73067 0.247883,1.37975 0.326875,0.82217 1.021825,1.37272 0.708247,0.39494 1.508782,0.0767 0.389449,-0.15483 1.363597,-0.79269 0.995784,-0.64646 1.644866,-0.90452 0.584174,-0.23225 0.833631,0.39519 0.292467,0.73563 0.112848,1.8594 -0.161628,0.79088 -0.460625,1.1102 -0.641268,0.65585 -0.774992,0.50857 -0.159529,-0.21219 0.03989,-0.46687 0.181952,-0.17256 0.355303,-0.36676 0.277362,-0.31072 0.148857,-0.88603 -0.102699,-0.51041 -0.158743,-0.58835 -0.418376,-0.48512 -1.348727,-0.11523 -0.757263,0.30107 -1.32919,0.87923 -0.957468,0.9319 -0.70906,2.06088 0.505942,2.02884 1.271517,3.95445 1.470937,3.69977 2.995611,4.44662 0.492411,0.23018 1.361499,0.21038 0.125385,2.6e-4 0.09488,0.11261 -0.109229,0.54455 -0.758312,0.80261 -0.21636,0.086 -0.618581,0.14571 -0.402222,0.0597 -0.640218,0.15431 -0.605811,0.24085 -1.684231,1.12062 -1.056785,0.87116 -1.649561,1.08177 -0.281269,0.11183 -0.2247,-0.061 0.273191,-0.38423 0.69419,-1.15295 0.643103,-1.53354 0.124127,-3.53214 -0.137107,-0.59694 -1.324179,-3.58272 -0.980625,-2.46651 -1.764978,-3.68309 -0.6634,-1.16444 -1.918293,-0.66552 -0.21636,0.086 -0.25937,-0.0222 -0.07742,-0.19472 0.160579,-0.28934 0.540902,-0.21505 0.86206,-0.79374 0.312556,-0.60033 0.153813,-1.18868 -0.279171,-0.89125 -0.390996,-1.17251 -0.619342,-1.5578 -1.955035,-1.70327 -0.363119,-0.031 -0.709296,0.1066 -0.346177,0.13763 -0.441323,0.15041 -0.07351,0.004 -0.120953,-0.0521 -0.142326,-0.16892 -0.129291,-0.19916 -0.01615,-0.54481 1.000478,-0.82372 1.570044,-0.27342 2.868209,-0.78954 0.822171,-0.32688 2.90836,-1.3818 2.107826,-1.06352 3.059813,-1.44201 0.367814,-0.14623 0.428027,0.005 0.04301,0.10818 -0.05683,0.29821 -1.114665,1.67091 -0.417906,3.42343 0.06882,0.17309 0.142326,0.16892 0.216099,0.0394 0.475732,-0.0639 0.194724,-0.0774 0.63631,-0.3532 0.432984,-0.29743 0.649345,-0.38345 0.173088,-0.0688 0.2247,0.061 z"
         style="font-size:23.28333282px;fill:#e5e5e5;fill-opacity:1;stroke:none;stroke-width:0.40000001;stroke-miterlimit:4;stroke-dasharray:none;stroke-opacity:1"
         id="path4867"
         inkscape:connector-curvature="0" />
      <path
         d="m 110.33289,126.86181 q 0.008,0.27928 -0.0836,0.32853 -0.43476,0.26886 -1.06314,0.28711 -0.41892,0.0122 -1.33065,-0.1011 -0.91105,-0.09 -1.44634,-0.0744 -3.02555,0.0879 -5.41529,0.41355 -0.18551,0.0287 -1.111718,0.21864 -0.925532,0.21323 -0.995352,0.21526 -0.186189,0.005 -0.190245,-0.13423 -0.002,-0.0698 0.366967,-0.19701 0.392945,-0.10459 0.43814,-0.15249 0.959228,-0.65678 1.065748,-1.80124 0.24199,-2.89538 0.14936,-6.08385 -0.0649,-2.23426 -0.26433,-3.4863 -0.0881,-0.62635 -0.541768,-1.00916 -0.453691,-0.3828 -1.058802,-0.36522 -0.232735,0.007 -0.236116,-0.10961 -0.0061,-0.20946 0.249924,-0.2169 0.605111,-0.0176 1.081009,-0.47397 0.499173,-0.45707 0.552093,-1.04094 0.10448,-1.21428 0.0916,-1.65647 -0.0602,-2.07135 -2.131514,-2.01117 -0.279282,0.008 -0.286719,-0.2479 -0.0142,-0.48874 0.963289,-0.51714 0.558564,-0.0162 1.705054,0.16011 1.14648,0.17633 1.72832,0.15943 1.04731,-0.0304 3.13652,-0.27747 2.1118,-0.27098 3.15911,-0.30141 0.16292,-0.005 0.16765,0.15818 0.002,0.0698 -0.0651,0.16495 -1.10389,1.28989 -1.33179,3.0668 l 0.003,0.11636 q -0.0172,0.21014 0.6112,0.19189 0.25601,-0.007 0.74272,-0.0915 0.50931,-0.10797 0.76532,-0.11541 0.0698,-0.002 0.0725,0.0911 0.007,0.25601 -0.1632,0.79671 -0.17132,0.51742 -0.15576,1.05271 -0.0226,0.024 -0.0459,0.0246 -0.32583,0.009 -0.34002,-0.47928 -0.003,-0.0931 0.0158,-0.25668 0.0411,-0.18754 0.0384,-0.28064 -0.004,-0.13964 -0.0779,-0.27725 -0.14234,-0.089 -0.25803,-0.0624 -2.01804,0.29155 -2.04131,0.29223 -0.13964,0.004 -0.14302,-0.11231 -0.009,-0.32583 0.18038,-1.00685 0.18918,-0.70429 0.17904,-1.05339 -0.0331,-1.1404 -1.1968,-1.1066 -2.00153,0.0581 -2.89094,0.7129 -1.07154,0.7998 -1.01678,2.68496 0.0473,1.62915 1.72302,1.58046 0.62839,-0.0182 1.80858,-0.28547 1.20346,-0.26789 1.80857,-0.28547 0.60511,-0.0176 0.62472,0.65735 0.0291,1.00077 -0.60027,1.78772 -0.15751,0.19092 -0.43274,0.33868 -0.25262,0.1238 -0.50458,0.27088 -0.24789,0.28672 -0.5882,0.59942 -0.0944,-0.0439 -0.0999,-0.23003 -0.0115,-0.39565 0.58348,-0.76233 0.61824,-0.36736 0.59931,-1.01902 -0.0216,-0.74475 -1.25513,-0.70892 -3.04883,0.0886 -3.31623,1.30758 -0.3264,1.59342 -0.27231,3.4553 0.0987,3.39793 1.56544,5.77781 0.41525,0.66344 1.40423,1.03069 0.84799,0.32477 1.75566,0.2984 0.6982,-0.0203 1.33431,-0.57451 0.63543,-0.57749 0.61515,-1.2757 -0.0237,-0.81457 -0.40049,-1.75864 -0.4534,-1.17478 -1.11047,-1.34204 -0.82066,-0.1858 -0.82674,-0.39526 -0.003,-0.0931 0.15683,-0.21419 1.07357,-0.72999 1.11876,-0.77788 0.38619,-0.33733 0.7575,-1.18667 0.0651,-0.16494 0.11163,-0.16629 0.0931,-0.003 0.0992,0.20675 0.006,0.20947 -0.18309,0.91376 -0.18986,0.68101 -0.17904,1.05339 0.0243,0.83785 0.33974,1.27125 0.12178,0.18281 0.57344,0.49579 0.28537,0.20135 0.29348,0.48063 -0.008,0.5127 -0.008,0.5127 0.025,0.86112 0.46693,1.64025 0.44124,0.75585 0.45611,1.26787 z"
         style="font-size:23.28333282px;fill:#e5e5e5;fill-opacity:1;stroke:none;stroke-width:0.40000001;stroke-miterlimit:4;stroke-dasharray:none;stroke-opacity:1"
         id="path4869"
         inkscape:connector-curvature="0" />
      <path
         d="m 129.0725,130.23575 q 0.0266,0.42724 -0.10116,0.80189 -0.17279,0.50687 -0.57247,0.81341 -0.54793,0.45279 -1.12092,0.25746 -0.17631,-0.0601 -0.43977,-0.2975 -0.26345,-0.2374 -0.50587,-0.32004 -0.33057,-0.11269 -1.00774,-0.14673 -0.67716,-0.034 -0.9857,-0.13922 -0.1763,-0.0601 -0.32306,-0.13472 -0.0511,-0.0666 -0.0726,-0.14776 5e-4,-0.0736 0.0451,-0.13223 0.0371,-0.0366 0.1177,0.0155 0.89555,0.40367 1.89426,-0.28904 0.51037,-0.3426 0.84092,-1.31227 0.47278,-1.31477 0.17623,-3.18699 -0.12723,-0.78134 -0.70978,-2.82484 -0.79092,-2.80331 -1.73855,-3.12635 -0.13223,-0.0451 -0.23541,-0.031 -0.4643,0.0631 -0.87549,0.9807 -0.7177,1.60027 -1.33272,3.26014 -0.9616,2.82087 -0.15418,4.27686 0.48836,0.73225 0.98672,1.07433 0.19835,0.0676 -0.009,0.16929 -0.42172,0.29902 -1.14897,0.0511 -0.22038,-0.0751 -0.59453,-0.27646 -0.36664,-0.22338 -0.60906,-0.30602 -0.59502,-0.20283 -1.90528,-0.2559 -1.31777,-0.031 -1.89076,-0.22635 -0.28649,-0.0977 0.0381,-0.18382 0.53141,-0.18783 1.38036,-0.51341 1.35281,-0.79339 2.24831,-2.55444 0.36562,-0.71173 1.26612,-3.20905 0.51034,-1.42496 0.65308,-1.84368 0.49582,-1.45451 0.53738,-2.15372 0.0426,-0.84645 -0.49237,-1.2256 -0.24943,-0.13422 -0.67467,-0.40217 -0.19785,-0.14124 -0.13775,-0.31755 0.1202,-0.35261 0.584,-0.3421 1.36284,-0.1012 2.02045,-1.52516 0.35208,-0.88854 0.34105,-1.43348 -0.011,-0.54493 -0.42725,-1.0558 -0.47483,-0.55545 -1.33631,-0.55393 -0.19835,-0.0676 -0.0346,-0.33157 0.297,-0.36613 0.73225,-0.48835 0.19183,-0.0576 0.44877,0.0546 0.64562,0.34308 1.43899,0.61353 0.88152,0.30049 2.69014,0.69564 1.83066,0.40265 2.69014,0.69564 0.83745,0.28547 1.49759,0.6581 0.14676,0.0746 0.23341,0.32555 0.11621,0.23641 0.0711,0.36864 -0.26443,0.99221 -1.25161,2.15623 -1.01722,1.25218 -1.26513,1.97943 -0.0901,0.26446 -0.13622,0.54394 -0.0301,0.0881 -0.19984,0.15327 -0.36162,0.12272 -1.449,-0.22335 -1.00674,-0.29399 -1.45,-0.0761 -0.42122,0.22539 -0.58649,0.71023 -0.24791,0.72726 0.19237,2.03349 0.13675,0.4648 1.47964,4.39103 0.96822,2.71615 1.16961,4.50672 z m 0.94078,-16.0376 q -0.31105,-0.81941 -1.30277,-1.15747 -0.61706,-0.21035 -1.11842,-0.11067 -1.54065,0.26199 -2.12061,2.1798 -0.39915,1.31527 0.48639,2.10912 0.30002,0.27446 0.78485,0.43974 1.10191,0.37562 1.88475,0.0275 0.99019,-0.52343 1.38835,-1.69144 0.33055,-0.96968 -0.003,-1.79659 z"
         style="font-size:23.28333282px;fill:#e5e5e5;fill-opacity:1;stroke:none;stroke-width:0.40000001;stroke-miterlimit:4;stroke-dasharray:none;stroke-opacity:1"
         id="path4871"
         inkscape:connector-curvature="0" />
      <path
         d="m 144.92901,143.45368 q -0.3223,0.0943 -0.62963,0.17067 -0.3223,0.0943 -0.5449,-0.18379 -0.53722,-0.66373 -1.09006,-1.12777 -1.17702,-0.98797 -2.75598,-1.27978 -0.25319,-0.0605 -0.44935,-0.22519 -0.19331,-0.13185 -0.13343,-0.20319 0.0449,-0.0535 0.14618,-0.0293 1.17674,0.22778 2.36596,-0.53713 1.0252,-0.75058 1.81857,-1.69576 2.90403,-3.45971 2.50209,-8.63044 -0.0923,-0.86785 -0.39548,-1.12232 -0.107,-0.0898 -0.27388,-0.1083 -0.79299,0.003 -1.5287,0.66234 -0.60736,0.61493 -1.22969,1.2477 -1.8925,2.36327 -2.47122,3.30623 -1.17813,1.83816 -1.30593,3.4028 -0.0845,1.11465 0.60754,1.84749 0.0535,0.0449 0.0264,0.11338 -0.042,0.0863 -0.10765,0.092 -0.27453,0.0736 -0.58186,0.14997 -0.30733,0.0764 -0.557,-0.13315 -0.39233,-0.32933 -0.91745,-1.04369 -0.50729,-0.69939 -0.86396,-0.99878 -0.35667,-0.29938 -0.78533,-0.47679 -0.75954,-0.18158 -2.10538,-0.64248 -0.006,-0.0656 -0.0264,-0.11338 0.0927,-0.0742 0.21178,-0.035 1.49202,0.43162 2.99208,-0.55875 0.68729,-0.45665 2.15649,-1.98969 1.83132,-1.92824 4.33312,-5.45199 0.44048,-0.63341 -0.1945,-1.4704 -0.20476,-0.26307 -0.0401,-0.45923 0.17963,-0.21401 0.51911,-0.11144 1.09903,0.28414 2.23669,-1.07121 0.0748,-0.0892 0.88956,-1.16842 0.42681,-0.97928 0.19913,-1.50477 -0.0414,-0.0956 -0.14839,-0.18536 -0.0178,-0.015 -0.6191,-0.27647 -0.0535,-0.0449 -0.0264,-0.11338 0.0984,-0.009 0.52549,-0.22768 0.3016,-0.14202 0.3758,-0.0493 0.27896,0.35575 0.68913,0.70004 0.42801,0.35926 1.40377,0.93512 0.97577,0.57585 1.40377,0.93511 0.21401,0.17963 0.3624,0.36499 0.2347,0.2274 0.0245,0.65892 -0.12613,0.25891 -0.27518,0.2554 -0.13342,-0.20319 -0.36526,-0.39779 -0.94518,-0.79337 -1.78789,-0.22399 -0.40352,0.29966 -0.67297,0.62066 -1.12269,1.33752 -0.81999,4.23627 0.14738,1.30925 0.29762,2.6513 0.18526,1.55383 0.13712,2.51657 0.38218,-0.16558 0.7115,-0.55792 0.16466,-0.19617 0.39844,-0.54711 0.30289,-0.50572 0.39271,-0.61272 0.3357,-0.50858 0.0724,-1.06401 -0.26685,-0.40639 -0.51301,-0.765 -0.23119,-0.37645 -0.0965,-0.53695 0.14969,-0.17834 0.50128,-0.12641 0.44649,0.19239 0.86018,0.38763 0.64616,0.208 1.29779,-0.27858 0.13758,-0.1277 0.56245,-0.56144 0.33505,-0.32673 0.49971,-0.5229 0.70355,-0.83818 0.52846,-1.89711 -0.0707,-0.24172 -0.30253,-0.43632 -0.19617,-0.16466 -0.64265,-0.35705 -0.0834,-0.009 -0.0592,-0.11051 0.0271,-0.0685 0.12261,-0.10987 0.8599,-0.37256 1.1809,-0.10311 0.16051,0.13472 0.44233,0.52327 0.28183,0.38855 0.478,0.55322 0.3745,0.31435 0.9936,0.59082 0.65189,0.2736 0.88373,0.4682 0.17833,0.14969 0.3089,0.32008 0.26972,0.43919 -0.1131,0.78662 -0.0478,0.0207 -0.18472,-0.0334 -0.0564,-0.0777 -0.16336,-0.16752 -0.64201,-0.53889 -1.2417,-0.4039 -0.58472,0.11717 -1.02456,0.56874 -0.0299,0.0357 -0.82331,0.98084 -0.64367,0.76685 -0.78828,1.19264 -0.21724,0.7296 0.46043,1.29843 0.16051,0.13473 0.18342,0.39715 0.0229,0.26242 -0.0968,0.40509 -0.14969,0.17833 -0.38153,-0.0163 -0.59774,-0.41055 -0.73182,-0.43189 -0.66114,-0.19017 -1.34621,0.48113 -1.00802,0.9474 -2.59475,2.83775 -2.5298,3.01388 -3.04707,4.282 -0.54148,1.3694 0.74254,2.44719 z"
         style="font-size:23.28333282px;fill:#e5e5e5;fill-opacity:1;stroke:none;stroke-width:0.40000001;stroke-miterlimit:4;stroke-dasharray:none;stroke-opacity:1"
         id="path4873"
         inkscape:connector-curvature="0" />
      <path
         d="m 157.24343,158.14469 q -0.816,0.20533 -1.63199,0.41065 -1.13751,0.24769 -1.92665,-0.27723 -0.13744,-0.0578 -0.34883,-0.44638 -1.91689,-3.91374 -3.15645,-5.41289 -0.17441,-0.22318 -0.23364,-0.42951 -0.20352,-0.76396 0.3813,-1.93025 0.58482,-1.16628 0.52233,-1.76842 -0.0388,-0.21745 0.16183,-0.14103 1.36149,0.50514 3.90993,-0.21849 2.27143,-0.59945 3.90768,-1.48951 0.81813,-0.44503 1.46723,-0.95715 0.40187,-0.43064 -0.032,-1.22832 -0.0556,-0.10226 0.12845,-0.20239 0.28634,-0.15576 0.69473,0.2052 0.48448,0.4521 0.78734,0.47289 0.78228,0.0251 2.0651,-0.54022 1.53938,-0.67834 2.30514,-0.82983 0.36242,-0.0646 0.57595,0.0843 0.34343,0.29028 1.33003,2.00655 0.95321,1.6549 1.48612,2.00114 0.11699,0.0689 0.18375,0.19161 0.24476,0.44997 -0.26297,0.83218 -0.92432,0.68833 -1.8691,1.38779 -1.01547,0.76442 -1.70941,1.48646 -0.31073,0.35457 -0.45064,0.82825 -0.10833,0.48301 0.0808,0.83071 0.1335,0.24544 -0.0915,0.36782 -0.32725,0.17802 -0.51459,-0.11766 -0.11126,-0.20453 -0.4493,-0.33871 -0.32691,-0.11372 -0.65776,-0.0398 -1.0521,0.30726 -1.95204,0.79679 -1.49308,0.81218 -3.06718,2.59611 -0.25117,0.26915 -0.52886,0.97681 -0.2515,0.56089 -0.57875,0.73891 -0.20453,0.11125 -0.52605,0.15362 z m 2.62169,-4.63322 q 0.16363,-0.089 0.57269,-0.31152 0.502,-0.24657 0.74744,-0.38008 2.3112,-1.25721 2.09543,-2.67713 -0.11486,-0.3086 0.27375,-0.51999 0.26589,-0.14463 0.74497,0.15138 0.82825,0.45064 1.97362,-0.1724 1.06357,-0.57854 1.71514,-1.62211 0.48402,-0.76689 -0.16127,-1.95317 -0.3894,-0.71586 -0.87961,-1.03232 -1.2944,-0.67416 -2.9102,0.20477 -0.75676,0.41166 -1.20527,1.00019 -0.44851,0.58854 -0.21487,1.01806 0.0779,0.14317 -0.0133,0.21925 -0.42591,0.33771 -0.98287,-0.10147 -0.63304,-0.53032 -1.11819,-0.39895 -1.15617,0.31085 -2.52653,1.05628 -1.57489,0.85668 -2.96244,2.00903 -2.30828,1.94476 -2.43987,3.26208 -0.006,0.42738 0.27207,0.93871 0.3004,0.55223 0.66249,0.77935 0.97681,0.52886 2.38381,0.2406 1.03525,-0.19207 2.32559,-0.84096 0.81813,-0.44503 1.64738,-0.8696 z"
         style="font-size:23.28333282px;fill:#e5e5e5;fill-opacity:1;stroke:none;stroke-width:0.40000001;stroke-miterlimit:4;stroke-dasharray:none;stroke-opacity:1"
         id="path4875"
         inkscape:connector-curvature="0" />
    </g>
    <path
       style="opacity:0;fill:#e60000;fill-opacity:1;fill-rule:nonzero;stroke:#ffffff;stroke-width:1;stroke-miterlimit:4;stroke-dasharray:none;stroke-opacity:1"
       id="path4930"
       d="m 63.348331,89.987114 c 0.436314,-0.242615 0.868275,-0.493225 1.308936,-0.72785 0.04869,-0.02593 0.105251,-0.03322 0.156895,-0.0526 0.06508,-0.02442 0.12867,-0.05266 0.193107,-0.07874 0.241202,-0.09763 0.480671,-0.197601 0.719179,-0.301688 0.576123,-0.24901 1.146289,-0.510583 1.713667,-0.778971 0.419769,-0.187997 0.823979,-0.406294 1.233694,-0.614542 0.360481,-0.214363 0.757039,-0.352748 1.156343,-0.474559 0.452244,-0.16645 0.926647,-0.272008 1.374174,-0.449755 0.339537,-0.143804 0.686406,-0.267134 1.012698,-0.439507 0.481954,-0.295728 0.0046,-0.0011 -0.913635,0.518893 -0.09483,0.05371 0.183663,-0.117523 0.278037,-0.172035 0.487132,-0.281371 0.976299,-0.559205 1.464069,-0.83947 -2.005602,1.212564 -0.823327,0.499287 -0.414742,0.1197 0.160814,-0.161629 0.325435,-0.321358 0.462971,-0.503719 0.118443,-0.198855 0.194169,-0.421576 0.263257,-0.641752 0.0697,-0.197419 0.05253,-0.37392 -0.01992,-0.565449 -0.10642,-0.19463 -0.333571,-0.221086 -0.533455,-0.19522 -0.379159,0.03383 -0.741776,0.152207 -1.094433,0.290494 0.122525,-0.06849 -0.425453,0.212074 -0.322887,0.151852 2.30941,-1.356 0.266626,-0.0799 -0.541888,0.29156 -1.119672,0.634122 3.985702,-2.27372 -0.360807,0.206608 -0.352084,0.200914 0.701778,-0.406008 1.054804,-0.605261 0.08447,-0.04768 -0.161661,0.107419 -0.239337,0.165513 -0.192405,0.152514 -0.300871,0.351417 -0.362934,0.584311 -0.04196,0.194167 -0.04268,0.393528 -0.04361,0.591198 0.01101,0.210479 -0.03858,0.413145 -0.09909,0.612479 -0.03482,0.166677 -0.101063,0.316741 -0.194929,0.457483 -0.105939,0.117951 -0.198451,0.24424 -0.279273,0.380336 0,0 -1.275778,0.560358 -1.275778,0.560358 v 0 c 0.09196,-0.130799 0.155681,-0.279923 0.271063,-0.394943 0.114667,-0.107749 0.187139,-0.25387 0.220093,-0.40745 0.05639,-0.189577 0.134483,-0.373695 0.117441,-0.576604 7.9e-5,-0.207439 -2.65e-4,-0.416028 0.03346,-0.621342 0.05208,-0.255649 0.139996,-0.486762 0.333267,-0.670971 0.452239,-0.396626 1.03523,-0.647051 1.540809,-0.94199 0.353769,-0.206378 -1.419559,0.817745 -1.063035,0.616161 1.622578,-0.917437 0.831217,-0.511405 1.425879,-0.814512 0.04468,-0.02185 0.08974,-0.04297 0.134048,-0.06557 0.04295,-0.02191 0.169323,-0.09227 0.127715,-0.06791 -0.345718,0.202417 -1.390708,0.796012 -1.040133,0.602131 0.562097,-0.310865 1.053904,-0.668005 1.640726,-0.895017 0.366424,-0.129056 0.739781,-0.24261 1.130565,-0.262898 0.261141,0.01048 0.509079,0.08151 0.635669,0.332068 0.08714,0.213381 0.130958,0.42114 0.06001,0.64757 -0.06196,0.231593 -0.151603,0.45561 -0.245864,0.67572 -0.109368,0.212214 -0.297476,0.368059 -0.461663,0.537681 -0.52646,0.564176 -1.287283,0.882113 -1.925479,1.27014 -0.441314,0.24497 -0.609603,0.339788 0.88523,-0.520684 0.04691,-0.027 -0.09103,0.05859 -0.137121,0.08696 -0.04697,0.02891 -0.09448,0.05692 -0.142041,0.08485 -1.325187,0.778108 -0.871908,0.530993 -1.442918,0.839941 -0.328219,0.157787 -0.673003,0.277905 -1.009336,0.416976 -0.45431,0.154836 -0.918212,0.28122 -1.371205,0.440618 -0.397251,0.136403 -0.789665,0.284988 -1.152912,0.499126 -0.402119,0.205346 -0.804042,0.410152 -1.21625,0.594918 -0.570227,0.264766 -1.142251,0.525177 -1.717987,0.777703 -0.558876,0.243062 -2.365211,1.025713 -0.01887,-0.176284 0,0 -1.306247,0.503944 -1.306247,0.503944 z"
       inkscape:connector-curvature="0" />
    <path
       style="opacity:0;fill:#e60000;fill-opacity:1;fill-rule:nonzero;stroke:#ffffff;stroke-width:1;stroke-miterlimit:4;stroke-dasharray:none;stroke-opacity:1"
       id="path4932"
       d="m 67.111775,88.295085 c 0.269004,-0.09093 0.528193,-0.20529 0.773226,-0.348638 -1.867175,1.095068 -1.165929,0.710496 -0.789675,0.412892 0,0 1.277792,-0.517575 1.277792,-0.517575 v 0 c -0.453205,0.416174 -1.021625,0.660789 -1.557745,0.96697 -0.262641,0.13493 -0.534308,0.260427 -0.821561,0.332809 0,0 1.117963,-0.846458 1.117963,-0.846458 z"
       inkscape:connector-curvature="0" />
    <path
       style="opacity:0;fill:#e60000;fill-opacity:1;fill-rule:nonzero;stroke:#ffffff;stroke-width:1;stroke-miterlimit:4;stroke-dasharray:none;stroke-opacity:1"
       id="path4934"
       d="m 69.001657,86.972169 c 0.178935,-0.0911 0.361365,-0.167878 0.534746,-0.269415 -2.299395,1.362887 -0.486407,0.221888 0.32598,-0.182009 0.141007,-0.0701 0.288994,-0.125169 0.434716,-0.184391 0.538713,-0.177869 1.628262,-0.833043 -0.48637,0.365773 0.192788,-0.09984 0.331194,-0.259016 0.480515,-0.410303 0.164698,-0.137048 0.281736,-0.3108 0.396869,-0.48868 0.09472,-0.14369 0.177861,-0.292713 0.277088,-0.433644 0.1133,-0.170349 0.248293,-0.324294 0.355275,-0.498827 0.07161,-0.139798 0.157614,-0.271317 0.255479,-0.393967 0,0 1.282599,-0.550907 1.282599,-0.550907 v 0 c -0.09196,0.124023 -0.203563,0.234577 -0.269436,0.376782 -0.09255,0.187637 -0.229211,0.341051 -0.344321,0.513017 -0.104063,0.139369 -0.201181,0.277929 -0.27904,0.433697 -0.133109,0.167724 -0.21254,0.377229 -0.390228,0.50669 -0.04492,0.04909 -0.09829,0.09001 -0.142815,0.139443 -0.02418,0.02684 -0.0398,0.06052 -0.06317,0.08807 -0.07481,0.08822 -0.171217,0.151376 -0.265893,0.215752 -0.638844,0.368982 -1.203777,0.748099 -1.885624,0.987877 -0.147251,0.06233 -0.291293,0.126267 -0.432964,0.20056 -0.03903,0.02048 -0.154527,0.0848 -0.116531,0.06247 0.07077,-0.04159 3.146954,-1.831567 -0.212394,0.124656 -0.182332,0.09667 -0.373578,0.188794 -0.572442,0.243816 0,0 1.117963,-0.846457 1.117963,-0.846457 z"
       inkscape:connector-curvature="0" />
  </g>
</svg>
