<?xml version="1.0" standalone="no"?>
<!DOCTYPE svg PUBLIC "-//W3C//DTD SVG 20010904//EN"
 "http://www.w3.org/TR/2001/REC-SVG-20010904/DTD/svg10.dtd">
<svg version="1.0" xmlns="http://www.w3.org/2000/svg"
 width="700.000000pt" height="700.000000pt" viewBox="0 0 700.000000 700.000000"
 preserveAspectRatio="xMidYMid meet">
<metadata>
Created by potrace 1.11, written by Peter Selinger 2001-2013
</metadata>
<g transform="translate(0.000000,700.000000) scale(0.100000,-0.100000)"
fill="#000000" stroke="none">
<path d="M3318 6990 c-630 -34 -1226 -230 -1743 -573 -808 -537 -1349 -1362
-1519 -2317 -65 -370 -65 -830 0 -1200 86 -481 264 -929 527 -1325 537 -808
1362 -1349 2317 -1519 370 -65 830 -65 1200 0 700 125 1321 442 1843 943 83
79 266 288 346 395 340 453 556 951 655 1506 54 304 64 714 26 1025 -56 454
-209 916 -430 1300 -321 557 -758 994 -1315 1315 -439 253 -986 418 -1477 445
-210 11 -288 12 -430 5z m-1478 -1168 c66 -34 1154 -875 1195 -924 26 -31 26
-34 20 -122 -6 -81 -4 -98 16 -151 17 -43 24 -81 24 -135 0 -70 -4 -82 -49
-177 -27 -57 -48 -104 -45 -106 2 -2 31 -26 64 -54 148 -125 438 -353 449
-353 24 0 486 367 486 386 0 2 -15 35 -34 72 -41 81 -66 162 -66 214 0 20 11
68 25 105 22 57 25 80 23 164 -3 85 0 101 18 126 26 36 267 229 614 492 151
115 344 261 427 324 100 76 165 118 188 123 48 9 168 -20 255 -62 308 -147
639 -462 778 -739 110 -220 162 -458 116 -533 -15 -25 -101 -97 -647 -546
-261 -214 -547 -434 -595 -458 -38 -18 -56 -20 -140 -15 -173 9 -356 92 -489
220 l-52 50 -63 -43 c-89 -62 -338 -253 -338 -260 0 -3 55 -47 123 -97 137
-103 239 -160 342 -194 66 -22 83 -23 291 -21 l221 2 79 -39 c115 -58 128 -62
246 -76 131 -15 152 -25 332 -162 129 -99 135 -105 172 -178 46 -91 103 -151
227 -237 50 -35 112 -83 139 -107 41 -37 48 -49 48 -80 0 -24 -11 -54 -29 -82
-46 -74 -150 -177 -215 -215 -73 -43 -81 -53 -102 -124 -19 -64 -49 -115 -110
-186 -61 -73 -397 -385 -436 -406 -42 -22 -113 -23 -175 -2 -63 21 -165 89
-287 192 -116 98 -151 117 -249 139 -99 22 -138 44 -189 105 -47 58 -118 129
-196 198 -31 27 -53 57 -57 75 -19 84 -28 104 -68 153 -52 62 -62 92 -82 237
-33 231 -126 371 -412 616 -57 49 -107 89 -112 89 -9 0 -248 -196 -315 -259
-60 -56 -154 -178 -185 -240 -40 -79 -58 -146 -71 -264 -12 -111 -44 -197 -79
-216 -26 -14 -46 -53 -56 -106 -10 -58 -38 -97 -112 -157 -36 -29 -91 -84
-122 -123 -73 -89 -101 -107 -207 -134 -114 -29 -141 -44 -254 -141 -178 -153
-282 -212 -378 -213 -37 0 -70 6 -94 19 -50 26 -448 419 -491 485 -20 30 -43
79 -52 110 -21 74 -29 83 -110 132 -105 63 -235 225 -235 292 0 36 58 96 175
178 172 122 190 140 241 239 l47 90 136 101 c192 143 204 149 324 159 90 7
111 13 201 56 l101 47 225 1 c254 1 290 7 425 74 63 30 335 218 378 260 10 9
-173 158 -330 269 l-102 72 -77 -65 c-158 -132 -306 -196 -470 -204 -100 -4
-103 -4 -163 28 -34 18 -112 76 -175 129 -100 85 -429 354 -874 715 -81 65
-155 130 -164 145 -49 73 13 345 125 551 146 270 432 544 732 701 158 82 260
105 325 71z"/>
<path d="M1660 5770 c-99 -31 -240 -118 -388 -238 -157 -128 -338 -331 -430
-486 -110 -183 -179 -489 -122 -541 18 -17 19 -16 24 6 37 170 65 250 138 394
175 347 431 607 763 772 55 28 122 58 148 68 33 13 44 21 35 26 -16 11 -135
10 -168 -1z"/>
<path d="M5202 5751 c-18 -5 -35 -11 -38 -14 -3 -3 32 -19 78 -37 294 -113
584 -351 761 -628 136 -212 247 -466 247 -568 0 -39 17 -45 44 -15 15 17 17
31 11 98 -10 121 -42 227 -105 358 -71 144 -160 265 -295 400 -275 276 -561
441 -703 406z"/>
<path d="M1800 5706 c-381 -134 -712 -449 -926 -881 -78 -158 -109 -290 -83
-363 9 -27 35 -49 46 -39 2 3 15 47 29 98 84 313 363 713 631 905 82 60 257
160 372 214 l93 44 -27 23 c-32 28 -52 28 -135 -1z"/>
<path d="M5064 5677 l-29 -26 40 -16 c321 -135 512 -272 699 -499 202 -247
326 -472 372 -675 18 -80 36 -92 60 -36 45 108 -30 309 -226 603 -210 314
-436 514 -705 621 -139 55 -174 60 -211 28z"/>
<path d="M1950 5643 c-259 -89 -527 -291 -726 -547 -203 -260 -314 -482 -338
-678 -5 -43 -3 -49 25 -72 37 -31 49 -26 49 21 0 49 26 145 60 220 28 62 191
309 296 448 140 188 385 380 655 516 l104 52 -35 28 c-40 33 -32 32 -90 12z"/>
<path d="M4970 5613 c-14 -9 -28 -22 -32 -27 -4 -7 40 -35 110 -71 217 -112
344 -205 534 -395 118 -119 151 -159 244 -301 124 -189 177 -295 200 -400 9
-41 19 -86 22 -101 l7 -28 33 26 c37 30 40 58 17 167 -40 190 -257 520 -500
762 -174 174 -321 272 -530 355 -42 17 -77 30 -78 30 -1 0 -14 -8 -27 -17z"/>
<path d="M2014 5546 c-353 -169 -748 -557 -927 -911 -62 -123 -79 -177 -85
-271 -4 -67 -1 -83 13 -98 23 -23 30 -14 50 64 65 255 212 519 396 714 162
171 332 295 564 409 77 38 142 72 145 74 8 8 -50 53 -68 53 -10 0 -49 -15 -88
-34z"/>
<path d="M4855 5526 c-16 -13 -28 -26 -25 -28 3 -3 66 -34 140 -70 296 -144
538 -340 705 -573 107 -147 216 -382 270 -578 17 -62 30 -68 53 -26 24 46 -9
203 -71 324 -160 318 -414 607 -707 805 -66 45 -305 170 -325 170 -5 0 -23
-11 -40 -24z"/>
<path d="M2128 5460 c-242 -99 -563 -363 -740 -611 l-60 -84 44 -38 c76 -67
199 -157 247 -182 73 -36 168 -58 230 -52 105 11 170 54 341 228 95 96 184
176 230 207 152 101 200 150 200 205 0 48 -31 86 -130 160 -52 39 -128 97
-168 129 -83 66 -112 71 -194 38z m169 -68 c68 -37 214 -165 234 -204 20 -38
20 -40 2 -76 -17 -35 -43 -55 -187 -144 -24 -16 -46 -28 -48 -28 -3 0 -8 28
-10 63 -3 34 -14 80 -26 102 -49 98 -152 175 -251 191 l-42 7 22 24 c13 13 50
37 83 53 72 36 170 42 223 12z m-239 -164 c58 -28 126 -94 147 -144 66 -158
-110 -290 -281 -210 -103 48 -164 129 -164 218 0 126 162 200 298 136z m-367
-179 c15 -89 86 -182 174 -227 58 -29 175 -41 239 -23 22 6 41 9 43 7 8 -7
-100 -147 -142 -184 -61 -54 -145 -86 -203 -78 -89 12 -264 126 -349 227 -26
31 -26 31 -8 62 50 85 208 261 229 254 6 -2 14 -19 17 -38z"/>
<path d="M4670 5384 c-52 -41 -120 -92 -150 -113 -30 -21 -74 -59 -98 -84 -81
-88 -51 -145 147 -278 80 -54 144 -111 261 -230 170 -173 215 -203 316 -214
128 -15 232 27 379 151 50 42 103 87 119 99 l29 23 -74 98 c-221 295 -468 491
-750 595 -44 16 -81 29 -82 29 -1 -1 -45 -35 -97 -76z m255 -28 c24 -14 58
-38 75 -53 l33 -27 -59 -13 c-147 -34 -249 -149 -261 -299 l-5 -61 -82 55
c-83 56 -150 114 -167 144 -15 28 13 78 77 137 66 61 147 116 202 137 52 20
133 11 187 -20z m225 -151 c108 -56 112 -220 7 -312 -55 -48 -114 -66 -201
-61 -65 3 -79 7 -113 34 -45 37 -69 94 -59 145 16 86 109 179 206 206 49 14
121 8 160 -12z m274 -225 c24 -25 69 -82 100 -126 l56 -81 -22 -28 c-40 -51
-165 -142 -260 -189 -92 -44 -97 -46 -147 -36 -28 5 -69 19 -91 30 -52 26
-137 112 -179 179 l-32 53 33 -9 c18 -4 69 -8 114 -7 67 0 90 5 137 27 97 48
169 136 183 226 l7 41 28 -17 c16 -10 49 -38 73 -63z"/>
<path d="M2666 5075 c-35 -56 -80 -93 -216 -178 -109 -68 -183 -137 -292 -274
-114 -143 -205 -190 -349 -180 -103 7 -195 51 -309 148 -104 88 -189 153 -194
148 -2 -2 -31 -56 -65 -120 -111 -209 -153 -367 -117 -436 15 -29 168 -160
471 -403 72 -58 162 -131 200 -163 107 -90 132 -100 234 -95 147 8 312 76 421
175 71 65 88 90 66 99 -10 4 -36 -11 -68 -38 -138 -115 -300 -188 -415 -188
-45 0 -58 4 -80 26 -35 35 -27 87 24 161 92 133 93 135 93 186 0 27 -14 97
-31 155 -36 119 -36 184 0 263 27 60 95 152 157 210 52 49 334 285 397 332 59
45 143 79 208 84 l60 6 -23 25 c-20 21 -131 102 -140 102 -2 0 -16 -20 -32
-45z m-1220 -672 c87 -71 230 -188 317 -261 151 -129 157 -135 157 -171 0 -21
-12 -66 -27 -102 -14 -35 -34 -92 -42 -127 l-16 -63 -200 149 c-110 82 -258
198 -330 259 -144 121 -147 125 -125 223 14 61 84 220 97 220 5 0 81 -57 169
-127z"/>
<path d="M4240 5051 c-36 -27 -73 -58 -83 -69 -17 -19 -16 -19 48 -24 115 -10
187 -56 494 -316 186 -159 284 -299 297 -427 5 -52 1 -74 -30 -164 -53 -154
-51 -169 46 -301 64 -89 75 -144 35 -184 -36 -36 -103 -35 -219 4 -85 29 -125
52 -300 178 -64 46 -67 11 -4 -56 47 -51 166 -119 291 -168 59 -23 86 -27 171
-28 l101 -1 51 40 c54 43 313 252 557 450 83 68 159 133 170 145 29 32 27 152
-4 243 -22 64 -103 232 -148 305 l-20 33 -79 -64 c-237 -191 -387 -256 -524
-228 -96 20 -149 59 -262 193 -139 166 -163 187 -297 270 -118 74 -217 161
-223 198 -3 18 -10 15 -68 -29z m1537 -646 c37 -77 47 -108 51 -165 5 -67 4
-70 -26 -98 -40 -37 -308 -247 -492 -385 l-144 -109 -11 54 c-7 29 -26 88 -43
131 -54 130 -57 123 126 278 235 200 469 388 485 389 4 0 29 -43 54 -95z"/>
<path d="M2785 4950 c-123 -17 -195 -62 -417 -267 -166 -153 -226 -223 -276
-322 -35 -72 -37 -80 -37 -175 0 -87 3 -108 24 -151 l25 -50 6 85 c4 51 16
109 29 143 40 101 136 231 270 366 111 111 140 134 241 191 174 98 200 109
252 110 60 0 68 -14 68 -116 0 -58 7 -97 26 -153 31 -91 29 -138 -10 -231 -16
-36 -30 -78 -33 -95 l-4 -30 29 31 c72 77 91 213 46 341 -24 71 -24 78 -13
149 12 69 12 76 -7 102 -24 32 -86 68 -129 75 -16 2 -57 1 -90 -3z"/>
<path d="M4076 4910 c-35 -11 -75 -47 -87 -79 -7 -16 -6 -50 2 -95 10 -67 9
-76 -15 -145 -42 -121 -29 -230 39 -327 48 -67 56 -37 14 52 -43 93 -50 184
-20 282 13 45 21 97 21 145 0 95 12 111 82 105 55 -6 200 -73 309 -144 87 -57
244 -211 312 -307 88 -123 145 -257 162 -382 l7 -49 29 89 c67 205 17 306
-289 587 -252 231 -316 270 -451 275 -47 1 -99 -2 -115 -7z"/>
<path d="M2385 4515 c-25 -24 -45 -48 -45 -52 0 -36 293 -290 605 -528 94 -71
213 -162 265 -203 52 -41 100 -76 107 -79 13 -5 145 91 143 104 -6 30 -986
803 -1019 803 -7 0 -32 -20 -56 -45z"/>
<path d="M4455 4463 c-175 -129 -393 -300 -630 -493 -309 -252 -447 -361 -622
-493 -161 -121 -441 -311 -556 -376 -83 -48 -89 -59 -62 -111 15 -28 19 -30
78 -30 48 0 74 6 112 26 66 34 342 216 475 312 197 143 805 606 954 726 81 67
209 171 284 231 152 124 177 152 169 187 -6 22 -85 89 -104 87 -4 0 -48 -30
-98 -66z"/>
<path d="M2294 4405 c-4 -8 1 -26 10 -39 18 -29 226 -199 556 -456 129 -101
270 -212 313 -248 71 -59 80 -64 103 -54 13 7 24 16 24 22 0 5 -73 65 -162
132 -168 126 -383 297 -663 527 -88 72 -163 131 -168 131 -4 0 -10 -7 -13 -15z"/>
<path d="M4574 4298 c-343 -291 -940 -748 -1484 -1137 -294 -210 -332 -231
-417 -231 -91 0 -108 9 -124 69 l-12 50 -31 -13 c-25 -10 -32 -20 -38 -56 -7
-37 -4 -48 17 -75 33 -44 85 -66 151 -66 98 0 134 18 404 204 258 178 484 349
860 653 96 77 272 213 391 301 130 98 256 200 317 261 95 93 115 123 94 136
-5 3 -62 -40 -128 -96z"/>
<path d="M2176 4218 c-9 -12 -16 -28 -16 -35 0 -30 89 -104 487 -404 341 -257
427 -318 441 -310 9 5 34 23 55 39 l38 30 -201 154 c-111 84 -256 195 -323
246 -160 122 -435 302 -461 302 -3 0 -12 -10 -20 -22z"/>
<path d="M4720 4174 c-68 -38 -554 -398 -870 -645 -102 -80 -255 -198 -340
-264 -250 -191 -468 -375 -567 -478 -142 -149 -201 -282 -262 -589 -21 -105
-37 -162 -57 -198 -32 -57 -47 -66 -52 -32 -2 12 -6 22 -8 22 -26 0 -203 -119
-238 -160 -21 -26 -26 -40 -24 -80 1 -29 -3 -54 -11 -64 -8 -9 -53 -42 -100
-73 -99 -64 -371 -273 -371 -285 0 -16 43 -30 75 -24 39 8 96 45 221 146 102
83 174 121 258 139 56 12 66 19 150 105 50 50 114 110 143 133 43 35 55 53 72
106 12 36 38 83 62 112 59 72 69 96 80 198 23 210 103 353 318 567 75 75 181
174 236 221 223 190 678 545 1117 872 294 219 307 232 274 282 -9 14 -22 25
-29 25 -6 0 -41 -16 -77 -36z"/>
<path d="M3900 3333 c-33 -24 -62 -48 -65 -53 -3 -4 14 -19 38 -33 23 -14 86
-57 139 -97 192 -140 286 -183 359 -161 42 13 59 35 59 75 0 22 -13 32 -100
76 -55 29 -161 94 -235 145 l-135 94 -60 -46z"/>
<path d="M3776 3234 c-9 -8 -16 -17 -16 -19 0 -10 432 -301 480 -324 150 -70
320 6 296 133 -5 26 -13 35 -40 43 l-33 10 -12 -48 c-7 -26 -19 -54 -28 -60
-9 -8 -43 -13 -82 -13 -88 0 -129 20 -351 174 -95 66 -179 120 -186 120 -7 0
-20 -7 -28 -16z"/>
<path d="M3624 3118 c-27 -22 -50 -43 -52 -47 -1 -4 53 -58 120 -121 215 -198
312 -317 369 -452 33 -76 59 -181 59 -238 0 -60 19 -109 64 -164 52 -64 63
-83 82 -147 10 -32 24 -55 42 -66 14 -10 78 -70 142 -135 110 -111 117 -117
172 -128 85 -17 160 -59 287 -160 63 -50 128 -98 144 -107 35 -18 86 -20 116
-3 20 10 15 17 -91 97 -62 47 -156 115 -210 150 -126 84 -178 139 -178 191 0
70 -41 111 -192 197 -71 40 -68 39 -68 16 0 -63 -63 3 -79 81 -5 29 -19 101
-30 159 -47 240 -108 394 -204 514 -54 67 -85 95 -333 307 l-110 95 -50 -39z"/>
<path d="M4843 2965 c-309 -84 -464 -416 -339 -726 41 -101 87 -169 182 -264
93 -94 188 -163 284 -208 30 -15 61 -35 68 -47 11 -19 10 -20 -24 -20 -20 0
-34 -4 -32 -9 3 -9 110 -99 171 -144 100 -75 186 -77 223 -5 15 29 15 32 -1
44 -10 8 -48 23 -84 35 -36 12 -84 31 -106 43 l-40 21 40 2 c152 9 318 49 426
103 258 131 351 404 229 676 -101 226 -389 437 -680 500 -83 17 -249 17 -317
-1z m327 -91 c186 -32 321 -102 450 -233 124 -126 175 -247 168 -399 -5 -108
-28 -160 -111 -249 -107 -113 -229 -166 -387 -166 -239 0 -465 124 -609 333
-143 209 -137 446 16 591 127 121 270 158 473 123z"/>
<path d="M4680 2583 c-19 -2 -38 -10 -42 -16 -13 -20 -8 -149 7 -216 48 -201
223 -388 425 -452 123 -40 279 -36 393 8 42 17 45 34 26 138 -17 93 -65 179
-149 268 -121 129 -241 205 -392 247 -74 21 -204 32 -268 23z"/>
<path d="M1887 2950 c-80 -13 -229 -65 -307 -108 -332 -182 -508 -444 -471
-700 38 -260 272 -447 583 -467 51 -3 109 -8 128 -11 31 -5 33 -7 17 -19 -10
-7 -58 -27 -107 -45 -49 -18 -96 -40 -106 -51 -16 -17 -15 -20 19 -54 64 -64
137 -41 295 95 l94 80 -36 0 c-20 0 -36 4 -36 8 0 5 60 48 133 97 150 101 291
235 349 330 20 33 49 96 64 140 24 68 28 96 29 190 0 121 -14 179 -66 271 -34
61 -115 144 -173 178 -103 60 -271 87 -409 66z m205 -109 c151 -39 224 -95
283 -216 54 -110 62 -212 26 -332 -34 -112 -151 -268 -267 -354 -257 -190
-574 -190 -778 1 -326 305 -57 807 484 905 106 19 166 18 252 -4z"/>
<path d="M2145 2554 c-316 -51 -604 -307 -639 -569 -12 -82 1 -100 86 -127
107 -33 236 -31 338 7 214 78 377 255 425 458 16 69 20 213 6 221 -13 8 -180
15 -216 10z"/>
</g>
</svg>
